<svg width="35" height="34" viewBox="0 0 35 34" fill="none" xmlns="http://www.w3.org/2000/svg">
<path opacity="0.29" d="M17.2322 3.57417C19.9007 3.57417 22.5092 4.36546 24.7279 5.84798C26.9467 7.3305 28.676 9.43767 29.6972 11.903C30.7184 14.3683 30.9855 17.0811 30.465 19.6983C29.9444 22.3155 28.6594 24.7196 26.7725 26.6065C24.8856 28.4933 22.4815 29.7783 19.8644 30.2989C17.2472 30.8195 14.5344 30.5523 12.069 29.5312C9.60369 28.51 7.49653 26.7807 6.01401 24.5619C4.53149 22.3432 3.7402 19.7346 3.7402 17.0662C3.74496 13.4893 5.16796 10.0604 7.69717 7.53115C10.2264 5.00194 13.6554 3.57893 17.2322 3.57417ZM17.2322 0.201172C13.8966 0.201172 10.6359 1.19029 7.8625 3.04344C5.08907 4.89659 2.92744 7.53054 1.65097 10.6122C0.374495 13.6939 0.0405116 17.0849 0.691251 20.3564C1.34199 23.6279 2.94823 26.6329 5.30684 28.9915C7.66545 31.3501 10.6705 32.9564 13.942 33.6071C17.2135 34.2579 20.6045 33.9239 23.6862 32.6474C26.7678 31.3709 29.4018 29.2093 31.2549 26.4359C33.1081 23.6624 34.0972 20.4018 34.0972 17.0662C34.0969 12.5934 32.32 8.30385 29.1573 5.14111C25.9945 1.97837 21.705 0.201437 17.2322 0.201172ZM25.6672 15.3802H18.9192V8.63417H15.5462V15.3802H8.80019V18.7532H15.5462V25.5012H18.9192V18.7532H25.6672V15.3802Z" fill="black"/>
</svg>
