<svg xmlns="http://www.w3.org/2000/svg" width="19.383" height="22.908" viewBox="0 0 19.383 22.908">
  <g id="avatar" transform="translate(90.615 5)">
    <g id="Group_8557" data-name="Group 8557" transform="translate(-90.615 -5)">
      <path id="Path_19675" data-name="Path 19675" d="M52.53,10.622a5.874,5.874,0,1,0-6.907,0,9.707,9.707,0,0,0-6.238,9.055,3.234,3.234,0,0,0,3.231,3.231H55.538a3.234,3.234,0,0,0,3.231-3.231A9.707,9.707,0,0,0,52.53,10.622ZM44.965,5.874a4.112,4.112,0,1,1,4.112,4.112A4.116,4.116,0,0,1,44.965,5.874ZM55.538,21.145H42.616a1.47,1.47,0,0,1-1.468-1.468,7.93,7.93,0,1,1,15.859,0A1.47,1.47,0,0,1,55.538,21.145Z" transform="translate(-39.385)" fill="#089ceb"/>
    </g>
  </g>
</svg>
