<svg xmlns="http://www.w3.org/2000/svg" width="23" height="21.434" viewBox="0 0 23 21.434">
  <g id="box" transform="translate(-9 -25.634)">
    <path id="Path_19676" data-name="Path 19676" d="M30.6,34.87H29.44a1.142,1.142,0,0,0-1.09-.838H27.111V31a.319.319,0,0,0-.156-.282l-8.733-5.044a.323.323,0,0,0-.324,0L9.162,30.722A.325.325,0,0,0,9,31V41.093a.326.326,0,0,0,.163.282L17.9,46.419a.326.326,0,0,0,.163.044.343.343,0,0,0,.168-.044l4.6-2.652v1.917a1.38,1.38,0,0,0,1.392,1.384H30.6A1.388,1.388,0,0,0,32,45.684v-9.41A1.406,1.406,0,0,0,30.6,34.87Zm-2.238-.186a.473.473,0,0,1,.473.473v.032a.473.473,0,0,1-.473.473H26.467a.473.473,0,0,1-.473-.473v-.032a.473.473,0,0,1,.473-.473Zm-10.3-8.347,3.63,2.1L13.609,33.1,9.978,31Zm-.31,19.236L9.652,40.9V31.568l8.1,4.668Zm.31-9.9-3.8-2.2,8.085-4.668,3.8,2.2Zm4.765.6v6.74L18.4,45.572V36.236l8.055-4.668v2.464h.01a1.142,1.142,0,0,0-1.09.838H24.22A1.4,1.4,0,0,0,22.828,36.275Zm8.52,9.41a.735.735,0,0,1-.749.732H24.22a.728.728,0,0,1-.74-.732v-9.41a.746.746,0,0,1,.74-.753h1.172a1.115,1.115,0,0,0,1.078.792h1.88a1.115,1.115,0,0,0,1.078-.792H30.6a.754.754,0,0,1,.749.753Z" transform="translate(0 0)" fill="#7367f0"/>
    <path id="Path_19677" data-name="Path 19677" d="M337.323,280.188h.341a.326.326,0,0,0,0-.652h-.013v-.885h.9a.314.314,0,0,0,.31.22.327.327,0,0,0,.328-.325v-.219a.33.33,0,0,0-.329-.327h-1.535a.325.325,0,0,0-.324.327v1.535a.324.324,0,0,0,.324.326Z" transform="translate(-312.729 -240.616)" fill="#7367f0"/>
    <path id="Path_19678" data-name="Path 19678" d="M337.326,344.188h1.536a.326.326,0,0,0,.326-.326v-1.536a.326.326,0,0,0-.326-.326h-1.536a.326.326,0,0,0-.326.326v1.536A.326.326,0,0,0,337.326,344.188Zm.326-1.536h.885v.885h-.885Z" transform="translate(-312.729 -301.637)" fill="#7367f0"/>
    <path id="Path_19679" data-name="Path 19679" d="M337.664,407.536h-.013v-.885h.881a.328.328,0,1,0,.655,0v-.314a.34.34,0,0,0-.329-.338h-1.535a.335.335,0,0,0-.324.338v1.535a.314.314,0,0,0,.324.315h.341a.326.326,0,1,0,0-.652Z" transform="translate(-312.728 -362.657)" fill="#7367f0"/>
    <path id="Path_19680" data-name="Path 19680" d="M356.156,284.634l-.954.954-.29-.29a.326.326,0,0,0-.461.461l.521.521a.326.326,0,0,0,.461,0l1.185-1.185a.326.326,0,0,0-.461-.461Z" transform="translate(-329.275 -246.851)" fill="#7367f0"/>
    <path id="Path_19681" data-name="Path 19681" d="M356.156,413.883l-.954.954-.29-.29a.326.326,0,0,0-.461.461l.521.521a.326.326,0,0,0,.461,0l1.185-1.185a.326.326,0,0,0-.461-.461Z" transform="translate(-329.275 -370.082)" fill="#7367f0"/>
    <path id="Path_19682" data-name="Path 19682" d="M416.264,295h-2.047a.326.326,0,1,0,0,.652h2.047a.326.326,0,1,0,0-.652Z" transform="translate(-386.04 -256.825)" fill="#7367f0"/>
    <path id="Path_19683" data-name="Path 19683" d="M416.264,359h-2.047a.326.326,0,1,0,0,.652h2.047a.326.326,0,1,0,0-.652Z" transform="translate(-386.04 -317.845)" fill="#7367f0"/>
    <path id="Path_19684" data-name="Path 19684" d="M416.264,423h-2.047a.326.326,0,1,0,0,.652h2.047a.326.326,0,1,0,0-.652Z" transform="translate(-386.04 -378.865)" fill="#7367f0"/>
  </g>
</svg>
