<svg xmlns="http://www.w3.org/2000/svg" width="613.479" height="723.266" viewBox="0 0 613.479 723.266">
  <path id="Path_19374" data-name="Path 19374" d="M1189.121,267.644c-137.218-80.183-418.477-26.61-538.771,44.05,38.135,202.875,78.374,535.827,101.687,607.715A40,40,0,0,0,764.4,937.924c.311.258.622.507.933.759,14.074,11.287,32.725,14.795,50.184,10.257,109.318-28.393,256.567-168.3,359.711-317.337,44.629-68.517,77.067-140.987,87.01-210.056,8.832-61.426-19.52-122.594-73.114-153.9M921.145,783.669A220.924,220.924,0,0,1,851.63,772.56,205.567,205.567,0,0,1,739.982,538.339C761.82,448.406,842.861,381.623,939.5,381.623a207.376,207.376,0,0,1,27.233,1.8q5.5.729,10.921,1.749c10.3,1.937,20.088,6.391,27.649,13.659,17.022,16.355,15.335,36.412,4.388,49.676q-1.214,1.48-2.574,2.841A39.748,39.748,0,0,1,987.986,461.9a30.437,30.437,0,0,1-11.415.265c-3.823-.563-7.6-1.6-11.587-2.518a149.763,149.763,0,0,0-24.683-3.555c-3.012-.181-6.032-.3-9.089-.3A149.4,149.4,0,0,0,857.4,735.075c60.782,37.627,143.676,28.283,198.851-26.886,56.582-56.581,64.967-142.322,23.92-203.462,24.469,29.089,38.959,65.113,38.959,104.131,0,96.547-88.645,174.811-197.982,174.811m290.429-311.953a22,22,0,0,1-44,0V392.085c-85.42,77.538-168.323,150.5-242.68,207.8l210.073-238.139h-82.281a22.752,22.752,0,0,1,0-45.5h138.658a20.231,20.231,0,0,1,20.229,20.226Z" transform="translate(-650.35 -227.599)" fill="#da1e37" opacity="0.03"/>
</svg>
