<svg xmlns="http://www.w3.org/2000/svg" width="94" height="109.152" viewBox="0 0 94 109.152">
  <g id="fireworks" transform="translate(-0.5)">
    <path id="Path_19739" data-name="Path 19739" d="M96.106,477.266a1.576,1.576,0,0,1-1.13-2.674l1.959-2.018a1.576,1.576,0,1,1,2.262,2.2l-1.96,2.018A1.569,1.569,0,0,1,96.106,477.266Zm0,0" transform="translate(-73.984 -371.451)" fill="#ff4e61"/>
    <path id="Path_19740" data-name="Path 19740" d="M195.835,114.18a1.576,1.576,0,0,1-1.13-2.673l1.96-2.019a1.576,1.576,0,1,1,2.261,2.2l-1.959,2.019A1.571,1.571,0,0,1,195.835,114.18Zm0,0" transform="translate(-152.452 -85.77)" fill="#ff4e61"/>
    <path id="Path_19741" data-name="Path 19741" d="M407.989,81.312a1.576,1.576,0,0,1-1.131-2.673l1.96-2.019a1.576,1.576,0,0,1,2.262,2.2l-1.96,2.019A1.571,1.571,0,0,1,407.989,81.312Zm0,0" transform="translate(-319.376 -59.91)" fill="#5c73bc"/>
    <path id="Path_19742" data-name="Path 19742" d="M407.989,444.693a1.576,1.576,0,0,1-1.131-2.673l1.96-2.019a1.576,1.576,0,0,1,2.262,2.2l-1.96,2.019A1.571,1.571,0,0,1,407.989,444.693Zm0,0" transform="translate(-319.376 -345.822)" fill="#fa0"/>
    <path id="Path_19743" data-name="Path 19743" d="M57.257,93.831a1.576,1.576,0,0,1-1.13-2.673l1.96-2.019a1.576,1.576,0,0,1,2.261,2.2l-1.96,2.019a1.571,1.571,0,0,1-1.131.478Zm0,0" transform="translate(-43.417 -69.76)" fill="#fa0"/>
    <path id="Path_19744" data-name="Path 19744" d="M6.5,259.742a1.576,1.576,0,0,1-1.13-2.673l1.959-2.019a1.576,1.576,0,1,1,2.262,2.2l-1.96,2.019a1.57,1.57,0,0,1-1.131.478Zm0,0" transform="translate(-3.478 -200.3)" fill="#2dc471"/>
    <path id="Path_19745" data-name="Path 19745" d="M172.117,196.2,167,198.972a1.821,1.821,0,0,1-2.624-1.965l.977-5.868a1.9,1.9,0,0,0-.52-1.649l-4.139-4.156a1.878,1.878,0,0,1,1-3.178l5.719-.856a1.811,1.811,0,0,0,1.362-1.019l2.558-5.339a1.786,1.786,0,0,1,3.244,0l2.557,5.339A1.814,1.814,0,0,0,178.5,181.3l5.719.856a1.878,1.878,0,0,1,1,3.178l-4.138,4.156a1.9,1.9,0,0,0-.52,1.649l.977,5.868a1.82,1.82,0,0,1-2.623,1.965L173.8,196.2a1.76,1.76,0,0,0-1.683,0Zm0,0" transform="translate(-125.612 -136.83)" fill="#ffd02f"/>
    <path id="Path_19746" data-name="Path 19746" d="M214.423,409.416a1.575,1.575,0,0,1-1.576-1.576V383.2a1.576,1.576,0,1,1,3.151,0v24.643A1.575,1.575,0,0,1,214.423,409.416Zm0,0" transform="translate(-167.077 -300.264)" fill="#5c73bc"/>
    <path id="Path_19747" data-name="Path 19747" d="M214.39,345.789h-.024a1.576,1.576,0,1,1,0-3.152h.024a1.576,1.576,0,0,1,0,3.152Zm0,0" transform="translate(-167.031 -269.591)" fill="#5c73bc"/>
    <path id="Path_19748" data-name="Path 19748" d="M214.39,320.366h-.032a1.576,1.576,0,0,1,.007-3.151h.032a1.576,1.576,0,0,1-.007,3.151Zm0,0" transform="translate(-167.031 -249.588)" fill="#fa0"/>
    <path id="Path_19749" data-name="Path 19749" d="M18.991,154.954a1.571,1.571,0,0,1-1.131-.478L.946,137.05a1.576,1.576,0,0,1,2.261-2.2L20.122,152.28a1.576,1.576,0,0,1-1.131,2.673Zm0,0" transform="translate(0 -105.729)" fill="#ff4e61"/>
    <path id="Path_19750" data-name="Path 19750" d="M108.137,246.807a1.576,1.576,0,0,1-1.128-2.677l.017-.017a1.576,1.576,0,1,1,2.254,2.2l-.017.017A1.573,1.573,0,0,1,108.137,246.807Zm0,0" transform="translate(-83.45 -191.697)" fill="#fa0"/>
    <path id="Path_19751" data-name="Path 19751" d="M125.588,264.783a1.576,1.576,0,0,1-1.13-2.673l.017-.018a1.576,1.576,0,0,1,2.262,2.2l-.017.017A1.571,1.571,0,0,1,125.588,264.783Zm0,0" transform="translate(-97.181 -205.84)" fill="#5c73bc"/>
    <path id="Path_19752" data-name="Path 19752" d="M347.429,152.047a1.576,1.576,0,0,1-1.13-2.673l16.914-17.425a1.576,1.576,0,1,1,2.262,2.2l-16.915,17.425a1.571,1.571,0,0,1-1.131.478Zm0,0" transform="translate(-271.728 -103.443)" fill="#fa0"/>
    <path id="Path_19753" data-name="Path 19753" d="M320.644,243.9a1.569,1.569,0,0,1-1.123-.471l-.017-.017a1.576,1.576,0,1,1,2.248-2.209l.018.017a1.576,1.576,0,0,1-1.124,2.681Zm0,0" transform="translate(-250.639 -189.413)" fill="#ff4e61"/>
    <path id="Path_19754" data-name="Path 19754" d="M303.194,261.882a1.572,1.572,0,0,1-1.131-.478l-.017-.017a1.576,1.576,0,0,1,2.262-2.2l.017.018a1.576,1.576,0,0,1-1.131,2.674Zm0,0" transform="translate(-236.91 -203.558)" fill="#fa0"/>
    <path id="Path_19755" data-name="Path 19755" d="M294.843,26.653a1.576,1.576,0,0,1-1.367-2.357L305.6,3.052a1.576,1.576,0,0,1,2.737,1.562L296.214,25.859a1.576,1.576,0,0,1-1.371.794Zm0,0" transform="translate(-230.354 -1.776)" fill="#62d38f"/>
    <path id="Path_19756" data-name="Path 19756" d="M275.635,138.65a1.57,1.57,0,0,1-.808-.223l-.021-.012a1.576,1.576,0,0,1,1.618-2.7l.021.012a1.576,1.576,0,0,1-.81,2.928Zm0,0" transform="translate(-215.224 -106.602)" fill="#fa0"/>
    <path id="Path_19757" data-name="Path 19757" d="M263.128,160.567a1.568,1.568,0,0,1-.812-.227l-.021-.012a1.576,1.576,0,1,1,1.627-2.7l.021.012a1.576,1.576,0,0,1-.815,2.926Zm0,0" transform="translate(-205.384 -123.846)" fill="#2dc471"/>
    <path id="Path_19758" data-name="Path 19758" d="M89.4,26.652a1.575,1.575,0,0,1-1.371-.8L75.906,4.613a1.576,1.576,0,0,1,2.737-1.562L90.766,24.295A1.576,1.576,0,0,1,89.4,26.652Zm0,0" transform="translate(-59.167 -1.775)" fill="#5c73bc"/>
    <path id="Path_19759" data-name="Path 19759" d="M153.272,138.65a1.576,1.576,0,0,1-.814-2.926l.022-.012a1.576,1.576,0,0,1,1.623,2.7l-.021.012a1.57,1.57,0,0,1-.81.225Zm0,0" transform="translate(-118.961 -106.602)" fill="#ff4e61"/>
    <path id="Path_19760" data-name="Path 19760" d="M165.78,160.567a1.576,1.576,0,0,1-.819-2.924l.021-.012a1.576,1.576,0,1,1,1.634,2.7l-.021.013A1.568,1.568,0,0,1,165.78,160.567Zm0,0" transform="translate(-128.802 -123.846)" fill="#fa0"/>
    <path id="Path_19761" data-name="Path 19761" d="M366.743,299.286l-3.309,2.473a1.278,1.278,0,0,1-2.03-1.1l.107-4.21a1.334,1.334,0,0,0-.526-1.1l-3.306-2.477a1.334,1.334,0,0,1,.389-2.33l3.921-1.2a1.3,1.3,0,0,0,.853-.856l1.266-4a1.265,1.265,0,0,1,2.271-.339l2.316,3.472a1.27,1.27,0,0,0,1.053.571l4.089,0a1.322,1.322,0,0,1,1.014,2.121l-2.489,3.341a1.351,1.351,0,0,0-.2,1.209l1.262,4.007a1.3,1.3,0,0,1-1.645,1.649l-3.854-1.407a1.249,1.249,0,0,0-1.178.176Zm0,0" transform="translate(-280.617 -223.117)" fill="#ffd02f"/>
    <path id="Path_19762" data-name="Path 19762" d="M255.693,384.564a1.575,1.575,0,0,1-1.576-1.576,38.006,38.006,0,0,1,8.951-25.221,32.78,32.78,0,0,1,9.058-7.562,1.576,1.576,0,0,1,1.426,2.811,30.3,30.3,0,0,0-8.179,6.906c-5.378,6.336-8.1,14.1-8.1,23.066a1.576,1.576,0,0,1-1.576,1.576Zm0,0" transform="translate(-199.549 -275.411)" fill="#ff4e61"/>
    <path id="Path_19763" data-name="Path 19763" d="M78.786,342.965l2.508,3.327a1.266,1.266,0,0,0,2.248-.475l1.037-4.075a1.3,1.3,0,0,1,.8-.905l3.846-1.43a1.335,1.335,0,0,0,.257-2.348l-3.441-2.275a1.331,1.331,0,0,1-.588-1.067l-.132-4.21a1.275,1.275,0,0,0-2.089-.978L80.073,331.2a1.252,1.252,0,0,1-1.167.246l-3.927-1.173a1.3,1.3,0,0,0-1.548,1.745l1.486,3.925a1.352,1.352,0,0,1-.133,1.219l-2.3,3.485A1.318,1.318,0,0,0,73.62,342.7l4.081-.243a1.265,1.265,0,0,1,1.084.507Zm0,0" transform="translate(-56.465 -258.254)" fill="#ffd02f"/>
    <path id="Path_19764" data-name="Path 19764" d="M156.879,433.276A1.576,1.576,0,0,1,155.3,431.7a35.982,35.982,0,0,0-4.232-17.425,1.576,1.576,0,0,1,2.768-1.508,39.111,39.111,0,0,1,4.615,18.933,1.576,1.576,0,0,1-1.576,1.576Zm0,0" transform="translate(-118.32 -324.124)" fill="#fa0"/>
    <path id="Path_19765" data-name="Path 19765" d="M237.712,39.821a4.231,4.231,0,1,0-4.229,4.357A4.294,4.294,0,0,0,237.712,39.821Zm0,0" transform="translate(-179.986 -27.904)" fill="#ffd02f"/>
    <path id="Path_19766" data-name="Path 19766" d="M341.867,430.736a4.23,4.23,0,1,0-4.228,4.356A4.293,4.293,0,0,0,341.867,430.736Zm0,0" transform="translate(-261.937 -335.48)" fill="#5c73bc"/>
    <path id="Path_19767" data-name="Path 19767" d="M19.1,437.962a3.393,3.393,0,1,0-3.392,3.494A3.443,3.443,0,0,0,19.1,437.962Zm0,0" transform="translate(-9.294 -341.845)" fill="#62d38f"/>
    <path id="Path_19768" data-name="Path 19768" d="M63.138,275.459a3.393,3.393,0,1,0-3.392,3.494A3.443,3.443,0,0,0,63.138,275.459Zm0,0" transform="translate(-43.947 -213.985)" fill="#5c73bc"/>
    <g id="Group_8596" data-name="Group 8596" transform="translate(28.655)">
      <path id="Path_19769" data-name="Path 19769" d="M185.806,3.494a3.393,3.393,0,1,0-6.783,0,3.393,3.393,0,1,0,6.783,0Zm0,0" transform="translate(-169.119)" fill="#ff4e61"/>
      <path id="Path_19770" data-name="Path 19770" d="M340.19,139.987a3.393,3.393,0,1,0-3.392,3.493A3.445,3.445,0,0,0,340.19,139.987Zm0,0" transform="translate(-290.589 -107.394)" fill="#ff4e61"/>
      <path id="Path_19771" data-name="Path 19771" d="M134.141,13.665a1.576,1.576,0,0,1-1.131-2.673l1.96-2.019a1.576,1.576,0,1,1,2.261,2.2l-1.959,2.019A1.573,1.573,0,0,1,134.141,13.665Zm0,0" transform="translate(-132.565 -6.683)" fill="#ff4e61"/>
    </g>
  </g>
</svg>
