<svg xmlns="http://www.w3.org/2000/svg" width="22.032" height="22.032" viewBox="0 0 22.032 22.032">
  <g id="management" transform="translate(-0.5)">
    <path id="Path_19792" data-name="Path 19792" d="M49.227,12.118v-.734a.367.367,0,0,0,.367-.367v-2.2a.367.367,0,0,0-.367-.367H47.244l-.071-.276a6.786,6.786,0,0,0-.749-1.794l-.147-.246,1.408-1.41a.364.364,0,0,0,0-.514L46.126,2.644a.373.373,0,0,0-.514,0L44.2,4.054l-.246-.147a6.8,6.8,0,0,0-1.8-.749l-.276-.072V1.1a.367.367,0,0,0-.367-.367h-2.2a.367.367,0,0,0-.367.367V3.085l-.276.071a6.8,6.8,0,0,0-1.794.749l-.246.147L35.22,2.644a.372.372,0,0,0-.516,0L33.144,4.2a.365.365,0,0,0,0,.516l1.41,1.41-.147.246a6.785,6.785,0,0,0-.749,1.794l-.072.276H31.6a.367.367,0,0,0-.367.367v2.2a.367.367,0,0,0,.367.367v.734a1.1,1.1,0,0,1-1.1-1.1v-2.2a1.1,1.1,0,0,1,1.1-1.1h1.421a7.5,7.5,0,0,1,.611-1.462l-1.01-1.01a1.1,1.1,0,0,1,0-1.555l1.561-1.561a1.125,1.125,0,0,1,1.555,0l1.01,1.009a7.5,7.5,0,0,1,1.463-.61V1.1a1.1,1.1,0,0,1,1.1-1.1h2.2a1.1,1.1,0,0,1,1.1,1.1V2.523a7.5,7.5,0,0,1,1.462.611l1.01-1.01a1.125,1.125,0,0,1,1.555,0l1.56,1.56a1.1,1.1,0,0,1,0,1.555L47.2,6.248a7.527,7.527,0,0,1,.611,1.463h1.421a1.1,1.1,0,0,1,1.1,1.1v2.2a1.1,1.1,0,0,1-1.1,1.1Zm0,0" transform="translate(-28.899 0)" fill="#ff9f43"/>
    <path id="Path_19793" data-name="Path 19793" d="M170.782,135.141h-.734a4.406,4.406,0,1,0-8.813,0H160.5a5.141,5.141,0,0,1,10.282,0Zm0,0" transform="translate(-154.125 -125.226)" fill="#ff9f43"/>
    <path id="Path_19794" data-name="Path 19794" d="M242.7,234.406a2.2,2.2,0,1,1,2.2-2.2A2.2,2.2,0,0,1,242.7,234.406Zm0-3.672a1.469,1.469,0,1,0,1.469,1.469A1.469,1.469,0,0,0,242.7,230.734Zm0,0" transform="translate(-231.187 -221.554)" fill="#ff9f43"/>
    <path id="Path_19795" data-name="Path 19795" d="M412.7,274.406a2.2,2.2,0,1,1,2.2-2.2A2.2,2.2,0,0,1,412.7,274.406Zm0-3.672a1.469,1.469,0,1,0,1.469,1.469A1.469,1.469,0,0,0,412.7,270.734Zm0,0" transform="translate(-394.945 -260.086)" fill="#ff9f43"/>
    <path id="Path_19796" data-name="Path 19796" d="M72.7,274.406a2.2,2.2,0,1,1,2.2-2.2A2.2,2.2,0,0,1,72.7,274.406Zm0-3.672a1.469,1.469,0,1,0,1.469,1.469A1.469,1.469,0,0,0,72.7,270.734Zm0,0" transform="translate(-67.43 -260.086)" fill="#ff9f43"/>
    <path id="Path_19797" data-name="Path 19797" d="M21.087,362.043a3.268,3.268,0,0,0-1.86-.575H16.289a3.284,3.284,0,0,0-.533.048,3.3,3.3,0,0,0-.9-.933,1.418,1.418,0,0,0-.169-.11,3.279,3.279,0,0,0-1.7-.474H10.047a3.268,3.268,0,0,0-2.771,1.517,3.294,3.294,0,0,0-.534-.048H3.8a3.268,3.268,0,0,0-1.859.574A3.3,3.3,0,0,0,.5,364.773v1.469A2.573,2.573,0,0,0,2,368.575a2.489,2.489,0,0,0,1.075.237H6.742v-.734h-3.3v-4.039H2.7v4a1.724,1.724,0,0,1-.4-.133,1.839,1.839,0,0,1-1.069-1.666v-1.469a2.573,2.573,0,0,1,1.126-2.125A2.539,2.539,0,0,1,3.8,362.2H6.742c.065,0,.127.007.19.011a3.3,3.3,0,0,0-.19,1.09v3.672a1.838,1.838,0,0,0,1.836,1.836h1.1v-5.875H8.945v5.141H8.578a1.1,1.1,0,0,1-1.1-1.1V363.3a2.57,2.57,0,0,1,2.57-2.57h2.938a2.566,2.566,0,0,1,1.338.378.925.925,0,0,1,.107.069,2.6,2.6,0,0,1,.823.918,2.565,2.565,0,0,1,.3,1.206v3.672a1.1,1.1,0,0,1-1.1,1.1h-.367v-5.141h-.734v5.875h1.1a1.838,1.838,0,0,0,1.836-1.836V363.3a3.312,3.312,0,0,0-.19-1.09c.063,0,.126-.011.19-.011h2.938a2.541,2.541,0,0,1,1.446.446,2.574,2.574,0,0,1,1.125,2.124v1.469a1.839,1.839,0,0,1-1.075,1.669,1.689,1.689,0,0,1-.394.13v-4h-.734v4.039h-3.3v.734h3.672a2.483,2.483,0,0,0,1.069-.234,2.574,2.574,0,0,0,1.5-2.336v-1.469a3.3,3.3,0,0,0-1.445-2.73Zm0,0" transform="translate(0 -346.78)" fill="#ff9f43"/>
    <path id="Path_19798" data-name="Path 19798" d="M260.5,580h2.938v.734H260.5Zm0,0" transform="translate(-250.453 -558.702)" fill="#ff9f43"/>
  </g>
</svg>
