<svg xmlns="http://www.w3.org/2000/svg" width="24.212" height="23.405" viewBox="0 0 24.212 23.405">
  <g id="money" transform="translate(0 -7.982)">
    <g id="Group_8559" data-name="Group 8559" transform="translate(0 15.669)">
      <g id="Group_8558" data-name="Group 8558" transform="translate(0 0)">
        <path id="Path_19685" data-name="Path 19685" d="M20.573,160.017H.347a.346.346,0,0,0-.347.346H0v9.708a.346.346,0,0,0,.346.347H14.1a.347.347,0,1,0,0-.693H.693V160.71H20.225v.867a.346.346,0,0,0,.346.347h0a.346.346,0,0,0,.347-.346h0v-1.214A.346.346,0,0,0,20.573,160.017Z" transform="translate(0 -160.017)" fill="#ea5455"/>
      </g>
    </g>
    <g id="Group_8561" data-name="Group 8561" transform="translate(0.809 10.411)">
      <g id="Group_8560" data-name="Group 8560" transform="translate(0 0)">
        <path id="Path_19686" data-name="Path 19686" d="M33.407,59.668l-16.18-3.641a.347.347,0,0,0-.415.263L16,59.931a.347.347,0,0,0,.677.15l.733-3.3,15.841,3.564a.327.327,0,0,0,.076.008.347.347,0,0,0,.076-.685Z" transform="translate(-15.995 -56.019)" fill="#ea5455"/>
      </g>
    </g>
    <g id="Group_8563" data-name="Group 8563" transform="translate(5.252 7.982)">
      <g id="Group_8562" data-name="Group 8562" transform="translate(0 0)">
        <path id="Path_19687" data-name="Path 19687" d="M114.879,12.054l-9.708-4.045a.348.348,0,0,0-.445.165l-.809,1.618a.348.348,0,0,0,.612.331l.01-.02h0l.664-1.328,9.408,3.92a.348.348,0,1,0,.268-.641Z" transform="translate(-103.875 -7.982)" fill="#ea5455"/>
      </g>
    </g>
    <g id="Group_8565" data-name="Group 8565" transform="translate(12.944 17.287)">
      <g id="Group_8564" data-name="Group 8564" transform="translate(0 0)">
        <path id="Path_19688" data-name="Path 19688" d="M259.557,192.017h-3.211a.347.347,0,1,0,0,.693h3.211a.347.347,0,0,0,0-.693Z" transform="translate(-256 -192.017)" fill="#ea5455"/>
      </g>
    </g>
    <g id="Group_8567" data-name="Group 8567" transform="translate(6.495 17.31)">
      <g id="Group_8566" data-name="Group 8566" transform="translate(0 0)">
        <path id="Path_19689" data-name="Path 19689" d="M132.016,192.473a3.56,3.56,0,1,0,3.56,3.56A3.56,3.56,0,0,0,132.016,192.473Zm0,6.472a2.912,2.912,0,1,1,2.912-2.912A2.912,2.912,0,0,1,132.016,198.945Z" transform="translate(-128.456 -192.473)" fill="#ea5455"/>
      </g>
    </g>
    <g id="Group_8569" data-name="Group 8569" transform="translate(15.313 18.443)">
      <g id="Group_8568" data-name="Group 8568">
        <path id="Path_19690" data-name="Path 19690" d="M307.306,214.873c-2.144,0-4.45.506-4.45,1.618V226.2c0,1.112,2.306,1.618,4.45,1.618s4.45-.506,4.45-1.618v-9.708C311.755,215.379,309.449,214.873,307.306,214.873Zm3.64,11.32c-.061.225-1.274.815-3.64.815s-3.579-.591-3.641-.809v-.636a10.736,10.736,0,0,0,7.281,0Zm0-1.618c-.061.225-1.274.815-3.64.815s-3.579-.591-3.641-.809v-.636a10.736,10.736,0,0,0,7.281,0Zm0-1.618c-.061.225-1.274.815-3.64.815s-3.579-.591-3.641-.809v-.636a10.736,10.736,0,0,0,7.281,0Zm0-1.618c-.061.225-1.274.815-3.64.815s-3.579-.591-3.641-.809v-.636a10.736,10.736,0,0,0,7.281,0Zm0-1.618c-.061.225-1.274.815-3.64.815s-3.579-.591-3.641-.809v-.636a10.736,10.736,0,0,0,7.281,0Zm0-1.618c-.061.225-1.274.815-3.64.815s-3.579-.591-3.641-.809v-.636a10.736,10.736,0,0,0,7.281,0Zm-3.64-.8c-2.363,0-3.575-.589-3.641-.8v0c.065-.225,1.278-.814,3.641-.814,2.346,0,3.56.58,3.64.809C310.865,216.72,309.652,217.3,307.306,217.3Z" transform="translate(-302.856 -214.873)" fill="#ea5455"/>
      </g>
    </g>
    <g id="Group_8571" data-name="Group 8571" transform="translate(1.618 17.287)">
      <g id="Group_8570" data-name="Group 8570">
        <path id="Path_19691" data-name="Path 19691" d="M37.193,198.489H34.135l-1.45-1.586v-2.629l1.6-1.563h2.906a.347.347,0,1,0,0-.693H34.146a.347.347,0,0,0-.243.1L32.1,193.878a.435.435,0,0,0-.1.283v2.877a.347.347,0,0,0,.091.234l1.643,1.8a.347.347,0,0,0,.256.113h3.211a.347.347,0,1,0,0-.693Z" transform="translate(-31.992 -192.017)" fill="#ea5455"/>
      </g>
    </g>
    <g id="Group_8573" data-name="Group 8573" transform="translate(8.841 19.05)">
      <g id="Group_8572" data-name="Group 8572">
        <path id="Path_19692" data-name="Path 19692" d="M176.272,228.289h-.4c-.126,0-.2-.07-.2-.1s.076-.1.2-.1h1.011a.4.4,0,0,0,0-.809h-.4a.4.4,0,0,0-.809,0v.018a.942.942,0,0,0-.809.89.966.966,0,0,0,1.011.912h.4c.126,0,.2.07.2.1s-.076.1-.2.1h-1.011a.4.4,0,1,0,0,.809h.4a.4.4,0,0,0,.809,0v-.018a.942.942,0,0,0,.809-.89A.966.966,0,0,0,176.272,228.289Z" transform="translate(-174.856 -226.873)" fill="#ea5455"/>
      </g>
    </g>
  </g>
</svg>
