<svg xmlns="http://www.w3.org/2000/svg" width="15.989" height="25.376" viewBox="0 0 15.989 25.376">
  <g id="smartphone" transform="translate(-94.696)">
    <path id="Path_19693" data-name="Path 19693" d="M144.615,108.643a5.808,5.808,0,1,0-5.808-5.808A5.815,5.815,0,0,0,144.615,108.643Zm0-10.626a4.817,4.817,0,1,1-4.817,4.817A4.823,4.823,0,0,1,144.615,98.017Z" transform="translate(-41.925 -92.217)" fill="#098d0d"/>
    <path id="Path_19694" data-name="Path 19694" d="M217.567,146.5v.07a.5.5,0,0,0,.991,0v-.032a1.745,1.745,0,0,0,1.654-1.487,2,2,0,0,0-1.417-2.081l-.237-.085V141.3a.755.755,0,0,1,.4.255.5.5,0,0,0,.811-.569,1.82,1.82,0,0,0-1.21-.7v-.1a.5.5,0,1,0-.991,0v.142q-.113.025-.229.06a1.675,1.675,0,0,0-1.142,1.469,1.562,1.562,0,0,0,.953,1.555c.092.043.235.1.418.174v1.907a1.285,1.285,0,0,1-.641-.393.5.5,0,1,0-.772.622A2.374,2.374,0,0,0,217.567,146.5Zm1.662-1.574a.746.746,0,0,1-.671.608v-1.592A.99.99,0,0,1,219.229,144.93Zm-2.044-3.008a.7.7,0,0,1,.382-.572V142.5A.576.576,0,0,1,217.184,141.921Z" transform="translate(-115.334 -132.758)" fill="#098d0d"/>
    <path id="Path_19695" data-name="Path 19695" d="M107.73,0H97.651A2.958,2.958,0,0,0,94.7,2.955V22.421a2.958,2.958,0,0,0,2.955,2.955h10.08a2.958,2.958,0,0,0,2.955-2.955V2.955A2.958,2.958,0,0,0,107.73,0ZM97.651.991h10.08a1.966,1.966,0,0,1,1.964,1.964V20.318H95.687V2.955A1.966,1.966,0,0,1,97.651.991Zm10.08,23.394H97.651a1.966,1.966,0,0,1-1.964-1.964V21.309h14.007v1.112A1.966,1.966,0,0,1,107.73,24.385Z" fill="#098d0d"/>
    <path id="Path_19696" data-name="Path 19696" d="M237.094,449H236.06a.5.5,0,1,0,0,.991h1.034a.5.5,0,1,0,0-.991Z" transform="translate(-133.886 -426.746)" fill="#098d0d"/>
  </g>
</svg>
