<svg xmlns="http://www.w3.org/2000/svg" width="202.721" height="239" viewBox="0 0 202.721 239">
  <path id="dutypedia_logo" data-name="dutypedia logo" d="M828.386,240.832c-45.345-26.5-138.286-8.793-178.036,14.556,12.6,67.039,25.9,177.062,33.6,200.817a13.189,13.189,0,0,0,4.084,6.118c.1.085.205.167.308.251a18.865,18.865,0,0,0,16.584,3.389c36.123-9.383,84.78-55.614,118.864-104.863,14.749-22.641,25.467-46.589,28.751-69.412a50.433,50.433,0,0,0-24.158-50.856M739.831,411.35a73,73,0,0,1-22.971-3.671A67.862,67.862,0,0,1,754.9,279.091q1.82.241,3.608.578a17.848,17.848,0,0,1,9.137,4.514c5.626,5.4,5.068,12.032,1.451,16.415a12.667,12.667,0,0,1-.852.939,13.137,13.137,0,0,1-6.32,3.486,10.069,10.069,0,0,1-3.774.087c-1.261-.186-2.51-.529-3.827-.832a49.52,49.52,0,0,0-8.157-1.175c-1-.059-1.993-.1-3-.1a49.367,49.367,0,0,0-24.392,92.289c20.084,12.433,47.478,9.346,65.71-8.884,18.7-18.7,21.467-47.03,7.9-67.233a53.214,53.214,0,0,1,12.874,34.41c0,31.9-29.291,57.765-65.423,57.765M835.8,308.266a7.268,7.268,0,0,1-14.536,0V281.952c-28.226,25.623-55.625,49.732-80.195,68.667l69.419-78.692H783.3a7.519,7.519,0,0,1,0-15.037h45.82a6.684,6.684,0,0,1,6.684,6.684Z" transform="translate(-650.35 -227.599)" fill="#da1e37"/>
</svg>
