<svg xmlns="http://www.w3.org/2000/svg" width="19.582" height="19.478" viewBox="0 0 19.582 19.478">
  <g id="edit" transform="translate(0 -0.269)">
    <path id="Path_6064" data-name="Path 6064" d="M19.021,30.038a.513.513,0,0,0-.513.513v4.557a1.542,1.542,0,0,1-1.54,1.54H2.566a1.542,1.542,0,0,1-1.54-1.54V21.734a1.541,1.541,0,0,1,1.54-1.54H7.123a.513.513,0,1,0,0-1.026H2.566A2.569,2.569,0,0,0,0,21.734V35.109a2.569,2.569,0,0,0,2.566,2.566h14.4a2.569,2.569,0,0,0,2.566-2.566V30.552A.513.513,0,0,0,19.021,30.038Zm0,0" transform="translate(0 -17.929)" fill="#666"/>
    <path id="Path_6065" data-name="Path 6065" d="M156.367,39.822l7.494-7.494,2.417,2.417-7.494,7.494Zm0,0" transform="translate(-148.341 -30.414)" fill="#666"/>
    <path id="Path_6066" data-name="Path 6066" d="M132.543,199.89l2.671-.74-1.931-1.931Zm0,0" transform="translate(-125.74 -186.842)" fill="#666"/>
    <path id="Path_6067" data-name="Path 6067" d="M318.886.644a1.285,1.285,0,0,0-1.815,0l-.544.544L318.944,3.6l.544-.544a1.284,1.284,0,0,0,0-1.815Zm0,0" transform="translate(-300.281)" fill="#666"/>
  </g>
</svg>
