<svg xmlns="http://www.w3.org/2000/svg" xmlns:xlink="http://www.w3.org/1999/xlink" width="46" height="46" viewBox="0 0 46 46">
  <defs>
    <filter id="Ellipse_647" x="0" y="0" width="46" height="46" filterUnits="userSpaceOnUse">
      <feOffset input="SourceAlpha"/>
      <feGaussianBlur stdDeviation="3" result="blur"/>
      <feFlood flood-opacity="0.102"/>
      <feComposite operator="in" in2="blur"/>
      <feComposite in="SourceGraphic"/>
    </filter>
  </defs>
  <g id="Group_7171" data-name="Group 7171" transform="translate(-371 -920)">
    <g transform="matrix(1, 0, 0, 1, 371, 920)" filter="url(#Ellipse_647)">
      <circle id="Ellipse_647-2" data-name="Ellipse 647" cx="14" cy="14" r="14" transform="translate(9 9)" fill="#fff"/>
    </g>
    <g id="bell" transform="translate(257.634 834.5)">
      <path id="Path_5048" data-name="Path 5048" d="M234.1,103.546a1.023,1.023,0,1,1,1.023-1.023A1.024,1.024,0,0,1,234.1,103.546Zm0-1.644a.621.621,0,1,0,.621.621A.622.622,0,0,0,234.1,101.9Z" transform="translate(-98.126)" fill="#bc1e1e"/>
      <g id="Group_6027" data-name="Group 6027" transform="translate(134.291 111.929)">
        <circle id="Ellipse_646" data-name="Ellipse 646" cx="1.481" cy="1.481" r="1.481" transform="translate(0.201 0.201)" fill="#fff"/>
        <path id="Path_5049" data-name="Path 5049" d="M219.986,338.493a1.682,1.682,0,1,1,1.682-1.682A1.684,1.684,0,0,1,219.986,338.493Zm0-2.963a1.281,1.281,0,1,0,1.281,1.281A1.282,1.282,0,0,0,219.986,335.53Z" transform="translate(-218.304 -335.128)" fill="#bc1e1e"/>
      </g>
      <g id="Group_6028" data-name="Group 6028" transform="translate(130.366 103.144)">
        <path id="Path_5050" data-name="Path 5050" d="M140.273,153.093h-5.407c.751-.751,1.35-2.773,1.35-5.5,0-3.206,1.716-4.765,4.057-4.765s4.057,1.559,4.057,4.765c0,2.728.6,4.751,1.351,5.5Z" transform="translate(-134.665 -142.625)" fill="#e22424"/>
        <path id="Path_5051" data-name="Path 5051" d="M141.382,149H130.567a.2.2,0,0,1-.142-.343c.6-.6,1.292-2.357,1.292-5.36a5.416,5.416,0,0,1,1.2-3.72,4.367,4.367,0,0,1,6.109,0,5.416,5.416,0,0,1,1.2,3.72c0,2.986.688,4.744,1.282,5.349a.2.2,0,0,1-.131.353Zm-10.393-.4h9.971a10.342,10.342,0,0,1-1.13-5.3c0-2.858-1.441-4.564-3.856-4.564s-3.856,1.706-3.856,4.564A10.342,10.342,0,0,1,130.988,148.594Z" transform="translate(-130.366 -138.327)" fill="#bc1e1e"/>
      </g>
    </g>
  </g>
</svg>
