<svg xmlns="http://www.w3.org/2000/svg" width="138.382" height="46.48" viewBox="0 0 138.382 46.48">
  <g id="Group_6189" data-name="Group 6189" transform="translate(-1569.351 -227.534)">
    <g id="Group_5971" data-name="Group 5971" transform="translate(1569.351 227.534)">
      <path id="Path_5023" data-name="Path 5023" d="M7.026.144V28.769H2.267V.144Zm6.789,0V28.769H9.056V.144Zm6.466,0V28.769h-1.2V.144Zm3.567,0V28.769H22.834V.144Zm3.241,0V28.769H26.059V.144Z" transform="translate(-2.267 0.71)"/>
      <path id="Path_5024" data-name="Path 5024" d="M10.515,0V28.625H9.484V0Zm6.954,0V28.625H12.709V0Zm6.8,0V28.625H23.247V0ZM27.5,0V28.625H26.311V0Zm6.8,0V28.625H29.544V0Z" transform="translate(18.901 0.854)"/>
      <path id="Path_5025" data-name="Path 5025" d="M16.7,0h1.023V28.625H16.7Zm3.221,0h1.031V28.625H19.924Zm6.8,0H31.5V28.625H26.729Zm6.793,0h1.2V28.625h-1.2Zm3.237,0h4.755V28.625H36.759Z" transform="translate(40.079 0.854)"/>
      <path id="Path_5026" data-name="Path 5026" d="M28.682,0V28.625H23.919V0Zm3.237,0V28.625h-1.2V0ZM41.941,0V28.625H37.178V0Zm3.571,0V28.625H44.5V0Zm3.233,0V28.625H47.719V0Z" transform="translate(61.241 0.854)"/>
      <path id="Path_5027" data-name="Path 5027" d="M32.165,0V28.625H31.138V0Zm6.962,0V28.625H34.363V0ZM49.145,0V28.625H44.389V0Zm3.579,0V28.625H51.717V0Zm3.241,0V28.625H54.934V0Z" transform="translate(82.417 0.854)"/>
    </g>
    <text id="_9_5_6_9_4_3_4_6_5_2_9_8" data-name="9 5 6 9 4 3 4 6 5 2 9 8" transform="translate(1638.351 270.014)" fill="#313131" font-size="12" font-family="Poppins-Regular, Poppins"><tspan x="-60.216" y="0">9 5 6 9 4 3 4 6 5 2 9 8</tspan></text>
  </g>
</svg>
