<svg xmlns="http://www.w3.org/2000/svg" width="92.347" height="108.873" viewBox="0 0 92.347 108.873">
  <path id="logo_" data-name="logo " d="M731.451,233.627c-20.656-12.07-62.994-4.006-81.1,6.631,5.74,30.539,11.8,80.658,15.307,91.479a6.008,6.008,0,0,0,1.86,2.787l.14.114a8.593,8.593,0,0,0,7.555,1.544c16.455-4.274,38.62-25.334,54.147-47.769,6.719-10.314,11.6-21.223,13.1-31.62a22.974,22.974,0,0,0-11-23.167M691.112,311.3a33.254,33.254,0,0,1-10.464-1.672,30.914,30.914,0,0,1,17.327-58.576q.829.11,1.643.263a8.13,8.13,0,0,1,4.162,2.056,5.28,5.28,0,0,1,.661,7.478q-.183.223-.388.428a5.984,5.984,0,0,1-2.879,1.588,4.587,4.587,0,0,1-1.719.04c-.574-.085-1.143-.241-1.743-.379a22.56,22.56,0,0,0-3.716-.535c-.453-.027-.908-.045-1.368-.045a22.488,22.488,0,0,0-11.112,42.041c9.149,5.664,21.628,4.257,29.933-4.047,8.517-8.517,9.779-21.424,3.6-30.627a24.241,24.241,0,0,1,5.865,15.675c0,14.533-13.343,26.314-29.8,26.314m43.718-46.958a3.311,3.311,0,0,1-6.622,0V252.359c-12.858,11.672-25.339,22.655-36.531,31.28L723.3,247.792H710.913a3.425,3.425,0,0,1,0-6.85h20.872a3.045,3.045,0,0,1,3.045,3.045Z" transform="translate(-650.35 -227.6)" fill="#da1e37" opacity="0.04"/>
</svg>
