<svg id="printer" xmlns="http://www.w3.org/2000/svg" width="20.409" height="20.409" viewBox="0 0 20.409 20.409">
  <path id="Path_4756" data-name="Path 4756" d="M18.283,16.2H15.732a.425.425,0,1,1,0-.85h2.551a1.277,1.277,0,0,0,1.276-1.276V8.126A1.277,1.277,0,0,0,18.283,6.85H2.126A1.277,1.277,0,0,0,.85,8.126v5.953a1.277,1.277,0,0,0,1.276,1.276H4.677a.425.425,0,1,1,0,.85H2.126A2.128,2.128,0,0,1,0,14.078V8.126A2.128,2.128,0,0,1,2.126,6H18.283a2.128,2.128,0,0,1,2.126,2.126v5.953A2.128,2.128,0,0,1,18.283,16.2Z" transform="translate(0 -0.898)" fill="#666"/>
  <path id="Path_4757" data-name="Path 4757" d="M13.527,20.85h-5.1a.425.425,0,0,1,0-.85h5.1a.425.425,0,1,1,0,.85Z" transform="translate(-1.197 -2.993)" fill="#666"/>
  <path id="Path_4758" data-name="Path 4758" d="M13.527,18.85h-5.1a.425.425,0,0,1,0-.85h5.1a.425.425,0,1,1,0,.85Z" transform="translate(-1.197 -2.693)" fill="#666"/>
  <path id="Path_4759" data-name="Path 4759" d="M10.126,16.85h-1.7a.425.425,0,0,1,0-.85h1.7a.425.425,0,0,1,0,.85Z" transform="translate(-1.197 -2.394)" fill="#666"/>
  <path id="Path_4760" data-name="Path 4760" d="M16.48,5.953a.425.425,0,0,1-.425-.425v-3.4A1.277,1.277,0,0,0,14.779.85H7.126A1.277,1.277,0,0,0,5.85,2.126v3.4a.425.425,0,1,1-.85,0v-3.4A2.128,2.128,0,0,1,7.126,0h7.653a2.128,2.128,0,0,1,2.126,2.126v3.4A.425.425,0,0,1,16.48,5.953Z" transform="translate(-0.748)" fill="#666"/>
  <path id="Path_4761" data-name="Path 4761" d="M14.779,22.354H7.126A2.128,2.128,0,0,1,5,20.228v-6.8A.425.425,0,0,1,5.425,13H16.48a.425.425,0,0,1,.425.425v6.8A2.128,2.128,0,0,1,14.779,22.354ZM5.85,13.85v6.378A1.277,1.277,0,0,0,7.126,21.5h7.653a1.277,1.277,0,0,0,1.276-1.276V13.85Z" transform="translate(-0.748 -1.945)" fill="#666"/>
</svg>
