<svg xmlns="http://www.w3.org/2000/svg" width="206.808" height="206.807" viewBox="0 0 206.808 206.807">
  <g id="qr_code" data-name="qr code" transform="translate(-9085.188 6063.812)">
    <g id="Group_7167" data-name="Group 7167" transform="translate(9085.188 -6063.812)">
      <g id="Group_7101" data-name="Group 7101" transform="translate(20.679 20.681)">
        <g id="Group_7100" data-name="Group 7100">
          <rect id="Rectangle_3729" data-name="Rectangle 3729" width="20.681" height="20.681"/>
        </g>
      </g>
      <g id="Group_7103" data-name="Group 7103" transform="translate(134.423 0)">
        <g id="Group_7102" data-name="Group 7102">
          <path id="Path_6098" data-name="Path 6098" d="M343.14,0V10.34H332.8v10.34h10.34V62.042h10.34v10.34H343.14v10.34h20.681V62.042h31.021v10.34h10.34V0Zm51.7,51.7H353.481V10.34h41.361Z" transform="translate(-332.8)"/>
        </g>
      </g>
      <g id="Group_7105" data-name="Group 7105" transform="translate(165.444 20.681)">
        <g id="Group_7104" data-name="Group 7104">
          <rect id="Rectangle_3730" data-name="Rectangle 3730" width="20.681" height="20.681"/>
        </g>
      </g>
      <g id="Group_7107" data-name="Group 7107" transform="translate(20.679 165.444)">
        <g id="Group_7106" data-name="Group 7106">
          <rect id="Rectangle_3731" data-name="Rectangle 3731" width="20.681" height="20.681"/>
        </g>
      </g>
      <g id="Group_7109" data-name="Group 7109" transform="translate(144.765 144.765)">
        <g id="Group_7108" data-name="Group 7108">
          <rect id="Rectangle_3732" data-name="Rectangle 3732" width="10.34" height="10.34"/>
        </g>
      </g>
      <g id="Group_7111" data-name="Group 7111" transform="translate(93.061 196.466)">
        <g id="Group_7110" data-name="Group 7110">
          <rect id="Rectangle_3733" data-name="Rectangle 3733" width="10.34" height="10.34"/>
        </g>
      </g>
      <g id="Group_7113" data-name="Group 7113" transform="translate(103.403 155.104)">
        <g id="Group_7112" data-name="Group 7112">
          <rect id="Rectangle_3734" data-name="Rectangle 3734" width="10.34" height="10.34"/>
        </g>
      </g>
      <g id="Group_7115" data-name="Group 7115" transform="translate(103.403 175.785)">
        <g id="Group_7114" data-name="Group 7114">
          <rect id="Rectangle_3735" data-name="Rectangle 3735" width="10.34" height="10.34"/>
        </g>
      </g>
      <g id="Group_7117" data-name="Group 7117" transform="translate(196.464 124.084)">
        <g id="Group_7116" data-name="Group 7116">
          <rect id="Rectangle_3736" data-name="Rectangle 3736" width="10.34" height="10.34"/>
        </g>
      </g>
      <g id="Group_7119" data-name="Group 7119" transform="translate(0 124.084)">
        <g id="Group_7118" data-name="Group 7118">
          <rect id="Rectangle_3737" data-name="Rectangle 3737" width="10.34" height="10.34"/>
        </g>
      </g>
      <g id="Group_7121" data-name="Group 7121" transform="translate(0 72.382)">
        <g id="Group_7120" data-name="Group 7120">
          <rect id="Rectangle_3738" data-name="Rectangle 3738" width="10.34" height="10.34"/>
        </g>
      </g>
      <g id="Group_7123" data-name="Group 7123" transform="translate(93.061 10.339)">
        <g id="Group_7122" data-name="Group 7122">
          <path id="Path_6099" data-name="Path 6099" d="M251.081,25.6V35.94H230.4v10.34h31.021V25.6Z" transform="translate(-230.4 -25.6)"/>
        </g>
      </g>
      <g id="Group_7125" data-name="Group 7125" transform="translate(72.382 82.722)">
        <g id="Group_7124" data-name="Group 7124">
          <path id="Path_6100" data-name="Path 6100" d="M303.284,204.8v10.34H282.6v10.34H251.582V215.14h-10.34v10.34H220.561v10.34h31.021v10.34H220.561v-10.34h-10.34v10.34h-10.34v-10.34H189.54v10.34H179.2V256.5h20.681v10.34h10.34V256.5H230.9v10.34h-10.34v10.34H230.9v20.681h10.34V308.2h10.34v-10.34H282.6V277.182h10.34v-10.34H282.6V246.161H261.922v-10.34H282.6v10.34h10.34v-10.34h10.34v-10.34h10.34V204.8Zm-31.021,51.7v31.021H241.242V256.5Z" transform="translate(-179.2 -204.8)"/>
        </g>
      </g>
      <g id="Group_7127" data-name="Group 7127" transform="translate(113.744 62.041)">
        <g id="Group_7126" data-name="Group 7126">
          <path id="Path_6101" data-name="Path 6101" d="M302.281,153.6H291.94v10.34H281.6v20.681h10.34v-10.34h10.34V163.94h10.34V153.6Z" transform="translate(-281.6 -153.6)"/>
        </g>
      </g>
      <g id="Group_7129" data-name="Group 7129" transform="translate(113.744 196.466)">
        <g id="Group_7128" data-name="Group 7128">
          <rect id="Rectangle_3739" data-name="Rectangle 3739" width="20.681" height="10.34"/>
        </g>
      </g>
      <g id="Group_7131" data-name="Group 7131" transform="translate(82.724 10.339)">
        <g id="Group_7130" data-name="Group 7130">
          <rect id="Rectangle_3740" data-name="Rectangle 3740" width="10.34" height="10.34"/>
        </g>
      </g>
      <g id="Group_7133" data-name="Group 7133" transform="translate(165.444 82.722)">
        <g id="Group_7132" data-name="Group 7132">
          <rect id="Rectangle_3741" data-name="Rectangle 3741" width="10.34" height="10.34"/>
        </g>
      </g>
      <g id="Group_7135" data-name="Group 7135" transform="translate(175.785 72.382)">
        <g id="Group_7134" data-name="Group 7134">
          <rect id="Rectangle_3742" data-name="Rectangle 3742" width="10.34" height="10.34"/>
        </g>
      </g>
      <g id="Group_7137" data-name="Group 7137" transform="translate(41.362 124.084)">
        <g id="Group_7136" data-name="Group 7136">
          <rect id="Rectangle_3743" data-name="Rectangle 3743" width="10.34" height="10.34"/>
        </g>
      </g>
      <g id="Group_7139" data-name="Group 7139" transform="translate(0 134.423)">
        <g id="Group_7138" data-name="Group 7138">
          <path id="Path_6102" data-name="Path 6102" d="M62.042,394.842V353.481h10.34V332.8H62.042v10.34H31.021V332.8H10.34v10.34H0v62.042H82.722v-10.34Zm-10.34,0H10.34V353.481H51.7Z" transform="translate(0 -332.8)"/>
        </g>
      </g>
      <g id="Group_7141" data-name="Group 7141" transform="translate(62.041 62.041)">
        <g id="Group_7140" data-name="Group 7140">
          <rect id="Rectangle_3744" data-name="Rectangle 3744" width="10.34" height="10.34"/>
        </g>
      </g>
      <g id="Group_7143" data-name="Group 7143" transform="translate(0 0)">
        <g id="Group_7142" data-name="Group 7142">
          <path id="Path_6103" data-name="Path 6103" d="M72.382,0H0V62.042H10.34v10.34h10.34V62.042h10.34v10.34h10.34V62.042H62.042V41.361h10.34V31.021H62.042V10.34H82.722V0ZM51.7,51.7H10.34V10.34H51.7Z"/>
        </g>
      </g>
      <g id="Group_7145" data-name="Group 7145" transform="translate(124.082 31.02)">
        <g id="Group_7144" data-name="Group 7144">
          <rect id="Rectangle_3745" data-name="Rectangle 3745" width="10.34" height="10.34"/>
        </g>
      </g>
      <g id="Group_7147" data-name="Group 7147" transform="translate(103.403 0)">
        <g id="Group_7146" data-name="Group 7146">
          <rect id="Rectangle_3746" data-name="Rectangle 3746" width="10.34" height="10.34"/>
        </g>
      </g>
      <g id="Group_7149" data-name="Group 7149" transform="translate(0 41.362)">
        <g id="Group_7148" data-name="Group 7148">
          <path id="Path_6104" data-name="Path 6104" d="M124.083,123.081V112.74h-10.34V102.4H103.4v10.34H82.722V102.4H72.382v20.681h10.34v20.681H51.7v-10.34H41.361v10.34H10.34V154.1H31.021v10.34H0v10.34H31.021v10.34h10.34v-10.34H51.7v10.34h10.34v-10.34H82.722v-10.34H72.382V154.1H93.063v10.34h20.681V154.1H103.4v-10.34H93.063V123.081ZM62.042,164.442H41.361V154.1H62.042Z" transform="translate(0 -102.4)"/>
        </g>
      </g>
      <g id="Group_7151" data-name="Group 7151" transform="translate(72.382 144.765)">
        <g id="Group_7150" data-name="Group 7150">
          <path id="Path_6105" data-name="Path 6105" d="M199.881,379.081V358.4H189.54v10.34H179.2v10.34h10.34v10.34H179.2v10.34h20.681v-10.34h10.34v-10.34Z" transform="translate(-179.2 -358.4)"/>
        </g>
      </g>
      <g id="Group_7153" data-name="Group 7153" transform="translate(144.765 175.785)">
        <g id="Group_7152" data-name="Group 7152">
          <path id="Path_6106" data-name="Path 6106" d="M399.761,445.541V435.2h-10.34v10.34H358.4v10.34h20.681v10.34h10.34v-10.34H410.1v10.34h10.34V445.541Z" transform="translate(-358.4 -435.2)"/>
        </g>
      </g>
      <g id="Group_7155" data-name="Group 7155" transform="translate(186.127 144.765)">
        <g id="Group_7154" data-name="Group 7154">
          <path id="Path_6107" data-name="Path 6107" d="M471.14,358.4v10.34H460.8v10.34h20.68V358.4Z" transform="translate(-460.8 -358.4)"/>
        </g>
      </g>
    </g>
    <g id="Ellipse_1533" data-name="Ellipse 1533" transform="translate(9158.396 -5990.604)" fill="#fff" stroke="#18191a" stroke-width="1">
      <circle cx="31.782" cy="31.782" r="31.782" stroke="none"/>
      <circle cx="31.782" cy="31.782" r="31.282" fill="none"/>
    </g>
    <path id="Path_6134" data-name="Path 6134" d="M680.314,229.826c-7.632-4.459-23.274-1.48-29.964,2.45,2.12,11.283,4.359,29.8,5.656,33.8a2.213,2.213,0,0,0,.687,1.03l.052.042a3.175,3.175,0,0,0,2.791.57c6.08-1.579,14.269-9.36,20.005-17.649a29.992,29.992,0,0,0,4.839-11.682,8.487,8.487,0,0,0-4.066-8.559m-14.9,28.7a12.282,12.282,0,0,1-3.866-.618,11.421,11.421,0,0,1,6.4-21.642q.306.04.607.1a3.006,3.006,0,0,1,1.538.76,1.95,1.95,0,0,1,.244,2.763,2.131,2.131,0,0,1-.143.158,2.209,2.209,0,0,1-1.064.587,1.7,1.7,0,0,1-.635.015c-.212-.031-.422-.089-.643-.14a8.348,8.348,0,0,0-1.373-.2c-.167-.01-.335-.017-.505-.017a8.309,8.309,0,0,0-4.1,15.533,9.2,9.2,0,0,0,12.389-12.811,8.957,8.957,0,0,1,2.167,5.791c0,5.37-4.93,9.722-11.011,9.722m16.153-17.349a1.223,1.223,0,1,1-2.446,0v-4.429c-4.751,4.312-9.362,8.37-13.5,11.557L677.3,235.06h-4.576a1.265,1.265,0,0,1,0-2.531h7.711a1.125,1.125,0,0,1,1.125,1.125Z" transform="translate(8521.733 -6204.516)"/>
  </g>
</svg>
