<svg id="refund" xmlns="http://www.w3.org/2000/svg" width="8.864" height="8.864" viewBox="0 0 8.864 8.864">
  <path id="Path_5073" data-name="Path 5073" d="M111.838,293.476a.185.185,0,0,1-.184.185h-4.8a.185.185,0,0,1-.185-.185v-1.05a.185.185,0,0,1,.185-.184h4.8a.185.185,0,0,1,.184.184Z" transform="translate(-104.821 -287.182)" fill="#8cc153"/>
  <path id="Path_5074" data-name="Path 5074" d="M8.679,4.247a.185.185,0,0,0-.184.185A4.064,4.064,0,0,1,.688,6.013,4.062,4.062,0,0,1,7.22,1.477H6.543a.185.185,0,0,0,0,.37H7.651a.185.185,0,0,0,.184-.185V.554a.185.185,0,1,0-.369,0V1.2a4.432,4.432,0,1,0,1.4,3.231A.185.185,0,0,0,8.679,4.247Z" fill="#434a54"/>
  <path id="Path_5075" data-name="Path 5075" d="M106.853,149.323a.185.185,0,0,0-.185.185v2.585a.185.185,0,0,0,.185.185h4.8a.185.185,0,0,0,.184-.185v-2.585a.185.185,0,0,0-.184-.185Z" transform="translate(-104.821 -146.738)" fill="#a0d468"/>
  <path id="Path_5076" data-name="Path 5076" d="M214.611,192.061a.739.739,0,1,1-.738-.739A.739.739,0,0,1,214.611,192.061Z" transform="translate(-209.444 -188.01)" fill="#8cc153"/>
  <path id="Path_5077" data-name="Path 5077" d="M106.668,336.443v.185h0a.185.185,0,0,0,.185.185h4.8a.185.185,0,0,0,.184-.185v-.185Z" transform="translate(-104.821 -330.618)" fill="#a0d468"/>
</svg>
