<svg id="share" xmlns="http://www.w3.org/2000/svg" width="20.409" height="20.409" viewBox="0 0 20.409 20.409">
  <path id="Path_4754" data-name="Path 4754" d="M19.121,8.01l-8.929,4.464-.571-1.14L18.55,6.87ZM18.55,19.49,9.621,15.026l.571-1.14,8.929,4.464-.571,1.14Z" transform="translate(-4.167 -2.975)" fill="#666" fill-rule="evenodd"/>
  <path id="Path_4755" data-name="Path 4755" d="M17.22,5.1a1.913,1.913,0,1,0-1.913-1.913A1.913,1.913,0,0,0,17.22,5.1Zm0,1.276a3.189,3.189,0,1,0-3.189-3.189A3.189,3.189,0,0,0,17.22,6.378Zm0,12.755a1.913,1.913,0,1,0-1.913-1.913A1.913,1.913,0,0,0,17.22,19.133Zm0,1.276a3.189,3.189,0,1,0-3.189-3.189A3.189,3.189,0,0,0,17.22,20.409ZM3.189,12.118A1.913,1.913,0,1,0,1.276,10.2,1.913,1.913,0,0,0,3.189,12.118Zm0,1.276A3.189,3.189,0,1,0,0,10.2a3.189,3.189,0,0,0,3.189,3.189Z" fill="#666" fill-rule="evenodd"/>
</svg>
