<svg xmlns="http://www.w3.org/2000/svg" width="36" height="25.714" viewBox="0 0 36 25.714">
  <path id="video-camera" d="M36,1.929V23.786a1.2,1.2,0,0,1-.783,1.185,1.4,1.4,0,0,1-.5.1,1.194,1.194,0,0,1-.9-.382l-8.1-8.1v3.335a5.8,5.8,0,0,1-5.786,5.786H5.786a5.57,5.57,0,0,1-4.088-1.7A5.577,5.577,0,0,1,0,19.929V5.786A5.57,5.57,0,0,1,1.7,1.7,5.578,5.578,0,0,1,5.786,0H19.929a5.57,5.57,0,0,1,4.088,1.7,5.574,5.574,0,0,1,1.7,4.088V9.1l8.1-8.076a1.194,1.194,0,0,1,.9-.382,1.4,1.4,0,0,1,.5.1A1.2,1.2,0,0,1,36,1.928Z" fill="#fff"/>
</svg>
