<svg xmlns="http://www.w3.org/2000/svg" width="17.785" height="17.741" viewBox="0 0 17.785 17.741">
  <path id="adduser" d="M7.325.216c-2.086,0-3.761,1.433-3.761,4.171A7.068,7.068,0,0,0,5.358,9.119c.422,1.122-.339,1.54-.5,1.6-2.183.8-4.733,2.253-4.733,3.7v.539c0,1.966,3.744,2.42,7.217,2.42q1.136,0,2.269-.086a5.374,5.374,0,0,1-.346-6.98A1.719,1.719,0,0,1,9.313,9.1a7.045,7.045,0,0,0,1.772-4.711c0-2.738-1.676-4.17-3.761-4.17Zm6.224,9.011a4.365,4.365,0,1,0,4.365,4.365A4.365,4.365,0,0,0,13.549,9.227Zm-.605,1.945h1.21v1.794h1.794v1.253H14.153v1.793h-1.21V14.218H11.128V12.965h1.815V11.172Z" transform="translate(-0.129 -0.216)" fill="#fff"/>
</svg>
