<svg xmlns="http://www.w3.org/2000/svg" width="15" height="17.727" viewBox="0 0 15 17.727">
  <g id="avatar" transform="translate(-39.385)">
    <g id="Group_8007" data-name="Group 8007" transform="translate(39.385)">
      <path id="Path_18853" data-name="Path 18853" d="M49.558,8.22a4.545,4.545,0,1,0-5.345,0,7.512,7.512,0,0,0-4.828,7.008,2.5,2.5,0,0,0,2.5,2.5h10a2.5,2.5,0,0,0,2.5-2.5A7.512,7.512,0,0,0,49.558,8.22ZM43.7,4.545a3.182,3.182,0,1,1,3.182,3.182A3.185,3.185,0,0,1,43.7,4.545Zm8.182,11.818h-10a1.138,1.138,0,0,1-1.136-1.136,6.136,6.136,0,1,1,12.273,0A1.138,1.138,0,0,1,51.885,16.364Z" transform="translate(-39.385)" fill="#666"/>
    </g>
  </g>
</svg>
