<svg xmlns="http://www.w3.org/2000/svg" width="15.524" height="15.524" viewBox="0 0 15.524 15.524">
  <path id="bxs-dashboard" d="M5.362,13.125h5.175a.862.862,0,0,0,.862-.862v-6.9a.862.862,0,0,0-.862-.862H5.362a.862.862,0,0,0-.862.862v6.9A.862.862,0,0,0,5.362,13.125ZM4.5,19.162a.862.862,0,0,0,.862.862h5.175a.862.862,0,0,0,.862-.862v-3.45a.862.862,0,0,0-.862-.862H5.362a.862.862,0,0,0-.862.862Zm8.625,0a.862.862,0,0,0,.862.862h5.175a.862.862,0,0,0,.862-.862V13.125a.862.862,0,0,0-.862-.862H13.987a.862.862,0,0,0-.862.862Zm.862-8.625h5.175a.862.862,0,0,0,.862-.862V5.362a.862.862,0,0,0-.862-.862H13.987a.862.862,0,0,0-.862.862V9.675A.862.862,0,0,0,13.987,10.537Z" transform="translate(-4.5 -4.5)" fill="#666"/>
</svg>
