<svg xmlns="http://www.w3.org/2000/svg" width="9.516" height="7.137" viewBox="0 0 9.516 7.137">
  <g id="camera-fill" transform="translate(0 -4.5)">
    <path id="Path_6102" data-name="Path 6102" d="M15.349,14.987A1.487,1.487,0,1,1,13.862,13.5a1.487,1.487,0,0,1,1.487,1.487Z" transform="translate(-9.104 -6.621)"/>
    <path id="Path_6103" data-name="Path 6103" d="M1.189,5.689A1.189,1.189,0,0,0,0,6.879v3.568a1.189,1.189,0,0,0,1.189,1.189H8.326a1.189,1.189,0,0,0,1.189-1.189V6.879A1.189,1.189,0,0,0,8.326,5.689h-.7a1.189,1.189,0,0,1-.841-.349L6.3,4.848A1.189,1.189,0,0,0,5.455,4.5H4.061a1.189,1.189,0,0,0-.841.349l-.492.492a1.189,1.189,0,0,1-.841.348Zm.3,1.189a.3.3,0,1,0-.3-.3A.3.3,0,0,0,1.487,6.879ZM6.839,8.366A2.082,2.082,0,1,1,4.758,6.284,2.082,2.082,0,0,1,6.839,8.366Z" fill-rule="evenodd"/>
  </g>
</svg>
