<svg xmlns="http://www.w3.org/2000/svg" width="12" height="17.031" viewBox="0 0 12 17.031">
  <g id="file" transform="translate(-12.339 -1.998)">
    <path id="Path_18854" data-name="Path 18854" d="M50.565,14.488h-3a.243.243,0,0,1-.243-.243v-3a.243.243,0,0,1,.415-.172l3,3a.243.243,0,0,1-.172.415ZM47.806,14h2.172L47.806,11.83Z" transform="translate(-26.469 -6.812)" fill="#666"/>
    <path id="Path_18855" data-name="Path 18855" d="M24.1,25.834H12.582a.243.243,0,0,1-.243-.243l0-14.357a.243.243,0,0,1,.243-.243H14.01a.243.243,0,1,1,0,.487H12.83l0,13.87H23.852V14.337l-2.86-2.86H15.918a.243.243,0,0,1,0-.487h5.175a.243.243,0,0,1,.172.071l3,3a.243.243,0,0,1,.071.172V25.59A.243.243,0,0,1,24.1,25.834Z" transform="translate(0 -6.804)" fill="#666"/>
    <path id="Path_18856" data-name="Path 18856" d="M27.262,38.17H18.751a.243.243,0,1,1,0-.487h8.511a.243.243,0,1,1,0,.487Z" transform="translate(-4.668 -27.003)" fill="#666"/>
    <path id="Path_18857" data-name="Path 18857" d="M27.262,46.17H18.751a.243.243,0,1,1,0-.487h8.511a.243.243,0,1,1,0,.487Z" transform="translate(-4.668 -33.057)" fill="#666"/>
    <path id="Path_18858" data-name="Path 18858" d="M27.262,54.17H18.751a.243.243,0,1,1,0-.487h8.511a.243.243,0,1,1,0,.487Z" transform="translate(-4.668 -39.11)" fill="#666"/>
    <path id="Path_18859" data-name="Path 18859" d="M27.262,62.17H18.751a.243.243,0,1,1,0-.487h8.511a.243.243,0,1,1,0,.487Z" transform="translate(-4.668 -45.164)" fill="#666"/>
    <path id="Path_18860" data-name="Path 18860" d="M18.294,15.339a.243.243,0,0,1-.24-.2,2.2,2.2,0,0,1,3.922-1.592.243.243,0,0,1-.109.363l-3.481,1.414A.245.245,0,0,1,18.294,15.339Zm1.988-2.162a1.819,1.819,0,0,0-.685.135,1.689,1.689,0,0,0-1.081,1.432l2.855-1.159a1.6,1.6,0,0,0-1.089-.407Z" transform="translate(-4.311 -8.086)" fill="#666"/>
    <path id="Path_18861" data-name="Path 18861" d="M18.293,9.026a.243.243,0,0,1-.225-.152l-.634-1.562A.243.243,0,0,1,17.568,7L19.2,6.332a.243.243,0,0,1,.316.134l.633,1.56a.243.243,0,0,1-.451.183l-.54-1.336-1.186.481.542,1.337a.243.243,0,0,1-.226.335Z" transform="translate(-3.842 -3.266)" fill="#666"/>
    <path id="Path_18862" data-name="Path 18862" d="M24.319,20.966a.243.243,0,0,1-.195-.1L22.3,18.462a.243.243,0,0,1,.1-.373L23.86,17.5a.243.243,0,0,1,.333.195l.368,3a.243.243,0,0,1-.15.255.247.247,0,0,1-.091.017Zm-1.443-2.546,1.092,1.439-.219-1.793Z" transform="translate(-7.497 -11.714)" fill="#666"/>
    <path id="Path_18863" data-name="Path 18863" d="M14.568,4.2a.242.242,0,0,1-.109-.024l-.995-.5a.243.243,0,0,1,.017-.443l3-1.216a.243.243,0,0,1,.322.306l-.367,1.049a.243.243,0,0,1-.138.146l-1.637.664A.243.243,0,0,1,14.568,4.2Zm-.4-.717.414.207,1.433-.581.153-.438Z" transform="translate(-0.75 0)" fill="#666"/>
  </g>
</svg>
