<svg xmlns="http://www.w3.org/2000/svg" xmlns:xlink="http://www.w3.org/1999/xlink" width="13.572" height="17" viewBox="0 0 13.572 17">
  <defs>
    <linearGradient id="linear-gradient" x1="0.051" y1="0.06" x2="0.976" y2="0.799" gradientUnits="objectBoundingBox">
      <stop offset="0" stop-color="#7faef4"/>
      <stop offset="1" stop-color="#4c8df1"/>
    </linearGradient>
    <linearGradient id="linear-gradient-2" x1="0.908" y1="0.908" x2="0.098" y2="0.098" xlink:href="#linear-gradient"/>
    <linearGradient id="linear-gradient-3" x1="0.384" y1="0.403" x2="0.791" y2="0.83" gradientUnits="objectBoundingBox">
      <stop offset="0" stop-color="#4166bf"/>
      <stop offset="1" stop-color="#4256ac"/>
    </linearGradient>
    <linearGradient id="linear-gradient-4" x1="0.831" y1="0.75" x2="0.186" y2="0.167" gradientUnits="objectBoundingBox">
      <stop offset="0" stop-color="#4256ac" stop-opacity="0"/>
      <stop offset="1" stop-color="#1b1464"/>
    </linearGradient>
    <linearGradient id="linear-gradient-5" x1="-0.944" y1="-0.944" x2="1.522" y2="1.522" gradientUnits="objectBoundingBox">
      <stop offset="0" stop-color="#ebeff0"/>
      <stop offset="1" stop-color="#e3e5e4"/>
    </linearGradient>
    <linearGradient id="linear-gradient-6" x1="0.398" y1="0.136" x2="0.597" y2="0.802" xlink:href="#linear-gradient-5"/>
  </defs>
  <g id="google_2_" data-name="google (2)" transform="translate(-51.417)">
    <path id="Path_4987" data-name="Path 4987" d="M57.7.1a46.263,46.263,0,0,1-5.728,2.08.7.7,0,0,0-.555.684V7.1a11.048,11.048,0,0,0,4.076,8.57l.8.648a3.033,3.033,0,0,0,3.829,0l.8-.648A11.048,11.048,0,0,0,64.989,7.1V2.862a.7.7,0,0,0-.555-.684A46.261,46.261,0,0,1,58.706.1,1.339,1.339,0,0,0,57.7.1Z" transform="translate(0 0)" fill="url(#linear-gradient)"/>
    <g id="Group_5958" data-name="Group 5958" transform="translate(52.559 2.856)">
      <circle id="Ellipse_633" data-name="Ellipse 633" cx="5.644" cy="5.644" r="5.644" transform="translate(0)" fill="url(#linear-gradient-2)"/>
      <path id="Path_4988" data-name="Path 4988" d="M114.778,109.77a5,5,0,0,1-1.727,3.783,4.713,4.713,0,0,1-3.281.758,4.716,4.716,0,0,1-3.255-.735,5.008,5.008,0,1,1,8.262-3.806Z" transform="translate(-104.126 -104.126)" fill="url(#linear-gradient-3)"/>
      <path id="Path_4989" data-name="Path 4989" d="M188.945,127.937a2.249,2.249,0,0,0-2.289,2.289,2.293,2.293,0,0,0,.718,1.745l4.04,4.04c.169-.114.647.078.8-.056a5,5,0,0,0,1.727-3.783q0-.137-.008-.273l-3.244-3.244A2.293,2.293,0,0,0,188.945,127.937Z" transform="translate(-183.29 -126.528)" fill="url(#linear-gradient-4)"/>
      <circle id="Ellipse_634" data-name="Ellipse 634" cx="2.348" cy="2.348" r="2.348" transform="translate(3.296 1.338)" fill="url(#linear-gradient-5)"/>
      <path id="Path_4990" data-name="Path 4990" d="M152.4,288.877a1.127,1.127,0,0,1,.123,1.806l-.02.017a5.007,5.007,0,0,1-6.463-.022l-.01-.009a1.126,1.126,0,0,1,.131-1.8,5.806,5.806,0,0,1,6.24.01Z" transform="translate(-143.64 -281.219)" fill="url(#linear-gradient-6)"/>
    </g>
  </g>
</svg>
