<svg xmlns="http://www.w3.org/2000/svg" width="23.494" height="14.917" viewBox="0 0 23.494 14.917">
  <g id="group" transform="translate(0 -92.25)">
    <g id="Group_8006" data-name="Group 8006" transform="translate(0 92.25)">
      <path id="Path_18852" data-name="Path 18852" d="M20.319,98.814a2.682,2.682,0,1,0-3.077,0,4.647,4.647,0,0,0-1.585.93,6.014,6.014,0,0,0-2.176-1.185,3.4,3.4,0,1,0-3.514,0A6.064,6.064,0,0,0,7.814,99.73a4.685,4.685,0,0,0-1.567-.911,2.682,2.682,0,1,0-3.077,0A4.708,4.708,0,0,0,0,103.267v.307a.02.02,0,0,0,.019.019H5.7a6.252,6.252,0,0,0-.051.786v.316a2.472,2.472,0,0,0,2.473,2.473h7.205a2.472,2.472,0,0,0,2.473-2.473v-.316a6.253,6.253,0,0,0-.051-.786h5.722a.02.02,0,0,0,.019-.019v-.307A4.726,4.726,0,0,0,20.319,98.814Zm-3.477-2.2a1.938,1.938,0,1,1,1.976,1.938h-.074A1.936,1.936,0,0,1,16.842,96.615ZM9.06,95.648a2.654,2.654,0,1,1,2.808,2.65h-.307A2.658,2.658,0,0,1,9.06,95.648Zm-6.3.967a1.938,1.938,0,1,1,1.976,1.938H4.658A1.939,1.939,0,0,1,2.757,96.615Zm3.077,6.229H.753A3.972,3.972,0,0,1,4.667,99.3h.056a3.931,3.931,0,0,1,2.534.944A6.1,6.1,0,0,0,5.834,102.844Zm11.217,1.85a1.732,1.732,0,0,1-1.729,1.729H8.116a1.732,1.732,0,0,1-1.729-1.729v-.316a5.34,5.34,0,0,1,5.174-5.332c.051,0,.107,0,.158,0s.107,0,.158,0a5.34,5.34,0,0,1,5.174,5.332Zm.553-1.85A6.087,6.087,0,0,0,16.2,100.26a3.95,3.95,0,0,1,2.557-.962h.056a3.972,3.972,0,0,1,3.914,3.547Z" transform="translate(0 -92.25)" fill="#666"/>
    </g>
  </g>
</svg>
