<svg xmlns="http://www.w3.org/2000/svg" width="29.543" height="29.564" viewBox="0 0 29.543 29.564">
  <g id="Group_7464" data-name="Group 7464" transform="translate(-10346.989 -1014.719) rotate(30)">
    <path id="Path_6642" data-name="Path 6642" d="M109.128,16.393a2.878,2.878,0,1,0,2.878,2.878h0a2.878,2.878,0,0,0-2.878-2.878Zm0,4.176a1.3,1.3,0,1,1,1.3-1.3h0a1.3,1.3,0,0,1-1.3,1.3Z" transform="translate(9379.667 -4321.393)" fill="#e22424"/>
    <path id="Path_6643" data-name="Path 6643" d="M40.789,181.237H60.524a1.927,1.927,0,0,1,1.927,1.927h0a1.927,1.927,0,0,1-1.927,1.927H40.789a1.927,1.927,0,0,1-1.927-1.927h0A1.927,1.927,0,0,1,40.789,181.237Z" transform="translate(9438.138 -4464.425)" fill="#e22424"/>
    <path id="Path_6644" data-name="Path 6644" d="M63.313,183.309a1.927,1.927,0,0,1-1.653,2.918H41.925a1.918,1.918,0,0,1-.991-.274,1.926,1.926,0,0,0,1.653.936H62.322a1.927,1.927,0,0,0,.991-3.58Z" transform="translate(9436.341 -4466.223)" fill="#d11919"/>
    <path id="Path_6645" data-name="Path 6645" d="M106.5,210.364a3.869,3.869,0,0,1-7.739,0H106.5Z" transform="translate(9386.168 -4489.698)" fill="#ff2121"/>
    <path id="Path_6646" data-name="Path 6646" d="M111.171,210.364a3.87,3.87,0,0,1-6.2,2.385,3.87,3.87,0,0,0,6.916-2.385Z" transform="translate(9380.775 -4489.698)" fill="#d11919"/>
    <path id="Path_6647" data-name="Path 6647" d="M70.963,61.137V56.8a8.253,8.253,0,0,0-8.253-8.253h0A8.253,8.253,0,0,0,54.456,56.8h0v4.336a8.1,8.1,0,0,1-1.7,4.968H72.666A8.1,8.1,0,0,1,70.963,61.137Z" transform="translate(9426.085 -4349.293)" fill="#e22424"/>
    <path id="Path_6648" data-name="Path 6648" d="M69.885,79.864a.265.265,0,1,1,.265-.265A.265.265,0,0,1,69.885,79.864Zm0-1.059a.265.265,0,0,1-.263-.265v-.9a7.68,7.68,0,0,1,1.827-4.984.274.274,0,0,1,.373-.032.261.261,0,0,1,.093.18.257.257,0,0,1-.062.193,7.2,7.2,0,0,0-1.7,4.643v.9a.265.265,0,0,1-.265.265Z" transform="translate(9411.45 -4370.131)" fill="#fff"/>
    <path id="Path_6649" data-name="Path 6649" d="M84.314,49.871a8.253,8.253,0,0,1,8.253,8.253h0V62.46a8.1,8.1,0,0,0,.867,3.645h2.16a8.1,8.1,0,0,1-1.7-4.968V56.8a8.253,8.253,0,0,0-8.253-8.253h0a8.238,8.238,0,0,0-6.46,3.116A8.219,8.219,0,0,1,84.314,49.871Z" transform="translate(9403.157 -4349.293)" fill="#d51313"/>
    <path id="Path_6650" data-name="Path 6650" d="M86.961,49.21a8.253,8.253,0,0,1,8.253,8.253h0V61.8a8.1,8.1,0,0,0,1.24,4.307h1.125a8.1,8.1,0,0,1-1.7-4.968V56.8a8.253,8.253,0,0,0-8.253-8.253h0a8.233,8.233,0,0,0-6.157,2.757,8.223,8.223,0,0,1,5.5-2.1Z" transform="translate(9401.172 -4349.293)" fill="#be0f0f"/>
  </g>
</svg>
