<svg xmlns="http://www.w3.org/2000/svg" width="9.704" height="14.798" viewBox="0 0 9.704 14.798">
  <g id="Group_9537" data-name="Group 9537" transform="translate(-372.279 -488)">
    <circle id="Ellipse_1757" data-name="Ellipse 1757" cx="1.735" cy="1.735" r="1.735" transform="translate(377.243 488)" fill="#e22424"/>
    <path id="Path_21468" data-name="Path 21468" d="M4.314.318a2.372,2.372,0,0,1,.773,1.809l.64,5.042s.03.2.4.146a5.929,5.929,0,0,0,1.312-.636,5.926,5.926,0,0,1,.019.8,4.928,4.928,0,0,1-3.428,1.7A1.735,1.735,0,0,1,2.291,7.446L2.138,2.86,2.1,2.125l-.069-.152c-.064-.094-.169-.163-.493-.309S.05,2.316.05,2.316h0L0,1.4,1.687.352A2.5,2.5,0,0,1,3.314.026l.61.121Z" transform="translate(374.81 491.915) rotate(16)" fill="#e22424"/>
  </g>
</svg>
