<svg xmlns="http://www.w3.org/2000/svg" width="15" height="15" viewBox="0 0 15 15">
  <g id="Group_9059" data-name="Group 9059" transform="translate(-465.29 -1119.29)">
    <g id="logo_dutypedia" data-name="logo dutypedia" transform="translate(465.29 1119.29)">
      <g id="Ellipse_1675" data-name="Ellipse 1675" transform="translate(0 0)" fill="#fff" stroke="#f62b2b" stroke-width="0.35">
        <circle cx="7.5" cy="7.5" r="7.5" stroke="none"/>
        <circle cx="7.5" cy="7.5" r="7.325" fill="none"/>
      </g>
      <path id="Path_6617" data-name="Path 6617" d="M657.358,228.12c-1.785-1.043-5.443-.346-7.008.573.5,2.639,1.019,6.97,1.323,7.9a.52.52,0,0,0,.161.241l.012.01a.742.742,0,0,0,.653.133c1.422-.369,3.337-2.189,4.679-4.128a7.015,7.015,0,0,0,1.132-2.732,1.985,1.985,0,0,0-.951-2m-3.486,6.712a2.875,2.875,0,0,1-.9-.144,2.671,2.671,0,0,1,1.5-5.062q.072.009.142.023a.7.7,0,0,1,.36.178.456.456,0,0,1,.057.646q-.016.019-.034.037a.517.517,0,0,1-.249.137.4.4,0,0,1-.148,0c-.05-.007-.1-.021-.151-.033a1.948,1.948,0,0,0-.321-.046c-.039,0-.079,0-.118,0a1.943,1.943,0,0,0-.96,3.633,2.152,2.152,0,0,0,2.9-3,2.094,2.094,0,0,1,.507,1.354,2.439,2.439,0,0,1-2.575,2.274m3.778-4.058a.286.286,0,0,1-.572,0v-1.036c-1.111,1.009-2.189,1.958-3.157,2.7l2.733-3.1h-1.07a.3.3,0,0,1,0-.592h1.8a.263.263,0,0,1,.263.263Z" transform="translate(-646.84 -224.259)" fill="#da1e37"/>
    </g>
  </g>
</svg>
