<svg xmlns="http://www.w3.org/2000/svg" width="15.06" height="15.06" viewBox="0 0 15.06 15.06">
  <g id="logo_dutypedia" data-name="logo dutypedia" transform="translate(-517 -1122)">
    <circle id="Ellipse_1674" data-name="Ellipse 1674" cx="7.53" cy="7.53" r="7.53" transform="translate(517 1122)" fill="#da1e37"/>
    <circle id="Ellipse_1675" data-name="Ellipse 1675" cx="7.371" cy="7.371" r="7.371" transform="translate(517.158 1122.158)" fill="#fff"/>
    <path id="Path_6617" data-name="Path 6617" d="M656.673,228.069c-1.61-.941-4.911-.312-6.323.517.447,2.381.92,6.288,1.193,7.132a.469.469,0,0,0,.145.217l.011.009a.67.67,0,0,0,.589.12c1.283-.333,3.011-1.975,4.222-3.724a6.331,6.331,0,0,0,1.021-2.465,1.791,1.791,0,0,0-.858-1.806m-3.145,6.056a2.592,2.592,0,0,1-.816-.13,2.41,2.41,0,0,1,1.351-4.567q.065.009.128.021a.633.633,0,0,1,.324.16.412.412,0,0,1,.052.583c-.009.012-.02.023-.03.033a.466.466,0,0,1-.224.124.358.358,0,0,1-.134,0c-.045-.007-.089-.019-.136-.03a1.756,1.756,0,0,0-.289-.042c-.035,0-.071,0-.107,0a1.753,1.753,0,0,0-.866,3.278,1.941,1.941,0,0,0,2.614-2.7,1.89,1.89,0,0,1,.457,1.222,2.2,2.2,0,0,1-2.323,2.051m3.408-3.661a.258.258,0,0,1-.516,0v-.935c-1,.91-1.975,1.766-2.848,2.439l2.465-2.795h-.966a.267.267,0,0,1,0-.534H656.7a.237.237,0,0,1,.237.237Z" transform="translate(-129.436 898.314)" fill="#da1e37"/>
  </g>
</svg>
