<svg xmlns="http://www.w3.org/2000/svg" width="43.413" height="55.568" viewBox="0 0 43.413 55.568">
  <g id="list" transform="translate(-56)">
    <path id="Path_4762" data-name="Path 4762" d="M95.071,3.473H86.387a4.337,4.337,0,0,0-3.471-1.737H80.7a3.454,3.454,0,0,0-5.993,0H72.5a4.337,4.337,0,0,0-3.471,1.737H60.341A4.346,4.346,0,0,0,56,7.814V51.227a4.346,4.346,0,0,0,4.341,4.341h34.73a4.346,4.346,0,0,0,4.341-4.341V7.814A4.346,4.346,0,0,0,95.071,3.473Zm-25.179,2.6a2.608,2.608,0,0,1,2.6-2.6h2.764a.868.868,0,0,0,.818-.577,1.722,1.722,0,0,1,3.254,0,.868.868,0,0,0,.818.577h2.764a2.608,2.608,0,0,1,2.6,2.6v2.6H69.892ZM97.676,51.227a2.608,2.608,0,0,1-2.6,2.6H60.341a2.608,2.608,0,0,1-2.6-2.6V7.814a2.608,2.608,0,0,1,2.6-2.6h7.9a4.344,4.344,0,0,0-.087.868V9.551a.868.868,0,0,0,.868.868H86.389a.868.868,0,0,0,.868-.868V6.078a4.345,4.345,0,0,0-.087-.868h7.9a2.608,2.608,0,0,1,2.6,2.6Z" fill="#e6e6e6"/>
    <path id="Path_4763" data-name="Path 4763" d="M123.6,64h-5.21a.868.868,0,1,0,0,1.737h4.341v41.676H89.737V65.737h4.341a.868.868,0,1,0,0-1.737h-5.21a.868.868,0,0,0-.868.868v43.413a.868.868,0,0,0,.868.868H123.6a.868.868,0,0,0,.868-.868V64.868A.868.868,0,0,0,123.6,64Z" transform="translate(-28.527 -57.054)" fill="#e6e6e6"/>
    <path id="Path_4764" data-name="Path 4764" d="M248.868,32a.867.867,0,1,0,.614.254A.874.874,0,0,0,248.868,32Z" transform="translate(-171.162 -28.527)" fill="#e6e6e6"/>
    <path id="Path_4765" data-name="Path 4765" d="M128.254,169.991a.868.868,0,0,0,0,1.228l2.6,2.6a.868.868,0,0,0,1.228,0l4.341-4.341a.868.868,0,0,0-1.228-1.228l-3.727,3.727-1.991-1.991A.868.868,0,0,0,128.254,169.991Z" transform="translate(-64.185 -149.767)" fill="#e6e6e6"/>
    <path id="Path_4766" data-name="Path 4766" d="M136.428,256.254a.868.868,0,0,0-1.228,0l-3.727,3.727-1.991-1.991a.868.868,0,0,0-1.228,1.228l2.6,2.6a.868.868,0,0,0,1.228,0l4.341-4.341A.868.868,0,0,0,136.428,256.254Z" transform="translate(-64.186 -228.216)" fill="#e6e6e6"/>
    <path id="Path_4767" data-name="Path 4767" d="M135.2,344.254l-3.727,3.727-1.991-1.991a.868.868,0,0,0-1.228,1.228l2.6,2.6a.868.868,0,0,0,1.228,0l4.341-4.341a.868.868,0,1,0-1.228-1.228Z" transform="translate(-64.186 -306.665)" fill="#e6e6e6"/>
    <path id="Path_4768" data-name="Path 4768" d="M232.868,185.737h14.76a.868.868,0,0,0,0-1.737h-14.76a.868.868,0,0,0,0,1.737Z" transform="translate(-156.898 -164.03)" fill="#e6e6e6"/>
    <path id="Path_4769" data-name="Path 4769" d="M232.868,273.737h14.76a.868.868,0,0,0,0-1.737h-14.76a.868.868,0,0,0,0,1.737Z" transform="translate(-156.898 -242.479)" fill="#e6e6e6"/>
    <path id="Path_4770" data-name="Path 4770" d="M232.868,361.736h14.76a.868.868,0,0,0,0-1.736h-14.76a.868.868,0,1,0,0,1.736Z" transform="translate(-156.898 -320.929)" fill="#e6e6e6"/>
  </g>
</svg>
