<svg id="mail-inbox-app" xmlns="http://www.w3.org/2000/svg" xmlns:xlink="http://www.w3.org/1999/xlink" width="14.648" height="14.648" viewBox="0 0 14.648 14.648">
  <defs>
    <linearGradient id="linear-gradient" x1="0.039" y1="0.039" x2="0.855" y2="0.855" gradientUnits="objectBoundingBox">
      <stop offset="0" stop-color="#f7e07d"/>
      <stop offset="1" stop-color="#e69642"/>
    </linearGradient>
    <linearGradient id="linear-gradient-2" x1="0.5" y1="0.051" x2="0.5" y2="1.467" gradientUnits="objectBoundingBox">
      <stop offset="0" stop-color="#d52c1c" stop-opacity="0"/>
      <stop offset="0.281" stop-color="#cc2c20" stop-opacity="0.282"/>
      <stop offset="0.73" stop-color="#b52b2a" stop-opacity="0.729"/>
      <stop offset="1" stop-color="#a42b31"/>
    </linearGradient>
    <linearGradient id="linear-gradient-3" x1="0.17" y1="0.25" x2="0.579" y2="0.915" xlink:href="#linear-gradient"/>
    <linearGradient id="linear-gradient-4" y1="0.335" y2="1.206" xlink:href="#linear-gradient-2"/>
    <linearGradient id="linear-gradient-5" x1="0.724" y1="0.477" x2="0.432" y2="0.347" xlink:href="#linear-gradient-2"/>
    <linearGradient id="linear-gradient-6" x1="0.284" y1="-0.021" x2="0.734" y2="0.579" xlink:href="#linear-gradient"/>
    <linearGradient id="linear-gradient-7" x1="0.567" y1="0.491" x2="0.688" y2="1.15" xlink:href="#linear-gradient-2"/>
    <linearGradient id="linear-gradient-8" x1="0.625" y1="0.709" x2="0.032" y2="0.036" xlink:href="#linear-gradient-2"/>
    <linearGradient id="linear-gradient-9" x1="0.217" y1="0.217" x2="0.727" y2="0.727" gradientUnits="objectBoundingBox">
      <stop offset="0" stop-color="#dc4955"/>
      <stop offset="1" stop-color="#c4237c"/>
    </linearGradient>
    <linearGradient id="linear-gradient-10" x1="0.901" y1="0.901" x2="0.148" y2="0.148" xlink:href="#linear-gradient-9"/>
    <linearGradient id="linear-gradient-11" x1="0.5" y1="-1.11" x2="0.5" y2="0.975" gradientUnits="objectBoundingBox">
      <stop offset="0" stop-color="#8a1958" stop-opacity="0"/>
      <stop offset="1" stop-color="#8a1958"/>
    </linearGradient>
  </defs>
  <path id="Path_4995" data-name="Path 4995" d="M11.587,0H3.062A3.061,3.061,0,0,0,0,3.062v8.525a3.061,3.061,0,0,0,3.062,3.062h8.525a3.061,3.061,0,0,0,3.062-3.062V3.062A3.061,3.061,0,0,0,11.587,0Z" transform="translate(0 0)" fill="url(#linear-gradient)"/>
  <path id="Path_4996" data-name="Path 4996" d="M0,276.384v3.648a3.061,3.061,0,0,0,3.062,3.062h8.525a3.061,3.061,0,0,0,3.062-3.062v-3.648Z" transform="translate(0 -268.446)" fill="url(#linear-gradient-2)"/>
  <path id="Path_4997" data-name="Path 4997" d="M25.006,232.214h8.525a3.056,3.056,0,0,0,2.413-1.177L30.8,224.728a1.979,1.979,0,0,0-3.068,0l-5.141,6.309A3.056,3.056,0,0,0,25.006,232.214Z" transform="translate(-21.944 -217.566)" fill="url(#linear-gradient-3)"/>
  <path id="Path_4998" data-name="Path 4998" d="M0,344.63v1.688a3.061,3.061,0,0,0,3.062,3.062h8.525a3.061,3.061,0,0,0,3.062-3.062V344.63Z" transform="translate(0 -334.731)" fill="url(#linear-gradient-4)"/>
  <path id="Path_4999" data-name="Path 4999" d="M215.439,5.681l-6.576,7.708,6.6,6.6a3.063,3.063,0,0,0,2.045-2.889V8.579A3.063,3.063,0,0,0,215.439,5.681Z" transform="translate(-202.864 -5.518)" fill="url(#linear-gradient-5)"/>
  <g id="Group_5961" data-name="Group 5961" transform="translate(0.583 0)">
    <path id="Path_5000" data-name="Path 5000" d="M31.313,0H22.787a3.057,3.057,0,0,0-2.478,1.264l5.207,8.128a1.979,1.979,0,0,0,3.068,0l5.207-8.128A3.057,3.057,0,0,0,31.313,0Z" transform="translate(-20.309)" fill="url(#linear-gradient-6)"/>
    <path id="Path_5001" data-name="Path 5001" d="M31.313,0H22.787a3.057,3.057,0,0,0-2.478,1.264l5.207,8.128a1.979,1.979,0,0,0,3.068,0l5.207-8.128A3.057,3.057,0,0,0,31.313,0Z" transform="translate(-20.309)" fill="url(#linear-gradient-7)"/>
  </g>
  <path id="Path_5002" data-name="Path 5002" d="M191.195,234.194l-5.485-5.485a2.125,2.125,0,1,0-3,3l4.39,4.39h1.26A3.062,3.062,0,0,0,191.195,234.194Z" transform="translate(-176.773 -221.451)" fill="url(#linear-gradient-8)"/>
  <circle id="Ellipse_635" data-name="Ellipse 635" cx="2.057" cy="2.057" r="2.057" transform="translate(5.484 6.856)" fill="url(#linear-gradient-9)"/>
  <circle id="Ellipse_636" data-name="Ellipse 636" cx="1.674" cy="1.674" r="1.674" transform="translate(5.65 6.971)" fill="url(#linear-gradient-10)"/>
  <path id="Path_5003" data-name="Path 5003" d="M212.284,255.544A1.216,1.216,0,0,0,211,256.886a1.129,1.129,0,0,0,1.109,1.269c.215,0,.673-.055.673-.233,0-.055-.044-.16-.135-.16a1.884,1.884,0,0,1-.469.087c-.644,0-.826-.451-.826-.967,0-.553.207-1.033.935-1.033.618,0,.891.353.891,1,0,.16-.015.5-.2.5-.055,0-.08-.036-.1-.171v-.622c0-.331-.305-.495-.615-.495-.262,0-.542.12-.542.269,0,.069.055.207.127.207s.145-.1.36-.1c.185,0,.269.076.269.233v.047h-.1c-.415,0-.738.116-.738.462a.427.427,0,0,0,.455.429.566.566,0,0,0,.458-.266.363.363,0,0,0,.393.276c.393,0,.578-.385.578-.858A1.14,1.14,0,0,0,212.284,255.544Zm.218,1.48a.323.323,0,0,1-.291.3c-.076,0-.124-.055-.124-.149,0-.149.12-.229.349-.229h.065Z" transform="translate(-204.94 -248.204)" fill="url(#linear-gradient-11)"/>
</svg>
