<svg xmlns="http://www.w3.org/2000/svg" width="24.937" height="25.022" viewBox="0 0 24.937 25.022">
  <g id="night" transform="translate(-0.875)">
    <path id="Path_6657" data-name="Path 6657" d="M25.812,13.969A9.632,9.632,0,1,1,13.362,0a12.5,12.5,0,1,0,12.45,13.969Z" transform="translate(0)" fill="#959cb3"/>
    <g id="Group_7462" data-name="Group 7462" transform="translate(3.627)">
      <path id="Path_6658" data-name="Path 6658" d="M112.541,3.068a9.635,9.635,0,0,0,3.208,11.212A9.632,9.632,0,0,1,118.944,0a12.529,12.529,0,0,0-5.484,1.282A9.667,9.667,0,0,0,112.541,3.068Z" transform="translate(-109.208)" fill="#7c8293"/>
      <path id="Path_6659" data-name="Path 6659" d="M75.607,289.037a12.52,12.52,0,0,1-18.434,3.155,12.515,12.515,0,0,0,22.186-6.368A9.61,9.61,0,0,1,75.607,289.037Z" transform="translate(-57.173 -271.855)" fill="#7c8293"/>
    </g>
    <g id="Group_7463" data-name="Group 7463" transform="translate(2.47 8.864)">
      <circle id="Ellipse_1558" data-name="Ellipse 1558" cx="1.437" cy="1.437" r="1.437" transform="translate(2.227)" fill="#aeb7ce"/>
      <circle id="Ellipse_1559" data-name="Ellipse 1559" cx="1.007" cy="1.007" r="1.007" transform="translate(12.752 10.386)" fill="#aeb7ce"/>
      <circle id="Ellipse_1560" data-name="Ellipse 1560" cx="0.712" cy="0.712" r="0.712" transform="translate(12.443 13.282)" fill="#aeb7ce"/>
      <circle id="Ellipse_1561" data-name="Ellipse 1561" cx="2.132" cy="2.132" r="2.132" transform="translate(7.305 10.736)" fill="#aeb7ce"/>
      <circle id="Ellipse_1562" data-name="Ellipse 1562" cx="0.998" cy="0.998" r="0.998" transform="translate(2.227 6.85)" fill="#aeb7ce"/>
      <circle id="Ellipse_1563" data-name="Ellipse 1563" cx="0.593" cy="0.593" r="0.593" transform="translate(0 0.404)" fill="#aeb7ce"/>
    </g>
  </g>
</svg>
