<svg id="Group_6982" data-name="Group 6982" xmlns="http://www.w3.org/2000/svg" width="92.739" height="92.745" viewBox="0 0 92.739 92.745">
  <g id="_045---Wireless-Printer" data-name="045---Wireless-Printer" transform="translate(0)">
    <path id="Shape" d="M80.186,40.182V61.8A6.182,6.182,0,0,1,74,67.982H69.37V57.166a1.6,1.6,0,0,0-1.642-1.549H18.457a1.6,1.6,0,0,0-1.642,1.549V67.988H12.182A6.182,6.182,0,0,1,6,61.8V40.182A6.182,6.182,0,0,1,12.182,34H74A6.182,6.182,0,0,1,80.186,40.182Z" transform="translate(3.273 18.555)" fill="#ffab4b"/>
    <path id="Shape-2" data-name="Shape" d="M10,49.543V60.365h4.633V49.543A1.6,1.6,0,0,1,16.275,48H11.642A1.6,1.6,0,0,0,10,49.543Z" transform="translate(5.455 26.192)" fill="#ffa75b"/>
    <path id="Shape-3" data-name="Shape" d="M51.633,34H47a6.182,6.182,0,0,1,6.182,6.182V61.8A6.182,6.182,0,0,1,47,67.982h4.633A6.182,6.182,0,0,0,57.816,61.8V40.182A6.182,6.182,0,0,0,51.633,34Z" transform="translate(25.644 18.555)" fill="#ffa75b"/>
    <path id="Shape-4" data-name="Shape" d="M65.548,49.543V60.365H59.366V54.183H19.182v6.182H13V49.543A1.6,1.6,0,0,1,14.642,48H63.913A1.6,1.6,0,0,1,65.548,49.543Z" transform="translate(7.095 26.192)" fill="#37474f"/>
    <path id="Shape-5" data-name="Shape" d="M57.184,28.364V43.8H17V17.522A1.549,1.549,0,0,1,18.549,16H44.8V26.822a1.549,1.549,0,0,0,1.542,1.549Z" transform="translate(9.277 8.729)" fill="#f5f5f5"/>
    <path id="Rectangle-path" d="M40,24h4.633V39.455H40Z" transform="translate(21.822 13.093)" fill="#cfd8dc"/>
    <path id="Shape-6" data-name="Shape" d="M33.549,28.364h4.633a1.549,1.549,0,0,1-1.549-1.549V16H32V26.822A1.549,1.549,0,0,0,33.549,28.364Z" transform="translate(17.457 8.729)" fill="#cfd8dc"/>
    <path id="Shape-7" data-name="Shape" d="M57.184,52v9.267a1.549,1.549,0,0,1-1.549,1.549H18.569A1.549,1.549,0,0,1,17,61.267V52Z" transform="translate(9.277 28.374)" fill="#f5f5f5"/>
    <path id="Shape-8" data-name="Shape" d="M40.549,52v9.267A1.549,1.549,0,0,1,39,62.815h4.633a1.549,1.549,0,0,0,1.549-1.549V52Z" transform="translate(21.279 28.374)" fill="#cfd8dc"/>
    <path id="Shape-9" data-name="Shape" d="M47.364,28.364H36.549A1.549,1.549,0,0,1,35,26.822V16Z" transform="translate(19.097 8.729)" fill="#cfd8dc"/>
    <ellipse id="Oval" cx="1.9" cy="1.9" rx="1.9" ry="1.9" transform="translate(72.068 60.696)" fill="#ff9801"/>
    <path id="Shape-10" data-name="Shape" d="M16,52H59.275" transform="translate(8.729 28.374)" fill="none" stroke="#000" stroke-linecap="round" stroke-linejoin="round" stroke-width="2" fill-rule="evenodd"/>
    <g id="Group_6979" data-name="Group 6979">
      <path id="Shape-11" data-name="Shape" d="M67.643,26.277a1.549,1.549,0,0,1-1.549-1.549A21.664,21.664,0,0,0,44.463,3.091a1.549,1.549,0,0,1,0-3.091A24.762,24.762,0,0,1,69.192,24.729,1.549,1.549,0,0,1,67.643,26.277Z" transform="translate(23.547 0)" fill="#ef314c"/>
      <path id="Shape-12" data-name="Shape" d="M61.464,24.1a1.549,1.549,0,0,1-1.549-1.549A15.475,15.475,0,0,0,44.46,7.091,1.549,1.549,0,0,1,44.46,4,18.566,18.566,0,0,1,62.993,22.533a1.549,1.549,0,0,1-1.542,1.549Z" transform="translate(23.531 2.182)" fill="#ef314c"/>
      <path id="Shape-13" data-name="Shape" d="M55.278,21.905a1.549,1.549,0,0,1-1.549-1.549,9.267,9.267,0,0,0-9.267-9.267,1.549,1.549,0,0,1,0-3.091A12.378,12.378,0,0,1,56.814,20.37a1.549,1.549,0,0,1-1.536,1.536Z" transform="translate(23.547 4.359)" fill="#ef314c"/>
      <path id="Shape-14" data-name="Shape" d="M1.549,26.277A1.549,1.549,0,0,1,0,24.729,24.762,24.762,0,0,1,24.729,0a1.549,1.549,0,0,1,0,3.091A21.664,21.664,0,0,0,3.091,24.729a1.549,1.549,0,0,1-1.542,1.549Z" transform="translate(0)" fill="#ef314c"/>
      <path id="Shape-15" data-name="Shape" d="M5.549,24.1A1.549,1.549,0,0,1,4,22.533,18.566,18.566,0,0,1,22.533,4a1.549,1.549,0,0,1,0,3.091A15.475,15.475,0,0,0,7.091,22.533a1.549,1.549,0,0,1-1.549,1.549Z" transform="translate(2.182 2.182)" fill="#ef314c"/>
      <path id="Shape-16" data-name="Shape" d="M9.549,21.9A1.549,1.549,0,0,1,8,20.364,12.378,12.378,0,0,1,20.364,8a1.549,1.549,0,0,1,0,3.091A9.267,9.267,0,0,0,11.1,20.358,1.549,1.549,0,0,1,9.549,21.9Z" transform="translate(4.364 4.364)" fill="#ef314c"/>
      <path id="Shape-17" data-name="Shape" d="M74.553,42.8H65.286V28.809a1.536,1.536,0,0,0-.086-.41,1.464,1.464,0,0,0-.079-.159,1.569,1.569,0,0,0-.3-.437L52.458,15.439a1.542,1.542,0,0,0-.437-.3l-.139-.046A1.575,1.575,0,0,0,51.466,15a.41.41,0,0,0-.093,0H25.1A3.091,3.091,0,0,0,22,18.093V42.8H12.738A7.738,7.738,0,0,0,5,50.553V72.19a7.738,7.738,0,0,0,7.731,7.731H22V81.47a3.091,3.091,0,0,0,3.091,3.091H62.155a3.091,3.091,0,0,0,3.091-3.091V79.921h9.267a7.738,7.738,0,0,0,7.731-7.731V50.553A7.738,7.738,0,0,0,74.553,42.8ZM52.915,20.3,60,27.386H52.915Zm-27.8-2.184H49.844V27.38a3.091,3.091,0,0,0,3.091,3.091H62.2V42.8H25.135Zm37.066,63.37H25.115V73.739H62.182Zm3.091-4.633V73.759a1.549,1.549,0,0,0,0-3.091H22a1.549,1.549,0,0,0,0,3.091V76.85H18.9l.079-9.267H68.344V76.85Zm13.9-4.633a4.633,4.633,0,0,1-4.633,4.633H71.448V67.583a3.144,3.144,0,0,0-3.19-3.091H19.006a3.144,3.144,0,0,0-3.184,3.091V76.85H12.731A4.633,4.633,0,0,1,8.1,72.217V50.553a4.633,4.633,0,0,1,4.633-4.633H74.553a4.633,4.633,0,0,1,4.633,4.633Z" transform="translate(2.731 8.184)"/>
      <path id="Shape-18" data-name="Shape" d="M49.633,37a4.633,4.633,0,1,0,4.633,4.633A4.633,4.633,0,0,0,49.633,37Zm0,6.182a1.549,1.549,0,1,1,1.549-1.549A1.549,1.549,0,0,1,49.633,43.182Z" transform="translate(24.553 20.188)"/>
      <path id="Shape-19" data-name="Shape" d="M43.011,39H41.462a1.549,1.549,0,0,0,0,3.091h1.549a1.549,1.549,0,0,0,0-3.091Z" transform="translate(21.902 21.279)"/>
      <path id="Shape-20" data-name="Shape" d="M38.011,39H36.462a1.549,1.549,0,0,0,0,3.091h1.549a1.549,1.549,0,0,0,0-3.091Z" transform="translate(19.178 21.279)"/>
      <path id="Shape-21" data-name="Shape" d="M21.468,23.091h3.084a1.549,1.549,0,0,0,0-3.091H21.462a1.549,1.549,0,0,0,0,3.091Z" transform="translate(10.991 10.911)"/>
      <path id="Shape-22" data-name="Shape" d="M27.463,23.091h6.182a1.549,1.549,0,0,0,0-3.091H27.463a1.549,1.549,0,0,0,0,3.091Z" transform="translate(14.27 10.911)"/>
      <path id="Shape-23" data-name="Shape" d="M21.463,27.091H36.918a1.549,1.549,0,0,0,0-3.091H21.463a1.549,1.549,0,0,0,0,3.091Z" transform="translate(10.997 13.093)"/>
      <path id="Shape-24" data-name="Shape" d="M30.731,28H21.464a1.549,1.549,0,0,0,0,3.091h9.267a1.549,1.549,0,0,0,0-3.091Z" transform="translate(11.002 15.282)"/>
      <path id="Shape-25" data-name="Shape" d="M43.82,28H31.462a1.549,1.549,0,0,0,0,3.091H43.82a1.549,1.549,0,0,0,0-3.091Z" transform="translate(16.447 15.282)"/>
    </g>
  </g>
</svg>
