<svg xmlns="http://www.w3.org/2000/svg" width="23.547" height="23.553" viewBox="0 0 23.547 23.553">
  <path id="rating" d="M15.748,18.982l-1.961,1.9.46,2.665-2.408-1.257L9.431,23.546l.46-2.665-1.961-1.9,2.709-.391,1.2-2.415,1.2,2.415Zm7.864.006L20.9,18.6l-1.2-2.415L18.5,18.6l-2.709.391,1.961,1.9-.46,2.665L19.7,22.294l2.408,1.257-.46-2.665ZM5.175,18.571l-1.2-2.416-1.2,2.416-2.709.391,1.961,1.9-.46,2.667L3.975,22.27l2.408,1.258-.46-2.667,1.961-1.9Zm.162-3.512-1.77-.5A8.683,8.683,0,0,1,8.554,8.94a5.059,5.059,0,1,1,6.539-.051,8.682,8.682,0,0,1,5.1,5.615l-1.766.514a6.809,6.809,0,0,0-13.085.041Zm3.237-10a3.219,3.219,0,1,0,3.219-3.219A3.223,3.223,0,0,0,8.574,5.058Z" transform="translate(-0.066 0.001)" fill="#666"/>
</svg>
