<svg xmlns="http://www.w3.org/2000/svg" width="20.35" height="20.448" viewBox="0 0 20.35 20.448">
  <g id="Group_6983" data-name="Group 6983" transform="translate(-1818 -400)">
    <g id="share" transform="translate(1816.771 400)">
      <path id="Path_6103" data-name="Path 6103" d="M80.7,83.89,67.83,77.407a1.105,1.105,0,0,1,0-1.974L80.7,68.95l.994,1.974-10.909,5.5,10.909,5.5Z" transform="translate(-63.357 -66.196)" fill="#145587"/>
      <path id="Path_6104" data-name="Path 6104" d="M72.865,182.286a4.643,4.643,0,0,0-1-1.973l-4.041,2.036a1.105,1.105,0,0,0,0,1.974l4.041,2.036a4.643,4.643,0,0,0,1-1.973l-2.083-1.049Z" transform="translate(-63.356 -173.112)" opacity="0.1"/>
      <path id="Path_6105" data-name="Path 6105" d="M307.495,68.949l-4.042,2.036a4.642,4.642,0,0,0,1,1.973l4.041-2.036Z" transform="translate(-290.154 -66.195)" opacity="0.1"/>
      <path id="Path_6106" data-name="Path 6106" d="M307.495,346.671l-4.042-2.036a4.642,4.642,0,0,1,1-1.973l4.041,2.036Z" transform="translate(-290.154 -328.976)" opacity="0.1"/>
      <circle id="Ellipse_1169" data-name="Ellipse 1169" cx="3.741" cy="3.741" r="3.741" transform="translate(14.098 12.967)" fill="#ffab4b"/>
      <circle id="Ellipse_1170" data-name="Ellipse 1170" cx="1.498" cy="1.498" r="1.498" transform="translate(16.34 15.21)" fill="#fff"/>
      <circle id="Ellipse_1171" data-name="Ellipse 1171" cx="3.741" cy="3.741" r="3.741" transform="translate(1.229 6.483)" fill="#ffab4b"/>
      <circle id="Ellipse_1172" data-name="Ellipse 1172" cx="1.498" cy="1.498" r="1.498" transform="translate(3.472 8.726)" fill="#fff"/>
      <circle id="Ellipse_1173" data-name="Ellipse 1173" cx="3.741" cy="3.741" r="3.741" transform="translate(14.098 0)" fill="#ffab4b"/>
      <circle id="Ellipse_1174" data-name="Ellipse 1174" cx="1.498" cy="1.498" r="1.498" transform="translate(16.34 2.243)" fill="#fff"/>
    </g>
  </g>
</svg>
