<svg xmlns="http://www.w3.org/2000/svg" width="24.448" height="24.448" viewBox="0 0 24.448 24.448">
  <g id="Group_6982" data-name="Group 6982" transform="translate(-1779 -398)">
    <g id="_045---Wireless-Printer" data-name="045---Wireless-Printer" transform="translate(1779 398)">
      <path id="Shape" d="M25.558,35.63v5.7a1.63,1.63,0,0,1-1.63,1.63H22.706V40.112a.422.422,0,0,0-.432-.407H9.284a.422.422,0,0,0-.432.407v2.852H7.63A1.63,1.63,0,0,1,6,41.334v-5.7A1.63,1.63,0,0,1,7.63,34h16.3A1.63,1.63,0,0,1,25.558,35.63Z" transform="translate(-3.555 -20.146)" fill="#ffab4b"/>
      <path id="Shape-2" data-name="Shape" d="M10,48.407V51.26h1.222V48.407A.422.422,0,0,1,11.654,48H10.432A.422.422,0,0,0,10,48.407Z" transform="translate(-5.925 -28.442)" fill="#ffa75b"/>
      <path id="Shape-3" data-name="Shape" d="M48.222,34H47a1.63,1.63,0,0,1,1.63,1.63v5.7A1.63,1.63,0,0,1,47,42.964h1.222a1.63,1.63,0,0,0,1.63-1.63v-5.7A1.63,1.63,0,0,0,48.222,34Z" transform="translate(-27.849 -20.146)" fill="#ffa75b"/>
      <path id="Shape-4" data-name="Shape" d="M26.854,48.407V51.26h-1.63V49.63H14.63v1.63H13V48.407A.422.422,0,0,1,13.432,48h12.99A.422.422,0,0,1,26.854,48.407Z" transform="translate(-7.703 -28.442)" fill="#37474f"/>
      <path id="Shape-5" data-name="Shape" d="M27.594,19.26v4.075H17V16.407A.407.407,0,0,1,17.407,16h6.927v2.852a.407.407,0,0,0,.407.407Z" transform="translate(-10.073 -9.481)" fill="#f5f5f5"/>
      <path id="Rectangle-path" d="M40,24h1.222v4.075H40Z" transform="translate(-23.701 -14.221)" fill="#cfd8dc"/>
      <path id="Shape-6" data-name="Shape" d="M32.407,19.26H33.63a.407.407,0,0,1-.407-.407V16H32v2.852A.407.407,0,0,0,32.407,19.26Z" transform="translate(-18.961 -9.481)" fill="#cfd8dc"/>
      <path id="Shape-7" data-name="Shape" d="M27.594,52v2.445a.407.407,0,0,1-.407.407H17.407A.407.407,0,0,1,17,54.445V52Z" transform="translate(-10.073 -30.812)" fill="#f5f5f5"/>
      <path id="Shape-8" data-name="Shape" d="M39.407,52v2.445a.407.407,0,0,1-.407.407h1.222a.407.407,0,0,0,.407-.407V52Z" transform="translate(-23.109 -30.812)" fill="#cfd8dc"/>
      <path id="Shape-9" data-name="Shape" d="M38.26,19.26H35.407A.407.407,0,0,1,35,18.852V16Z" transform="translate(-20.739 -9.481)" fill="#cfd8dc"/>
      <circle id="Oval" cx="0.5" cy="0.5" r="0.5" transform="translate(19 16)" fill="#ff9801"/>
      <path id="Shape-10" data-name="Shape" d="M16,52H27.409" transform="translate(-9.481 -30.812)" fill="none" stroke="#000" stroke-linecap="round" stroke-linejoin="round" stroke-width="2" fill-rule="evenodd"/>
      <g id="Group_6979" data-name="Group 6979">
        <path id="Shape-11" data-name="Shape" d="M49.519,6.927a.407.407,0,0,1-.407-.407,5.711,5.711,0,0,0-5.7-5.7.407.407,0,1,1,0-.815,6.527,6.527,0,0,1,6.519,6.519A.407.407,0,0,1,49.519,6.927Z" transform="translate(-25.479)" fill="#ef314c"/>
        <path id="Shape-12" data-name="Shape" d="M47.89,9.3a.407.407,0,0,1-.407-.407,4.079,4.079,0,0,0-4.075-4.075.407.407,0,1,1,0-.815A4.895,4.895,0,0,1,48.3,8.89a.407.407,0,0,1-.407.407Z" transform="translate(-25.479 -2.37)" fill="#ef314c"/>
        <path id="Shape-13" data-name="Shape" d="M46.26,11.667a.407.407,0,0,1-.407-.407,2.447,2.447,0,0,0-2.445-2.445.407.407,0,1,1,0-.815,3.263,3.263,0,0,1,3.26,3.26A.407.407,0,0,1,46.26,11.667Z" transform="translate(-25.479 -4.74)" fill="#ef314c"/>
        <path id="Shape-14" data-name="Shape" d="M.407,6.927A.407.407,0,0,1,0,6.519,6.527,6.527,0,0,1,6.519,0a.407.407,0,0,1,0,.815,5.711,5.711,0,0,0-5.7,5.7A.407.407,0,0,1,.407,6.927Z" fill="#ef314c"/>
        <path id="Shape-15" data-name="Shape" d="M4.407,9.3A.407.407,0,0,1,4,8.89,4.895,4.895,0,0,1,8.89,4a.407.407,0,1,1,0,.815A4.079,4.079,0,0,0,4.815,8.89a.407.407,0,0,1-.407.407Z" transform="translate(-2.37 -2.37)" fill="#ef314c"/>
        <path id="Shape-16" data-name="Shape" d="M8.407,11.667A.407.407,0,0,1,8,11.26,3.263,3.263,0,0,1,11.26,8a.407.407,0,1,1,0,.815A2.447,2.447,0,0,0,8.815,11.26.407.407,0,0,1,8.407,11.667Z" transform="translate(-4.74 -4.74)" fill="#ef314c"/>
        <path id="Shape-17" data-name="Shape" d="M23.336,22.334H20.891V18.667c0-.009,0-.016,0-.025a.4.4,0,0,0-.022-.108.386.386,0,0,0-.013-.038.413.413,0,0,0-.078-.116l-3.26-3.26a.408.408,0,0,0-.116-.078c-.012-.005-.024-.009-.037-.013a.415.415,0,0,0-.112-.022A.108.108,0,0,0,17.224,15H10.3a.815.815,0,0,0-.815.815v6.519H7.037A2.04,2.04,0,0,0,5,24.372v5.7a2.04,2.04,0,0,0,2.037,2.037H9.482v.407a.815.815,0,0,0,.815.815h9.779a.815.815,0,0,0,.815-.815v-.407h2.445a2.04,2.04,0,0,0,2.037-2.037v-5.7a2.04,2.04,0,0,0-2.037-2.037Zm-5.7-5.943L19.5,18.26H17.631ZM10.3,15.815h6.519V18.26a.815.815,0,0,0,.815.815h2.445v3.26H10.3Zm9.779,16.706H10.3V30.484h9.779Zm.815-1.222v-.815a.407.407,0,1,0,0-.815H9.482a.407.407,0,1,0,0,.815V31.3H8.671l.022-2.445H21.706V31.3Zm3.667-1.222A1.222,1.222,0,0,1,23.336,31.3h-.815V28.854a.829.829,0,0,0-.841-.815H8.692a.829.829,0,0,0-.84.815V31.3H7.037a1.222,1.222,0,0,1-1.222-1.222v-5.7a1.222,1.222,0,0,1,1.222-1.222h16.3a1.222,1.222,0,0,1,1.222,1.222Z" transform="translate(-2.963 -8.888)"/>
        <path id="Shape-18" data-name="Shape" d="M46.222,37a1.222,1.222,0,1,0,1.222,1.222A1.222,1.222,0,0,0,46.222,37Zm0,1.63a.407.407,0,1,1,.407-.407A.407.407,0,0,1,46.222,38.63Z" transform="translate(-26.664 -21.924)"/>
        <path id="Shape-19" data-name="Shape" d="M40.815,39h-.407a.407.407,0,1,0,0,.815h.407a.407.407,0,1,0,0-.815Z" transform="translate(-23.701 -23.109)"/>
        <path id="Shape-20" data-name="Shape" d="M35.815,39h-.407a.407.407,0,1,0,0,.815h.407a.407.407,0,0,0,0-.815Z" transform="translate(-20.739 -23.109)"/>
        <path id="Shape-21" data-name="Shape" d="M20.407,20.815h.815a.407.407,0,0,0,0-.815h-.815a.407.407,0,1,0,0,.815Z" transform="translate(-11.851 -11.851)"/>
        <path id="Shape-22" data-name="Shape" d="M26.407,20.815h1.63a.407.407,0,0,0,0-.815h-1.63a.407.407,0,1,0,0,.815Z" transform="translate(-15.406 -11.851)"/>
        <path id="Shape-23" data-name="Shape" d="M20.407,24.815h4.075a.407.407,0,1,0,0-.815H20.407a.407.407,0,1,0,0,.815Z" transform="translate(-11.851 -14.221)"/>
        <path id="Shape-24" data-name="Shape" d="M22.852,28H20.407a.407.407,0,1,0,0,.815h2.445a.407.407,0,0,0,0-.815Z" transform="translate(-11.851 -16.591)"/>
        <path id="Shape-25" data-name="Shape" d="M33.667,28h-3.26a.407.407,0,1,0,0,.815h3.26a.407.407,0,0,0,0-.815Z" transform="translate(-17.776 -16.591)"/>
      </g>
    </g>
  </g>
</svg>
