<svg xmlns="http://www.w3.org/2000/svg" width="25.781" height="24.534" viewBox="0 0 25.781 24.534">
  <g id="Group_6981" data-name="Group 6981" transform="translate(-1739 -398)">
    <g id="Group_6978" data-name="Group 6978" transform="translate(-958.026 -1782.875)">
      <path id="Path_6089" data-name="Path 6089" d="M280.136,8.39a5.509,5.509,0,1,1-5.283,3.936,5.509,5.509,0,0,1,5.283-3.936Zm0,0" transform="translate(2436.742 2172.902)" fill="#fff"/>
      <path id="Path_6090" data-name="Path 6090" d="M88.074,100.627v.006a2.86,2.86,0,0,1-2.86,2.858H85.2c-.066,0-.132,0-.2-.007a2.86,2.86,0,0,1-2.661-2.857v-1.85H72.761v-.025l.1-15.021h10.66l.008,0a5.516,5.516,0,0,0,4.543,7.039ZM76.761,89a.878.878,0,1,0-.919-.877A.9.9,0,0,0,76.761,89Zm0,3.631a.878.878,0,1,0-.919-.877A.9.9,0,0,0,76.761,92.627Zm0,3.63a.878.878,0,1,0-.919-.877A.9.9,0,0,0,76.761,96.257Zm0,0" transform="translate(2628.064 2101.495)" fill="#ffab4b"/>
      <path id="Path_6091" data-name="Path 6091" d="M23.828,376.609v.007H11.071a2.86,2.86,0,0,1-2.86-2.858V371.9H21.167v1.85a2.86,2.86,0,0,0,2.661,2.857Zm0,0" transform="translate(2689.244 1828.37)" fill="#ffa75b"/>
      <path id="Path_6092" data-name="Path 6092" d="M133.6,151.857a.92.92,0,1,1-.919-.877A.9.9,0,0,1,133.6,151.857Zm0,0" transform="translate(2572.144 2037.757)" fill="#fff"/>
      <path id="Path_6093" data-name="Path 6093" d="M133.6,221.4a.92.92,0,1,1-.919-.877.9.9,0,0,1,.919.877Zm0,0" transform="translate(2572.144 1971.844)" fill="#fff"/>
      <path id="Path_6094" data-name="Path 6094" d="M133.6,290.939a.92.92,0,1,1-.919-.877A.9.9,0,0,1,133.6,290.939Zm0,0" transform="translate(2572.144 1905.936)" fill="#fff"/>
      <g id="Group_6977" data-name="Group 6977" transform="translate(2697.026 2180.875)">
        <path id="Path_6096" data-name="Path 6096" d="M19.852.388a5.867,5.867,0,0,0-3.576,1.187A6.125,6.125,0,0,0,14.268,4.3H3.9a.437.437,0,0,0-.418.437l-.1,14.653H.429a.411.411,0,0,0-.429.4v1.856a3.3,3.3,0,0,0,3.133,3.271v.009h12.9V24.91c.1,0,.151.012.214.012h.009a3.284,3.284,0,0,0,3.276-3.281v-9.4c.1.006.216.009.323.009a5.93,5.93,0,1,0,0-11.861ZM.836,21.641V20.223H12.949v1.412a3.347,3.347,0,0,0,1.115,2.452H3.289A2.459,2.459,0,0,1,.836,21.641Zm15.413,2.446h-.006c-.052,0-.117,0-.177-.009a2.46,2.46,0,0,1-2.282-2.443v-1.85a.385.385,0,0,0-.4-.4H4.22l.1-14.254h9.721a6.484,6.484,0,0,0-.115,1.186,6.18,6.18,0,0,0,.507,2.417H10.48a.418.418,0,1,0,0,.835h4.4a5.868,5.868,0,0,0,3.81,2.563v9.506a2.449,2.449,0,0,1-2.444,2.446Zm3.6-12.673a5.076,5.076,0,0,1-.684-.046h0a5.1,5.1,0,1,1,.684.046Zm0,0" transform="translate(0 -0.388)" fill="#083863"/>
        <path id="Path_6097" data-name="Path 6097" d="M125.1,212.523a1.3,1.3,0,1,0,1.337,1.294A1.318,1.318,0,0,0,125.1,212.523Zm0,1.754a.461.461,0,1,1,.5-.46A.483.483,0,0,1,125.1,214.277Zm0,0" transform="translate(-117.3 -201.447)" fill="#083863"/>
        <path id="Path_6098" data-name="Path 6098" d="M198.705,229.281h-5.569a.418.418,0,0,0,0,.835h5.569a.418.418,0,1,0,0-.835Zm0,0" transform="translate(-182.657 -217.33)" fill="#083863"/>
        <path id="Path_6099" data-name="Path 6099" d="M125.1,142.98a1.3,1.3,0,1,0,1.337,1.295A1.318,1.318,0,0,0,125.1,142.98Zm0,1.754a.461.461,0,1,1,.5-.459A.482.482,0,0,1,125.1,144.734Zm0,0" transform="translate(-117.3 -135.535)" fill="#083863"/>
        <path id="Path_6100" data-name="Path 6100" d="M125.1,282.063a1.295,1.295,0,1,0,1.337,1.294A1.318,1.318,0,0,0,125.1,282.063Zm0,1.753a.461.461,0,1,1,.5-.459A.482.482,0,0,1,125.1,283.816Zm0,0" transform="translate(-117.3 -267.356)" fill="#083863"/>
        <path id="Path_6101" data-name="Path 6101" d="M198.705,299.281h-5.569a.418.418,0,1,0,0,.835h5.569a.418.418,0,0,0,0-.835Zm0,0" transform="translate(-182.657 -283.675)" fill="#083863"/>
      </g>
      <path id="Path_6102" data-name="Path 6102" d="M2.884-9.763a.649.649,0,0,0,.249-.055,1.3,1.3,0,0,0,.259-.147,1.763,1.763,0,0,0,.244-.214,1.859,1.859,0,0,0,.206-.256,1.361,1.361,0,0,0,.141-.273.751.751,0,0,0,.052-.265.874.874,0,0,0-.085-.376l-.058.016a.646.646,0,0,1-.044.159.475.475,0,0,1-.093.144.47.47,0,0,1-.151.106.52.52,0,0,1-.217.041.618.618,0,0,1-.244-.047.575.575,0,0,1-.188-.126.559.559,0,0,1-.121-.185.593.593,0,0,1-.042-.223.758.758,0,0,1,.033-.206.542.542,0,0,1,.123-.215.71.71,0,0,1,.248-.169,1.038,1.038,0,0,1,.41-.069,1.194,1.194,0,0,1,.51.1,1.014,1.014,0,0,1,.352.265,1.086,1.086,0,0,1,.206.378,1.473,1.473,0,0,1,.067.444,1.548,1.548,0,0,1-.088.525,1.863,1.863,0,0,1-.234.452,2.125,2.125,0,0,1-.334.371,2.425,2.425,0,0,1-.388.28A1.953,1.953,0,0,1,3.3-9.13a1.213,1.213,0,0,1-.356.06A1.176,1.176,0,0,1,2.721-9.1a1.219,1.219,0,0,1-.27-.09,1.259,1.259,0,0,1-.274-.175,1.165,1.165,0,0,1-.241-.281,1.53,1.53,0,0,1-.173-.407A2.076,2.076,0,0,1,1.7-10.6v-1.744H.938v-.617H1.7v-.907l-.016-.008a.305.305,0,0,1-.053.012.379.379,0,0,1-.053,0,.338.338,0,0,1-.137-.029.372.372,0,0,1-.115-.078.387.387,0,0,1-.08-.117.347.347,0,0,1-.03-.144.421.421,0,0,1,.033-.156.457.457,0,0,1,.1-.151.542.542,0,0,1,.169-.114.582.582,0,0,1,.239-.045.545.545,0,0,1,.315.086.646.646,0,0,1,.2.226,1.054,1.054,0,0,1,.11.315,1.915,1.915,0,0,1,.033.354v.751H4.847v.617H2.412v1.656a2.3,2.3,0,0,0,.026.374,1.209,1.209,0,0,0,.069.258.556.556,0,0,0,.1.162.452.452,0,0,0,.106.089.281.281,0,0,0,.1.037A.548.548,0,0,0,2.884-9.763Z" transform="translate(2713.982 2198.684)" fill="#ff9940"/>
    </g>
  </g>
</svg>
