<svg xmlns="http://www.w3.org/2000/svg" width="17" height="17" viewBox="0 0 17 17">
  <g id="settings" transform="translate(-0.458 0.001)">
    <path id="Path_18849" data-name="Path 18849" d="M82.887,76.9a5.528,5.528,0,1,0,5.528,5.528A5.535,5.535,0,0,0,82.887,76.9ZM80.1,86.476V84.538a1.183,1.183,0,0,1,1.038-1.171,2.3,2.3,0,0,0,3.487,0,1.183,1.183,0,0,1,1.039,1.171v1.938a4.91,4.91,0,0,1-5.565,0Zm6.183-.5V84.538a1.8,1.8,0,0,0-1.8-1.8.309.309,0,0,0-.249.126,1.676,1.676,0,0,1-2.7,0,.309.309,0,0,0-.249-.126,1.8,1.8,0,0,0-1.8,1.8v1.434a4.911,4.911,0,1,1,6.8,0Zm0,0" transform="translate(-73.929 -73.932)" fill="#666"/>
    <path id="Path_18850" data-name="Path 18850" d="M16.461,9.366a7.762,7.762,0,0,0-.054-2.07l.856-.821a.309.309,0,0,0,.069-.347L16.359,3.9a.309.309,0,0,0-.306-.184L14.868,3.8a6.977,6.977,0,0,0-1.5-1.43L13.4,1.192a.309.309,0,0,0-.2-.3L10.938.02a.309.309,0,0,0-.345.086L9.825,1a7.77,7.77,0,0,0-2.07.054L6.934.193A.309.309,0,0,0,6.587.124L4.361,1.1a.309.309,0,0,0-.184.306l.087,1.185a6.98,6.98,0,0,0-1.43,1.5L1.651,4.055a.308.308,0,0,0-.3.2L.479,6.519a.309.309,0,0,0,.086.345l.89.767A7.755,7.755,0,0,0,1.508,9.7l-.856.821a.309.309,0,0,0-.069.347L1.557,13.1a.309.309,0,0,0,.306.184l1.184-.087a6.98,6.98,0,0,0,1.5,1.43l-.035,1.183a.309.309,0,0,0,.2.3l2.266.875a.309.309,0,0,0,.345-.086L8.091,16a7.762,7.762,0,0,0,2.07-.053l.821.856a.309.309,0,0,0,.347.069l2.227-.974a.309.309,0,0,0,.184-.306l-.087-1.184a6.981,6.981,0,0,0,1.43-1.5l1.183.035a.309.309,0,0,0,.3-.2l.875-2.266a.309.309,0,0,0-.086-.345Zm-.4,2.952-1.133-.033a.308.308,0,0,0-.266.138,6.37,6.37,0,0,1-1.517,1.593.309.309,0,0,0-.125.271l.083,1.134-1.829.8-.785-.818a.309.309,0,0,0-.279-.09A7.155,7.155,0,0,1,8,15.369a.309.309,0,0,0-.274.1L7,16.323l-1.859-.717.033-1.133a.309.309,0,0,0-.137-.266,6.371,6.371,0,0,1-1.593-1.517.309.309,0,0,0-.271-.125l-1.134.083-.8-1.829.818-.785a.309.309,0,0,0,.09-.279,7.15,7.15,0,0,1-.057-2.211.309.309,0,0,0-.1-.274l-.849-.733.717-1.859,1.133.033a.31.31,0,0,0,.266-.138A6.374,6.374,0,0,1,4.768,2.982a.309.309,0,0,0,.124-.271L4.809,1.577l1.829-.8.785.818a.31.31,0,0,0,.279.09,7.145,7.145,0,0,1,2.211-.057.309.309,0,0,0,.274-.1l.733-.849,1.859.717-.033,1.133a.309.309,0,0,0,.138.266,6.37,6.37,0,0,1,1.593,1.517.309.309,0,0,0,.271.125L15.88,4.35l.8,1.829-.818.785a.309.309,0,0,0-.09.279,7.15,7.15,0,0,1,.057,2.211.309.309,0,0,0,.1.274l.849.733Zm0,0" fill="#666"/>
    <path id="Path_18851" data-name="Path 18851" d="M171.565,125.059a1.964,1.964,0,1,0,1.964,1.963A1.964,1.964,0,0,0,171.565,125.059Zm0,3.309a1.345,1.345,0,1,1,1.345-1.345A1.345,1.345,0,0,1,171.565,128.368Zm0,0" transform="translate(-162.607 -120.227)" fill="#666"/>
  </g>
</svg>
