<svg id="Group_6983" data-name="Group 6983" xmlns="http://www.w3.org/2000/svg" width="77.198" height="77.568" viewBox="0 0 77.198 77.568">
  <g id="share" transform="translate(0 0)">
    <path id="Path_6103" data-name="Path 6103" d="M118.344,125.6l-48.815-24.57a4.19,4.19,0,0,1,0-7.486l48.809-24.6,3.773,7.486L80.728,97.289l41.382,20.85Z" transform="translate(-57.231 -58.488)" fill="#145587"/>
    <path id="Path_6104" data-name="Path 6104" d="M88.636,187.8a17.613,17.613,0,0,0-3.779-7.486l-15.33,7.724a4.19,4.19,0,0,0,0,7.486l15.33,7.724a17.613,17.613,0,0,0,3.779-7.486l-7.9-3.971Z" transform="translate(-57.235 -152.996)" opacity="0.1"/>
    <path id="Path_6105" data-name="Path 6105" d="M318.783,68.949l-15.33,7.724a17.608,17.608,0,0,0,3.773,7.486l15.33-7.724Z" transform="translate(-257.669 -58.504)" opacity="0.1"/>
    <path id="Path_6106" data-name="Path 6106" d="M318.783,357.871l-15.33-7.724a17.608,17.608,0,0,1,3.773-7.486l15.329,7.724Z" transform="translate(-257.669 -290.748)" opacity="0.1"/>
    <ellipse id="Ellipse_1169" data-name="Ellipse 1169" cx="14.191" cy="14.191" rx="14.191" ry="14.191" transform="translate(48.815 49.186)" fill="#ffab4b"/>
    <ellipse id="Ellipse_1170" data-name="Ellipse 1170" cx="5.679" cy="5.679" rx="5.679" ry="5.679" transform="translate(57.321 57.698)" fill="#fff"/>
    <ellipse id="Ellipse_1171" data-name="Ellipse 1171" cx="14.191" cy="14.191" rx="14.191" ry="14.191" transform="translate(0 24.596)" fill="#ffab4b"/>
    <ellipse id="Ellipse_1172" data-name="Ellipse 1172" cx="5.679" cy="5.679" rx="5.679" ry="5.679" transform="translate(8.505 33.102)" fill="#fff"/>
    <ellipse id="Ellipse_1173" data-name="Ellipse 1173" cx="14.191" cy="14.191" rx="14.191" ry="14.191" transform="translate(48.815)" fill="#ffab4b"/>
    <ellipse id="Ellipse_1174" data-name="Ellipse 1174" cx="5.679" cy="5.679" rx="5.679" ry="5.679" transform="translate(57.321 8.505)" fill="#fff"/>
  </g>
</svg>
