<svg xmlns="http://www.w3.org/2000/svg" width="19.975" height="19.975" viewBox="0 0 19.975 19.975">
  <path id="team" d="M19.975,8.377h-.724l-1.079.568a1.6,1.6,0,0,0-.384-.158l-1.357-.34V8.293A2.263,2.263,0,0,0,17.4,6.444V5.88a2.315,2.315,0,0,0-2.186-2.336c-.061,0-.121,0-.182,0l.352-.824L13.675,1.019l-1.006.655a5.45,5.45,0,0,0-1.206-.5L11.215,0H8.76L8.511,1.174a5.443,5.443,0,0,0-1.206.5L6.3,1.019l-1.7,1.7.346.824-.039,0A2.256,2.256,0,0,0,2.577,5.8v.644a2.262,2.262,0,0,0,.967,1.849v.155l-.885.221-1.6-.936H0v6.676l3.17,1.056h.617l.077-.27.972.583a1,1,0,0,0,.967.972,1,1,0,0,0,.967.967,1,1,0,0,0,.967.967,1,1,0,0,0,1.567.8l.285.252a.981.981,0,0,0,.648.245h.06a.981.981,0,0,0,.979-.968.98.98,0,0,0,.967-.967.98.98,0,0,0,.967-.967.991.991,0,0,0,.968-.989.943.943,0,0,0,0-.1l5.8-2.9Zm-3.222-2.5v.563a1.617,1.617,0,0,1-.806,1.394l-.161.093V8.95l1.61.4-3.543,1.865v-.868a1.6,1.6,0,0,0-.461-1.123L14.5,8.95V7.93l-.161-.093a1.615,1.615,0,0,1-.806-1.394V5.8a1.611,1.611,0,0,1,1.661-1.61A1.666,1.666,0,0,1,16.753,5.88Zm-6.28,5.084L9.015,10.5A3.979,3.979,0,0,0,6.95,10.4l-.185.041v-.1A.966.966,0,0,1,7.5,9.411L9.343,8.95V7.93l-.161-.093a1.615,1.615,0,0,1-.806-1.394V5.8a1.611,1.611,0,0,1,1.661-1.61A1.666,1.666,0,0,1,11.6,5.88v.563a1.617,1.617,0,0,1-.806,1.394l-.161.093V8.95l1.845.461a.966.966,0,0,1,.732.938v1.207l-.08.042h-.2l-1.981-.566a2.031,2.031,0,0,0-.478-.068ZM6.838,4.822A3.542,3.542,0,0,1,13.124,4.8a2.241,2.241,0,0,0-.237,1v.644a2.262,2.262,0,0,0,.967,1.849v.155l-1.289.323-1.289-.323V8.292a2.263,2.263,0,0,0,.967-1.849V5.88a2.315,2.315,0,0,0-2.186-2.336A2.256,2.256,0,0,0,7.732,5.8v.644A2.262,2.262,0,0,0,8.7,8.292v.155L7.41,8.769,6.121,8.447V8.292a2.263,2.263,0,0,0,.967-1.849V5.88a2.375,2.375,0,0,0-.25-1.058ZM5.356,2.873,6.385,1.844l.906.59.173-.106a4.808,4.808,0,0,1,1.4-.579l.2-.048L9.282.644h1.411L10.917,1.7l.2.047a4.812,4.812,0,0,1,1.4.579l.173.106.906-.59,1.028,1.028-.365.856a2.252,2.252,0,0,0-.68.452c-.013.013-.025.027-.037.04a4.184,4.184,0,0,0-7.106.019,2.273,2.273,0,0,0-.711-.5ZM4.188,8.95V7.93l-.161-.093a1.615,1.615,0,0,1-.806-1.394V5.8a1.611,1.611,0,0,1,1.661-1.61A1.666,1.666,0,0,1,6.443,5.88v.563a1.617,1.617,0,0,1-.806,1.394l-.161.093V8.95l1.105.276a1.6,1.6,0,0,0-.461,1.123v.239l-1,.223.026-.091.012-.6-1.7-.991ZM.644,8.377H.879L3.2,9.728,2.027,14.4.644,13.944Zm2.63,6.444-.634-.211,1.136-4.543.735.429v.092L3.3,14.82Zm2.2.928a.364.364,0,0,1,.106-.255l.566-.566a.361.361,0,0,1,.511.511L6.094,16a.361.361,0,0,1-.617-.255Zm.967.967a.364.364,0,0,1,.106-.255l.566-.566a.361.361,0,0,1,.511.511l-.566.566a.361.361,0,0,1-.617-.255Zm.967.967a.364.364,0,0,1,.106-.255l.566-.566a.361.361,0,0,1,.511.511l-.566.566a.361.361,0,0,1-.617-.255Zm1.328,1.328a.361.361,0,0,1-.255-.617l.566-.566a.361.361,0,0,1,.511.511l-.566.566A.364.364,0,0,1,8.738,19.009Zm1.558.322h-.06a.334.334,0,0,1-.222-.084l-.241-.213.242-.242a1,1,0,0,0,.2-.3l.293.244a.336.336,0,0,1-.215.594Zm2.889-2.9h-.056a.346.346,0,0,1-.222-.081l-1.747-1.456-.413.5,1.7,1.414a.336.336,0,0,1-.216.594h-.07a.336.336,0,0,1-.215-.078l-1.75-1.458-.413.5,1.7,1.414a.336.336,0,0,1-.215.594.532.532,0,0,1-.339-.123l-.719-.6a1,1,0,0,0-.865-.563,1,1,0,0,0-.967-.967,1,1,0,0,0-.967-.967,1,1,0,0,0-1.713-.676l-.566.566a.993.993,0,0,0-.09.11l-.99-.594.868-3.037,2.175-.484a3.319,3.319,0,0,1,1.729.078l.475.152-1.609.8a1.074,1.074,0,0,0-.6.965V13.1a1.079,1.079,0,0,0,1.635.925l1.2-.719a.665.665,0,0,1,.773.074l2.722,2.45a.347.347,0,0,1-.232.6Zm6.146-3.743L13.9,15.4c-.018-.019-.036-.036-.055-.054L11.126,12.9A1.3,1.3,0,0,0,9.59,12.75l-1.2.72a.435.435,0,0,1-.658-.373v-.064a.432.432,0,0,1,.24-.389l1.8-.9a1.4,1.4,0,0,1,1-.093l2.025.578.49.012,6.042-3.18Zm0,0" transform="translate(0 0)"/>
</svg>
