<svg xmlns="http://www.w3.org/2000/svg" width="14.432" height="17.473" viewBox="0 0 14.432 17.473">
  <g id="value" transform="translate(-44.553)">
    <g id="Group_8080" data-name="Group 8080" transform="translate(44.553 0)">
      <g id="Group_8079" data-name="Group 8079" transform="translate(0 0)">
        <path id="Path_18986" data-name="Path 18986" d="M248.753,1.11a.256.256,0,0,0,.256-.256v-.6a.256.256,0,0,0-.512,0v.6A.256.256,0,0,0,248.753,1.11Z" transform="translate(-241.537 0)" fill="#666"/>
        <path id="Path_18987" data-name="Path 18987" d="M146.857,28.224a.256.256,0,1,0,.444-.256l-.3-.518a.256.256,0,0,0-.444.256Z" transform="translate(-143.044 -26.39)" fill="#666"/>
        <path id="Path_18988" data-name="Path 18988" d="M72,102.447l.517.3a.256.256,0,0,0,.256-.444l-.517-.3a.256.256,0,0,0-.256.444Z" transform="translate(-70.943 -98.49)" fill="#666"/>
        <path id="Path_18989" data-name="Path 18989" d="M410.853,297.492l-.517-.3a.256.256,0,0,0-.256.444l.517.3a.256.256,0,0,0,.256-.443Z" transform="translate(-397.482 -287.018)" fill="#666"/>
        <path id="Path_18990" data-name="Path 18990" d="M45.663,204.2a.256.256,0,0,0-.256-.256h-.6a.256.256,0,0,0,0,.512h.6A.256.256,0,0,0,45.663,204.2Z" transform="translate(-44.553 -196.984)" fill="#666"/>
        <path id="Path_18991" data-name="Path 18991" d="M435.784,203.944h-.6a.256.256,0,1,0,0,.512h.6a.256.256,0,1,0,0-.512Z" transform="translate(-421.608 -196.984)" fill="#666"/>
        <path id="Path_18992" data-name="Path 18992" d="M72.52,297.193l-.517.3a.256.256,0,1,0,.256.444l.517-.3a.256.256,0,0,0-.256-.444Z" transform="translate(-70.942 -287.018)" fill="#666"/>
        <path id="Path_18993" data-name="Path 18993" d="M410.206,102.781a.255.255,0,0,0,.128-.034l.517-.3A.256.256,0,0,0,410.6,102l-.517.3a.256.256,0,0,0,.128.478Z" transform="translate(-397.48 -98.49)" fill="#666"/>
        <path id="Path_18994" data-name="Path 18994" d="M341.84,28.318a.256.256,0,0,0,.35-.094l.3-.517a.256.256,0,1,0-.443-.256l-.3.518A.256.256,0,0,0,341.84,28.318Z" transform="translate(-331.571 -26.39)" fill="#666"/>
        <path id="Path_18995" data-name="Path 18995" d="M229.071,155.713a.854.854,0,0,1-.718-.106.256.256,0,1,0-.28.429,1.42,1.42,0,0,0,.569.214v.2a.256.256,0,1,0,.512,0v-.23q.05-.013.1-.031a.941.941,0,0,0,.584-.646.878.878,0,0,0-.568-1.084l-.113-.039a1.162,1.162,0,0,1-.567-.306.252.252,0,0,1-.024-.23.419.419,0,0,1,.514-.21.813.813,0,0,1,.3.156.256.256,0,0,0,.322-.4,1.326,1.326,0,0,0-.5-.254l-.052-.012v-.214a.256.256,0,0,0-.512,0v.231l-.032.008a.82.82,0,0,0-.532.528.756.756,0,0,0,.094.694,1.362,1.362,0,0,0,.746.46c.25.087.511.22.424.531A.424.424,0,0,1,229.071,155.713Z" transform="translate(-221.698 -147.489)" fill="#666"/>
        <path id="Path_18996" data-name="Path 18996" d="M100.577,50.533A5.491,5.491,0,0,0,99.35,61.377a1.593,1.593,0,0,0,2.455,0,5.458,5.458,0,0,0,1.644-.67.256.256,0,0,0-.268-.436,4.936,4.936,0,0,1-1.058.488,1.6,1.6,0,0,0,.017-.727A4.3,4.3,0,1,0,98,52.578a.256.256,0,1,0,.307.41,3.789,3.789,0,0,1,6.055,3.036,3.8,3.8,0,0,1-2.412,3.529,1.594,1.594,0,0,0-2.754,0,3.789,3.789,0,0,1-1.674-5.775.256.256,0,1,0-.412-.3,4.3,4.3,0,0,0,1.9,6.556,1.6,1.6,0,0,0,.017.726,4.979,4.979,0,1,1,5.034-1.18.256.256,0,0,0,.359.365,5.491,5.491,0,0,0-3.847-9.41Zm0,8.779a1.046,1.046,0,1,1-1.046,1.046A1.047,1.047,0,0,1,100.577,59.312Z" transform="translate(-93.362 -48.809)" fill="#666"/>
        <path id="Path_18997" data-name="Path 18997" d="M173.6,399.1h0l-1.411.01a2.232,2.232,0,0,0-2.23,2.229v1.339a.275.275,0,0,0,.275.275h5.322a.275.275,0,0,0,.275-.275v-1.348A2.232,2.232,0,0,0,173.6,399.1Zm1.68,3.3h-.821v-.971a.275.275,0,1,0-.55,0v.971h-2.031v-.971a.275.275,0,1,0-.55,0v.971h-.821v-1.064a1.682,1.682,0,0,1,1.681-1.68l1.412-.01a1.681,1.681,0,0,1,1.679,1.68V402.4Z" transform="translate(-165.68 -385.482)" fill="#666"/>
      </g>
    </g>
  </g>
</svg>
