<svg xmlns="http://www.w3.org/2000/svg" width="19.239" height="18.352" viewBox="0 0 19.239 18.352">
  <g id="wallet" transform="translate(0 -11.8)">
    <g id="Group_8009" data-name="Group 8009" transform="translate(0 16.525)">
      <g id="Group_8008" data-name="Group 8008" transform="translate(0 0)">
        <path id="Path_18864" data-name="Path 18864" d="M16.433,137.533H2.806A2.809,2.809,0,0,0,0,140.339v8.016a2.809,2.809,0,0,0,2.806,2.806H16.433a2.809,2.809,0,0,0,2.806-2.806v-8.016A2.809,2.809,0,0,0,16.433,137.533Zm2,10.822a2.006,2.006,0,0,1-2,2H2.806a2.006,2.006,0,0,1-2-2v-8.016a2.006,2.006,0,0,1,2-2H16.433a2.006,2.006,0,0,1,2,2Z" transform="translate(0 -137.533)" fill="#666"/>
      </g>
    </g>
    <g id="Group_8011" data-name="Group 8011" transform="translate(14.429 22.136)">
      <g id="Group_8010" data-name="Group 8010">
        <path id="Path_18865" data-name="Path 18865" d="M385.2,286.866a1.2,1.2,0,1,0,1.2,1.2A1.2,1.2,0,0,0,385.2,286.866Zm0,1.6a.4.4,0,1,1,.4-.4A.4.4,0,0,1,385.2,288.469Z" transform="translate(-384 -286.866)" fill="#666"/>
      </g>
    </g>
    <g id="Group_8013" data-name="Group 8013" transform="translate(12.826 20.533)">
      <g id="Group_8012" data-name="Group 8012">
        <path id="Path_18866" data-name="Path 18866" d="M347.345,244.2h-3.206a2.806,2.806,0,1,0,0,5.611h3.206a.4.4,0,0,0,.4-.4V244.6A.4.4,0,0,0,347.345,244.2Zm-.4,4.81h-2.806a2,2,0,1,1,0-4.008h2.806Z" transform="translate(-341.333 -244.199)" fill="#666"/>
      </g>
    </g>
    <g id="Group_8015" data-name="Group 8015" transform="translate(2.405 11.8)">
      <g id="Group_8014" data-name="Group 8014" transform="translate(0 0)">
        <path id="Path_18867" data-name="Path 18867" d="M77.988,16.746l-1.7-3.394a2.806,2.806,0,0,0-3.84-1.215l-8.238,4.436a.4.4,0,1,0,.38.705l8.24-4.435a2,2,0,0,1,2.742.867l1.7,3.394a.4.4,0,0,0,.717-.359Z" transform="translate(-64.002 -11.8)" fill="#666"/>
      </g>
    </g>
    <g id="Group_8017" data-name="Group 8017" transform="translate(8.073 13.319)">
      <g id="Group_8016" data-name="Group 8016" transform="translate(0 0)">
        <path id="Path_18868" data-name="Path 18868" d="M221.56,52.422a.4.4,0,0,0-.544-.164l-5.955,3.206a.4.4,0,0,0,.19.754.409.409,0,0,0,.191-.047l5.955-3.206A.4.4,0,0,0,221.56,52.422Z" transform="translate(-214.85 -52.211)" fill="#666"/>
      </g>
    </g>
    <g id="Group_8019" data-name="Group 8019" transform="translate(0 14.12)">
      <g id="Group_8018" data-name="Group 8018">
        <path id="Path_18869" data-name="Path 18869" d="M7.215,73.533H4.409A4.414,4.414,0,0,0,0,77.942v.8a.4.4,0,0,0,.8,0v-.8a3.612,3.612,0,0,1,3.607-3.607H7.215a.4.4,0,1,0,0-.8Z" transform="translate(0 -73.533)" fill="#666"/>
      </g>
    </g>
    <g id="Group_8021" data-name="Group 8021" transform="translate(14.429 14.12)">
      <g id="Group_8020" data-name="Group 8020">
        <path id="Path_18870" data-name="Path 18870" d="M384.4,73.533a.4.4,0,0,0,0,.8,3.612,3.612,0,0,1,3.607,3.607v.8a.4.4,0,0,0,.8,0v-.8A4.414,4.414,0,0,0,384.4,73.533Z" transform="translate(-384 -73.533)" fill="#666"/>
      </g>
    </g>
  </g>
</svg>
