<svg xmlns="http://www.w3.org/2000/svg" width="88.912" height="101.974" viewBox="0 0 88.912 101.974">
  <g id="woman-silhouette" transform="translate(-30.855)" opacity="0.23">
    <g id="Layer_2_25_" transform="translate(30.855)">
      <path id="Path_6104" data-name="Path 6104" d="M103.238,68.333c-12.792-4.611-16.88-2.288-16.88-10.62,0-.4.025-1.145.072-1.91h.626c8.742.638,17.165,1.247,19.039-.064,2.994-2.091-7.368-5.314-7.368-32.368C98.726,9.7,89.717,0,76.047,0c-.116,0-.23.007-.345.009l-.1,0V0c-.051,0-.1,0-.154,0h-.28c-.051,0-.1,0-.154,0v0l-.1,0c-.115,0-.229-.009-.345-.009C60.906,0,51.9,9.7,51.9,23.371c0,27.054-10.361,30.277-7.368,32.368,1.875,1.31,10.3.7,19.039.064h.626c.047.765.072,1.513.072,1.91,0,8.332-4.088,6.009-16.88,10.62C34.554,72.96,30.855,77.678,30.855,80.9v21.078h88.912V80.9C119.768,77.679,116.069,72.961,103.238,68.333Z" transform="translate(-30.855)"/>
    </g>
  </g>
</svg>
