<svg xmlns="http://www.w3.org/2000/svg" width="20.81" height="16.782" viewBox="0 0 20.81 16.782">
  <path id="box" d="M28.732,62.494l-2.014-2.35a.329.329,0,0,0-.1-.081h0l-8.056-4.028a.338.338,0,0,0-.3,0L10.2,60.063h0a.329.329,0,0,0-.1.081l-2.014,2.35a.336.336,0,0,0,.1.519l1.828.914v4.492a.336.336,0,0,0,.185.3l8.056,4.028a.338.338,0,0,0,.3,0l8.056-4.028a.336.336,0,0,0,.185-.3V63.927l1.828-.914a.336.336,0,0,0,.1-.519Zm-19.859.111,1.564-1.824L17.873,64.5,16.31,66.323Zm9.2,9.3-7.384-3.692V64.263l5.556,2.778a.336.336,0,0,0,.4-.082L18.072,65.3Zm.336-7.888-7.3-3.653,7.3-3.653,7.3,3.653Zm7.72,4.2L18.744,71.9V65.3l1.424,1.661a.336.336,0,0,0,.4.082l5.556-2.778Zm-5.622-1.888L18.942,64.5l7.437-3.718,1.564,1.824Z" transform="translate(-8.003 -56)" fill="#313131"/>
</svg>
