<svg id="employees" xmlns="http://www.w3.org/2000/svg" width="16.317" height="14.273" viewBox="0 0 16.317 14.273">
  <g id="Group_5795" data-name="Group 5795" transform="translate(8.907 10.505)">
    <g id="Group_5794" data-name="Group 5794" transform="translate(0 0)">
      <path id="Path_4819" data-name="Path 4819" d="M280.612,361.686h-.894a.239.239,0,0,0,0,.478h.894a.239.239,0,0,0,0-.478Z" transform="translate(-279.479 -361.686)" fill="#313131"/>
    </g>
  </g>
  <g id="Group_5797" data-name="Group 5797" transform="translate(7.034 0)">
    <g id="Group_5796" data-name="Group 5796" transform="translate(0 0)">
      <path id="Path_4820" data-name="Path 4820" d="M229,40.012l-1.3-.5-.664-.664a.238.238,0,0,0-.154-.069v-.528a2.465,2.465,0,0,0,.625-1.232.684.684,0,0,0,.168-.013.707.707,0,0,0,.549-.7v-.174a.716.716,0,0,0-.211-.508,3.157,3.157,0,0,0-.5-2.71,2.891,2.891,0,0,0-2.443-.837,3.2,3.2,0,0,0-1.836.677,1.259,1.259,0,0,0-.492.167,1.272,1.272,0,0,0-.582,1.183,5.968,5.968,0,0,0,.166,1.388.708.708,0,0,0-.389.641V36.3a.707.707,0,0,0,.549.7.683.683,0,0,0,.168.013,2.465,2.465,0,0,0,.625,1.232v.528a.238.238,0,0,0-.154.069l-.664.664-1.3.5a1.582,1.582,0,0,0-.32.167.239.239,0,1,0,.269.4,1.106,1.106,0,0,1,.223-.117l1.208-.466.924,1.385a.684.684,0,0,0,.5.3c.023,0,.046,0,.068,0a.682.682,0,0,0,.336-.089l-.2,4.5a.239.239,0,0,0,.228.249h.011a.239.239,0,0,0,.239-.228l.184-4.173h.5l.184,4.173a.239.239,0,0,0,.239.228h.011a.239.239,0,0,0,.228-.249l-.2-4.5a.682.682,0,0,0,.336.089q.034,0,.068,0a.684.684,0,0,0,.5-.3l.924-1.385,1.208.466a1.1,1.1,0,0,1,.43.3l-.826.826a1.57,1.57,0,0,0-.463,1.118v3.4a.239.239,0,1,0,.478,0V42.7a1.1,1.1,0,0,1,.323-.78l.725-.725a1.1,1.1,0,0,1,.038.334l-.185,4.56a.239.239,0,0,0,.229.249h.01a.239.239,0,0,0,.239-.229l.185-4.56A1.58,1.58,0,0,0,229,40.012Zm-5.885-3.093a.465.465,0,0,0-.484-.379.205.205,0,0,1-.056,0,.232.232,0,0,1-.167-.233v-.172a.227.227,0,0,1,.169-.227.208.208,0,0,1,.2.078.333.333,0,0,0,.458.072,1.735,1.735,0,0,0,.392-.383.239.239,0,1,0-.384-.285,1.268,1.268,0,0,1-.186.2.684.684,0,0,0-.259-.138,5.5,5.5,0,0,1-.171-1.347.837.837,0,0,1,.335-.764.776.776,0,0,1,.357-.115.241.241,0,0,0,.165-.066,2.693,2.693,0,0,1,1.6-.605,2.44,2.44,0,0,1,2.056.673,2.64,2.64,0,0,1,.415,2.2,1.036,1.036,0,0,0-.2.014l-.225-.539a.239.239,0,0,0-.281-.139c-.022.006-2.229.565-3.155-.587a.239.239,0,0,0-.373.3c.945,1.177,2.82.921,3.445.8l.174.417a.393.393,0,0,0,.454.233.516.516,0,0,1,.179-.013.225.225,0,0,1,.17.224V36.3a.232.232,0,0,1-.167.233.2.2,0,0,1-.056,0,.466.466,0,0,0-.484.379,1.995,1.995,0,0,1-3.923,0Zm1.06,4.225a.208.208,0,0,1-.32-.032l-.93-1.4.374-.374,1.428,1.25Zm.674.316.014-.329.213-.213.213.213.014.329Zm.227-1.2L223.75,39.1v-.457a2.474,2.474,0,0,0,2.653,0V39.1Zm1.222.849a.208.208,0,0,1-.32.032l-.552-.552,1.428-1.25.374.374Z" transform="translate(-220.729 -32.066)" fill="#313131"/>
    </g>
  </g>
  <g id="Group_5799" data-name="Group 5799" transform="translate(0 0)">
    <g id="Group_5798" data-name="Group 5798" transform="translate(0 0)">
      <path id="Path_4821" data-name="Path 4821" d="M7.58,41.262l-1.167-.509-.638-.638a.238.238,0,0,0-.154-.069v-.376a2.469,2.469,0,0,0,1.072-1.607.687.687,0,0,0,.189-.018.711.711,0,0,0,.528-.7v-.174a.713.713,0,0,0-.306-.588,2.7,2.7,0,0,0,.083-.662,2.787,2.787,0,0,0-1.342-2.363,1.55,1.55,0,0,0-1.58-1.5,1.55,1.55,0,0,0-1.58,1.5,2.787,2.787,0,0,0-1.342,2.363,2.7,2.7,0,0,0,.082.66.714.714,0,0,0-.306.592v.172a.711.711,0,0,0,.528.7.685.685,0,0,0,.189.018,2.469,2.469,0,0,0,1.072,1.607v.376a.238.238,0,0,0-.154.069l-.638.638-1.167.509A1.591,1.591,0,0,0,0,42.777l.141,3.33a.239.239,0,0,0,.239.229h.01a.239.239,0,0,0,.229-.249l-.141-3.33a1.1,1.1,0,0,1,.152-.6l.627.753a1.329,1.329,0,0,1,.307.849V46.1a.239.239,0,0,0,.478,0v-2.34A1.808,1.808,0,0,0,1.625,42.6l-.667-.8a1.084,1.084,0,0,1,.181-.1l1.017-.444.719,1.167a.463.463,0,0,0,.694.109l.455-.389V46.1a.239.239,0,1,0,.478,0V42.143l.455.389a.463.463,0,0,0,.694-.109l.719-1.167,1.017.444a1.085,1.085,0,0,1,.181.1l-.667.8a1.808,1.808,0,0,0-.418,1.155V46.1a.239.239,0,1,0,.478,0v-2.34a1.329,1.329,0,0,1,.307-.849l.627-.753a1.1,1.1,0,0,1,.152.6l-.141,3.33a.239.239,0,0,0,.229.249h.01a.239.239,0,0,0,.239-.229l.141-3.33A1.591,1.591,0,0,0,7.58,41.262Zm-3.316-8.72a1.1,1.1,0,0,1,1.064.764,3.031,3.031,0,0,0-2.129,0A1.1,1.1,0,0,1,4.264,32.541ZM2.3,37.963a.466.466,0,0,0-.484-.379.206.206,0,0,1-.062-.005.233.233,0,0,1-.16-.232v-.172a.227.227,0,0,1,.169-.227.208.208,0,0,1,.2.078.333.333,0,0,0,.458.072,1.734,1.734,0,0,0,.387-.376.239.239,0,0,0-.382-.287,1.267,1.267,0,0,1-.182.2.685.685,0,0,0-.361-.159,2.226,2.226,0,0,1-.069-.549A2.393,2.393,0,0,1,4.264,33.59a2.393,2.393,0,0,1,2.444,2.333,2.225,2.225,0,0,1-.069.548,1.1,1.1,0,0,0-.186.031l-.18-.148a.459.459,0,0,0-.319-.1,3.976,3.976,0,0,1-3.074-1.037.239.239,0,1,0-.367.307,3.416,3.416,0,0,0,1.985,1.1,5.85,5.85,0,0,0,1.476.113l.28.231a.239.239,0,0,0,.272.022.527.527,0,0,1,.236-.031.225.225,0,0,1,.17.224v.174a.233.233,0,0,1-.16.232.2.2,0,0,1-.062.005.466.466,0,0,0-.484.379,1.995,1.995,0,0,1-3.923,0Zm.971,4.193-.719-1.167.368-.368.99.99Zm.991-.87-.879-.879v-.494a2.471,2.471,0,0,0,1.758,0v.494Zm.991.87-.639-.545.99-.99.368.368Z" transform="translate(0 -32.063)" fill="#313131"/>
    </g>
  </g>
  <g id="Group_5801" data-name="Group 5801" transform="translate(2.46 11.559)">
    <g id="Group_5800" data-name="Group 5800" transform="translate(0 0)">
      <path id="Path_4822" data-name="Path 4822" d="M78.094,394.766h-.671a.239.239,0,0,0,0,.478h.671a.239.239,0,0,0,0-.478Z" transform="translate(-77.184 -394.766)" fill="#313131"/>
    </g>
  </g>
</svg>
