<svg id="GROUP" xmlns="http://www.w3.org/2000/svg" width="19.687" height="12.5" viewBox="0 0 19.687 12.5">
  <g id="Group_4" data-name="Group 4" transform="translate(0 0)">
    <path id="Path_1" data-name="Path 1" d="M17.027,97.75a2.248,2.248,0,1,0-2.579,0,3.894,3.894,0,0,0-1.328.779,5.039,5.039,0,0,0-1.823-.993,2.847,2.847,0,1,0-2.945,0,5.081,5.081,0,0,0-1.8.982,3.926,3.926,0,0,0-1.313-.763,2.248,2.248,0,1,0-2.579,0A3.945,3.945,0,0,0,0,101.482v.257a.017.017,0,0,0,.016.016H4.78a5.239,5.239,0,0,0-.043.658v.265a2.071,2.071,0,0,0,2.072,2.072h6.038a2.071,2.071,0,0,0,2.072-2.072v-.265a5.239,5.239,0,0,0-.043-.658h4.8a.017.017,0,0,0,.016-.016v-.257A3.96,3.96,0,0,0,17.027,97.75Zm-2.914-1.842a1.624,1.624,0,1,1,1.656,1.624h-.062A1.622,1.622,0,0,1,14.113,95.908ZM7.592,95.1a2.224,2.224,0,1,1,2.353,2.22H9.688A2.227,2.227,0,0,1,7.592,95.1Zm-5.282.81a1.624,1.624,0,1,1,1.656,1.624H3.9A1.625,1.625,0,0,1,2.31,95.908Zm2.579,5.22H.631a3.328,3.328,0,0,1,3.28-2.972h.047a3.294,3.294,0,0,1,2.123.791A5.115,5.115,0,0,0,4.889,101.127Zm9.4,1.55a1.451,1.451,0,0,1-1.449,1.449H6.8a1.451,1.451,0,0,1-1.449-1.449v-.265a4.475,4.475,0,0,1,4.336-4.468c.043,0,.09,0,.132,0s.09,0,.132,0a4.475,4.475,0,0,1,4.336,4.468Zm.464-1.55a5.1,5.1,0,0,0-1.18-2.166,3.31,3.31,0,0,1,2.142-.806h.047a3.328,3.328,0,0,1,3.28,2.972Z" transform="translate(0 -92.25)" fill="#313131"/>
  </g>
</svg>
