<svg xmlns="http://www.w3.org/2000/svg" width="16.86" height="16.862" viewBox="0 0 16.86 16.862">
  <path id="home" d="M16.907,7.333h0L10.028.454a1.552,1.552,0,0,0-2.2,0L.958,7.329l-.007.007A1.552,1.552,0,0,0,1.984,9.98l.048,0h.274v5.062a1.819,1.819,0,0,0,1.817,1.817H6.813a.494.494,0,0,0,.494-.494V12.4a.83.83,0,0,1,.829-.829H9.724a.83.83,0,0,1,.829.829v3.968a.494.494,0,0,0,.494.494h2.691a1.819,1.819,0,0,0,1.817-1.817V9.983h.254a1.553,1.553,0,0,0,1.1-2.649Zm-.7,1.5a.561.561,0,0,1-.4.165H15.06a.494.494,0,0,0-.494.494v5.556a.83.83,0,0,1-.829.829h-2.2V12.4a1.819,1.819,0,0,0-1.817-1.817H8.136A1.819,1.819,0,0,0,6.319,12.4v3.474h-2.2a.83.83,0,0,1-.829-.829V9.489A.494.494,0,0,0,2.8,8.995H2.041a.564.564,0,0,1-.389-.963h0L8.531,1.153a.564.564,0,0,1,.8,0l6.876,6.876,0,0a.566.566,0,0,1,0,.8Zm0,0" transform="translate(-0.5 0.001)" fill="#313131"/>
</svg>
