<svg id="NOTICE" xmlns="http://www.w3.org/2000/svg" width="11.065" height="15.089" viewBox="0 0 11.065 15.089">
  <g id="Group_5763" data-name="Group 5763">
    <g id="Group_5762" data-name="Group 5762" transform="translate(0)">
      <path id="Path_4801" data-name="Path 4801" d="M75.063,2.766a.251.251,0,0,0-.071-.178L72.477.074A.248.248,0,0,0,72.3,0V0H64.754A.754.754,0,0,0,64,.754v13.58a.754.754,0,0,0,.754.754h9.556a.754.754,0,0,0,.754-.754V2.766ZM72.55.859l1.656,1.656H72.8a.251.251,0,0,1-.251-.251Zm2.012,13.476a.251.251,0,0,1-.251.251H64.754a.251.251,0,0,1-.251-.251V.754A.251.251,0,0,1,64.754.5h7.293v1.76a.754.754,0,0,0,.754.754h1.76Z" transform="translate(-64)" fill="#313131"/>
    </g>
  </g>
  <g id="Group_5765" data-name="Group 5765" transform="translate(1.76 6.79)">
    <g id="Group_5764" data-name="Group 5764" transform="translate(0)">
      <path id="Path_4802" data-name="Path 4802" d="M120.754,216a.754.754,0,1,0,.754.754A.754.754,0,0,0,120.754,216Zm0,1.006a.251.251,0,1,1,.251-.251A.251.251,0,0,1,120.754,217.006Z" transform="translate(-120 -216)" fill="#313131"/>
    </g>
  </g>
  <g id="Group_5767" data-name="Group 5767" transform="translate(3.926 7.139)">
    <g id="Group_5766" data-name="Group 5766" transform="translate(0 0)">
      <rect id="Rectangle_3102" data-name="Rectangle 3102" width="5.192" height="0.649" fill="#313131"/>
    </g>
  </g>
  <g id="Group_5769" data-name="Group 5769" transform="translate(1.76 4.275)">
    <g id="Group_5768" data-name="Group 5768" transform="translate(0)">
      <path id="Path_4803" data-name="Path 4803" d="M120.754,136a.754.754,0,1,0,.754.754A.754.754,0,0,0,120.754,136Zm0,1.006a.251.251,0,1,1,.251-.251A.251.251,0,0,1,120.754,137.006Z" transform="translate(-120 -136)" fill="#313131"/>
    </g>
  </g>
  <g id="Group_5771" data-name="Group 5771" transform="translate(3.926 4.543)">
    <g id="Group_5770" data-name="Group 5770" transform="translate(0 0)">
      <rect id="Rectangle_3103" data-name="Rectangle 3103" width="5.192" height="0.649" fill="#313131"/>
    </g>
  </g>
  <g id="Group_5773" data-name="Group 5773" transform="translate(1.76 9.305)">
    <g id="Group_5772" data-name="Group 5772" transform="translate(0)">
      <path id="Path_4804" data-name="Path 4804" d="M120.754,296a.754.754,0,1,0,.754.754A.754.754,0,0,0,120.754,296Zm0,1.006a.251.251,0,1,1,.251-.252A.251.251,0,0,1,120.754,297.006Z" transform="translate(-120 -296)" fill="#313131"/>
    </g>
  </g>
  <g id="Group_5775" data-name="Group 5775" transform="translate(3.926 9.735)">
    <g id="Group_5774" data-name="Group 5774" transform="translate(0 0)">
      <rect id="Rectangle_3104" data-name="Rectangle 3104" width="5.192" height="0.649" transform="translate(0 0)" fill="#313131"/>
    </g>
  </g>
  <g id="Group_5777" data-name="Group 5777" transform="translate(1.76 11.819)">
    <g id="Group_5776" data-name="Group 5776" transform="translate(0)">
      <path id="Path_4805" data-name="Path 4805" d="M120.754,376a.754.754,0,1,0,.754.754A.754.754,0,0,0,120.754,376Zm0,1.006a.251.251,0,1,1,.251-.252A.252.252,0,0,1,120.754,377.006Z" transform="translate(-120 -376)" fill="#313131"/>
    </g>
  </g>
  <g id="Group_5779" data-name="Group 5779" transform="translate(3.926 12.331)">
    <g id="Group_5778" data-name="Group 5778" transform="translate(0 0)">
      <rect id="Rectangle_3105" data-name="Rectangle 3105" width="5.192" height="0.649" transform="translate(0 0)" fill="#313131"/>
    </g>
  </g>
</svg>
