<svg xmlns="http://www.w3.org/2000/svg" width="17.296" height="14.602" viewBox="0 0 17.296 14.602">
  <path id="review" d="M11.689,3.091a2.686,2.686,0,0,1-5.37,0,2.686,2.686,0,0,1,5.37,0Zm.342,0A2.994,2.994,0,0,1,9.007,6.052a7.492,7.492,0,0,1,2.919.627,6.573,6.573,0,0,1,2.017,1.375,6.788,6.788,0,0,1,1.926,3.573.136.136,0,0,0,.074.022H17.57a.137.137,0,0,1,.08.247l-.08.058-.044.032-.006,0-1.186.861a.137.137,0,0,0-.05.153l.453,1.394,0,.007.017.051.031.094a.137.137,0,0,1-.21.153l-.08-.058-.044-.032-.006,0-1.186-.861a.137.137,0,0,0-.161,0l-1.186.861-.006,0-.044.032-.08.058a.137.137,0,0,1-.21-.153l.031-.094.017-.051,0-.007.453-1.394a.137.137,0,0,0-.016-.118H10.67l.226.695,0,.007.017.051.031.094a.137.137,0,0,1-.21.153l-.08-.058L10.61,13.8l-.006,0L9,12.629a.137.137,0,0,0-.161,0l-1.6,1.164-.006,0-.044.032-.08.058a.137.137,0,0,1-.21-.153l.031-.094.017-.051,0-.007.226-.695H3.757L4.152,14.1l0,.007.017.051.031.094a.137.137,0,0,1-.21.153l-.08-.058-.044-.032-.006,0-1.055-.767a.137.137,0,0,0-.161,0l-1.055.767-.006,0-.044.032-.08.058a.137.137,0,0,1-.21-.153l.031-.094.017-.051,0-.007.4-1.241a.137.137,0,0,0-.05-.153L.6,11.941l-.006,0-.044-.032-.08-.058a.137.137,0,0,1,.08-.247H2.013a.137.137,0,0,0,.13-.094l.267-.823H2.392q.06-.172.13-.342l.025-.076,0-.007.017-.051.031-.094a.134.134,0,0,1,.059-.075A6.833,6.833,0,0,1,4.064,8.054,7.065,7.065,0,0,1,9,6.052,2.994,2.994,0,0,1,5.977,3.091a3.027,3.027,0,0,1,6.053,0Zm-9.116,7.2.394,1.214a.137.137,0,0,0,.13.094H4.9a.137.137,0,0,1,.08.247l-.08.058-.044.032-.006,0-.831.6H7.286l.275-.847a.137.137,0,0,0-.05-.153l-1.6-1.164-.006,0-.044-.032-.08-.058a.137.137,0,0,1,.08-.247H8a.137.137,0,0,0,.13-.094l.612-1.883,0-.007L8.761,8l.031-.094a.137.137,0,0,1,.26,0L9.083,8l.017.051,0,.007.612,1.883a.137.137,0,0,0,.13.094h2.141a.137.137,0,0,1,.08.247l-.08.058-.044.032-.006,0-1.6,1.164a.137.137,0,0,0-.05.153l.275.847H13.6l-.763-.554-.006,0-.044-.032-.08-.058a.137.137,0,0,1,.08-.247h1.626a.137.137,0,0,0,.13-.094L15,10.161l0-.007.011-.033A6.493,6.493,0,0,0,13.7,8.3a6.753,6.753,0,0,0-9.4,0A6.487,6.487,0,0,0,2.914,10.291ZM8.922,8.616l-.466,1.436A.479.479,0,0,1,8,10.382H6.491l1.221.887a.479.479,0,0,1,.174.535L7.419,13.24l1.221-.887a.479.479,0,0,1,.563,0l1.221.887L9.958,11.8a.479.479,0,0,1,.174-.535l1.221-.887H9.844a.479.479,0,0,1-.455-.331Zm5.951,3.045.307-.946.307.946a.479.479,0,0,0,.455.331h.995l-.8.585a.479.479,0,0,0-.174.535l.307.946-.8-.585a.479.479,0,0,0-.563,0l-.8.585.307-.946a.479.479,0,0,0-.174-.535l-.8-.585h.995A.479.479,0,0,0,14.873,11.661Zm-12.406-.05.258-.793.258.793a.479.479,0,0,0,.455.331h.834l-.675.49a.479.479,0,0,0-.174.535l.258.793-.675-.49a.479.479,0,0,0-.563,0l-.675.49.258-.793a.479.479,0,0,0-.174-.535l-.675-.49h.834A.479.479,0,0,0,2.468,11.611Z" transform="translate(-0.41 -0.13)" fill="#313131" fill-rule="evenodd"/>
</svg>
