<svg id="save-money" xmlns="http://www.w3.org/2000/svg" width="17.296" height="19.632" viewBox="0 0 17.296 19.632">
  <path id="Path_4813" data-name="Path 4813" d="M187.44,151.8a.307.307,0,0,0-.11,0,.732.732,0,0,1-.648-.726.322.322,0,1,0-.644,0,1.378,1.378,0,0,0,1.013,1.326v.322a.322.322,0,1,0,.644,0v-.3a1.375,1.375,0,0,0-.282-2.721.731.731,0,1,1,.731-.731.322.322,0,1,0,.644,0,1.378,1.378,0,0,0-1.093-1.346v-.293a.322.322,0,1,0-.644,0v.313a1.375,1.375,0,0,0,.362,2.7.731.731,0,0,1,.027,1.461Zm0,0" transform="translate(-178.564 -141.083)" fill="#313131"/>
  <path id="Path_4814" data-name="Path 4814" d="M104.2,111.162a4.67,4.67,0,1,0,4.67-4.67A4.67,4.67,0,0,0,104.2,111.162Zm4.67-4.026a4.026,4.026,0,1,1-4.026,4.026A4.026,4.026,0,0,1,108.865,107.136Zm0,0" transform="translate(-100.015 -102.205)" fill="#313131"/>
  <path id="Path_4815" data-name="Path 4815" d="M15.466,327.639l-2.523,1.192a2.055,2.055,0,0,0-1.752-1.081l-2.329-.064a2.458,2.458,0,0,1-1.058-.273l-.237-.123a4.179,4.179,0,0,0-3.871,0l.015-.537a.322.322,0,0,0-.313-.331l-2.554-.07a.322.322,0,0,0-.331.313l-.154,5.6a.322.322,0,0,0,.313.331l2.554.07h.009a.322.322,0,0,0,.322-.313l.007-.268.663-.355a1.138,1.138,0,0,1,.849-.093l3.961,1.112.021.005a4.245,4.245,0,0,0,.871.09,4.3,4.3,0,0,0,1.795-.392.3.3,0,0,0,.04-.022l5.744-3.715a.322.322,0,0,0,.106-.429,1.627,1.627,0,0,0-2.148-.654Zm-14.454,4.33.136-4.96,1.91.052-.136,4.96Zm10.422-.084a3.652,3.652,0,0,1-2.233.249l-3.951-1.109a1.78,1.78,0,0,0-1.327.145l-.339.182.091-3.3a3.54,3.54,0,0,1,3.6-.192l.237.123a3.111,3.111,0,0,0,1.337.345l2.329.064a1.413,1.413,0,0,1,1.342,1.126l-3.469-.1a.322.322,0,0,0-.018.644l3.828.105h.009a.322.322,0,0,0,.322-.313,2.044,2.044,0,0,0-.031-.418l2.587-1.223.008,0a.984.984,0,0,1,1.113.156Zm0,0" transform="translate(-0.36 -313.219)" fill="#313131"/>
  <path id="Path_4816" data-name="Path 4816" d="M212.847,3.381V.322a.322.322,0,1,0-.644,0V3.381a.322.322,0,1,0,.644,0Zm0,0" transform="translate(-203.676)" fill="#313131"/>
  <path id="Path_4817" data-name="Path 4817" d="M272.847,41.771V40.322a.322.322,0,0,0-.644,0v1.449a.322.322,0,0,0,.644,0Zm0,0" transform="translate(-261.261 -38.39)" fill="#313131"/>
  <path id="Path_4818" data-name="Path 4818" d="M152.847,41.771V40.322a.322.322,0,1,0-.644,0v1.449a.322.322,0,1,0,.644,0Zm0,0" transform="translate(-146.091 -38.39)" fill="#313131"/>
</svg>
