<svg xmlns="http://www.w3.org/2000/svg" width="19.309" height="19.647" viewBox="0 0 19.309 19.647">
  <path id="SERVICE" d="M15.485,1.94l-.735.675a.449.449,0,0,1-.614-.006l-.7-.671a.45.45,0,0,1-.139-.325V0a2.736,2.736,0,0,0-1.375,3.47.765.765,0,0,0-.711-.405l-1.027.028a.037.037,0,0,1-.036-.05l.344-.968a.787.787,0,0,0-1.221-.887l-.814.627A.037.037,0,0,1,8.394,1.8L8.1.81a.787.787,0,0,0-1.509,0L6.3,1.8a.037.037,0,0,1-.059.019l-.814-.627a.787.787,0,0,0-1.221.887l.344.968a.037.037,0,0,1-.036.05L3.491,3.065A.787.787,0,0,0,3.025,4.5l.848.581a.037.037,0,0,1,0,.062l-.848.581a.765.765,0,0,0-.338.733H1.826a.187.187,0,0,0-.187.194l.016.446L.2,10.015a.187.187,0,0,0,.168.271H1.768l.3,8.561a.187.187,0,0,0,.173.18l8.115.619a.187.187,0,0,0,.2-.187v-.024l7.306-3.685a.187.187,0,0,0,.1-.177l-.285-5.288H19.3a.187.187,0,0,0,.155-.292L17.514,7.135l-.027-.5a.187.187,0,0,0-.187-.177H16.037V4.7A2.735,2.735,0,0,0,15.63,0V1.609A.449.449,0,0,1,15.485,1.94Zm.178,4.516V4.926c-.055.027.057-.023,0,0v-.41c.058-.028-.055.017,0-.015h.076l.069-.093A2.359,2.359,0,0,0,16,.688v.921a.824.824,0,0,1-.266.607L15,2.891a.824.824,0,0,1-1.126-.01l-.7-.671a.824.824,0,0,1-.256-.6V.688a2.359,2.359,0,0,0,.2,3.72l.177.109.077.046c.051.027-.053-.062,0-.039v.4c-.053-.019.051.073,0,.051V6.456ZM13,6.456V4.777a2.744,2.744,0,0,1-1.018-1.166.771.771,0,0,1-.3.888l-.848.581a.037.037,0,0,0,0,.062l.848.581a.765.765,0,0,1,.338.733Zm-1.534-.424a.4.4,0,0,1,.171.424H8.322a1.659,1.659,0,1,0-1.945,0H3.066a.4.4,0,0,1,.171-.424l.848-.581a.412.412,0,0,0,0-.68l-.848-.581a.412.412,0,0,1,.244-.752l1.027.028a.412.412,0,0,0,.4-.55L4.563,1.95A.412.412,0,0,1,5.2,1.485l.814.627a.412.412,0,0,0,.647-.21l.29-.986a.412.412,0,0,1,.79,0l.29.986a.412.412,0,0,0,.647.21L9.5,1.485a.412.412,0,0,1,.639.465l-.344.968a.412.412,0,0,0,.4.55l1.027-.028a.412.412,0,0,1,.244.752l-.848.581a.412.412,0,0,0,0,.68ZM7.349,6.4A1.285,1.285,0,1,0,6.064,5.112,1.285,1.285,0,0,0,7.349,6.4ZM2.44,18.666l-.3-8.38H8.43a.187.187,0,0,0,.164-.1l1.468-2.63V19.248ZM17.664,9.911h1.279L17.553,7.86Zm-.518-2.652.143,2.652H11.424l-.863-2.184V7.171h6.525ZM10.561,8.746l.562,1.421a.187.187,0,0,0,.174.118h6.012l.28,5.186-7.028,3.545ZM8.32,9.911H2.129l-.1-2.733,0-.007H9.85Zm-6.566,0L1.683,7.878.666,9.911Z" transform="translate(-0.175)" fill="#313131" fill-rule="evenodd"/>
</svg>
