<svg xmlns="http://www.w3.org/2000/svg" width="18.943" height="17.91" viewBox="0 0 18.943 17.91">
  <path id="user_profile" data-name="user profile" d="M12.82,4.157a3.295,3.295,0,0,1-6.587,0,3.295,3.295,0,0,1,6.587,0Zm.956,0A4.2,4.2,0,0,1,9.528,8.315a9.918,9.918,0,0,1,6.933,2.81A9.558,9.558,0,0,1,18.9,15.087a2.3,2.3,0,0,1-2.433,2.823H2.586A2.3,2.3,0,0,1,.153,15.087a9.558,9.558,0,0,1,2.438-3.962,9.918,9.918,0,0,1,6.932-2.81A4.2,4.2,0,0,1,5.277,4.157a4.25,4.25,0,0,1,8.5,0Zm2.017,7.651a8.6,8.6,0,0,1,2.2,3.565,1.029,1.029,0,0,1-.24,1.048,1.743,1.743,0,0,1-1.281.532H2.586A1.743,1.743,0,0,1,1.3,16.422a1.029,1.029,0,0,1-.24-1.048,8.6,8.6,0,0,1,2.2-3.565,9.005,9.005,0,0,1,12.533,0Z" transform="translate(-0.055)" fill="#313131" fill-rule="evenodd"/>
</svg>
