<svg xmlns="http://www.w3.org/2000/svg" width="28.656" height="26.705" viewBox="0 0 28.656 26.705">
  <g id="box_2_" data-name="box (2)" transform="translate(-9 -25.634)">
    <path id="Path_2273" data-name="Path 2273" d="M35.911,37.141H34.466A1.423,1.423,0,0,0,33.108,36.1H31.565V32.325a.4.4,0,0,0-.194-.352L20.49,25.688a.4.4,0,0,0-.4,0L9.2,31.973a.4.4,0,0,0-.2.352v12.57a.406.406,0,0,0,.2.352l10.886,6.285a.406.406,0,0,0,.2.054.427.427,0,0,0,.209-.054l5.728-3.3v2.388a1.719,1.719,0,0,0,1.734,1.724h7.949a1.729,1.729,0,0,0,1.745-1.724V38.892A1.752,1.752,0,0,0,35.911,37.141Zm-2.789-.232a.589.589,0,0,1,.589.589v.039a.589.589,0,0,1-.589.589h-2.36a.589.589,0,0,1-.589-.589V37.5a.589.589,0,0,1,.589-.589Zm-12.831-10.4,4.523,2.611L14.742,34.936l-4.523-2.611Zm-.386,23.967L9.812,44.66V33.027l10.093,5.816Zm.386-12.336L15.554,35.4l10.073-5.815,4.738,2.735Zm5.937.752v8.4l-5.511,3.187V38.843l10.035-5.816V36.1h.013a1.423,1.423,0,0,0-1.358,1.044H27.962A1.742,1.742,0,0,0,26.228,38.892ZM36.844,50.615a.916.916,0,0,1-.933.912H27.962a.907.907,0,0,1-.922-.912V38.892a.929.929,0,0,1,.922-.939h1.461a1.389,1.389,0,0,0,1.343.986h2.342a1.389,1.389,0,0,0,1.342-.986h1.461a.939.939,0,0,1,.933.939Z" transform="translate(0 0)" fill="#666"/>
    <path id="Path_2274" data-name="Path 2274" d="M337.4,280.726h.425a.406.406,0,1,0,0-.812h-.016v-1.1h1.12a.391.391,0,0,0,.386.274.407.407,0,0,0,.408-.405v-.273a.411.411,0,0,0-.41-.408H337.4a.405.405,0,0,0-.4.408v1.913a.4.4,0,0,0,.4.406Z" transform="translate(-308.973 -237.727)" fill="#666"/>
    <path id="Path_2275" data-name="Path 2275" d="M337.406,344.726h1.914a.406.406,0,0,0,.406-.406v-1.914a.406.406,0,0,0-.406-.406h-1.914a.406.406,0,0,0-.406.406v1.914A.406.406,0,0,0,337.406,344.726Zm.406-1.914h1.1v1.1h-1.1Z" transform="translate(-308.973 -298.014)" fill="#666"/>
    <path id="Path_2276" data-name="Path 2276" d="M337.828,407.914h-.016v-1.1h1.1a.408.408,0,1,0,.816,0v-.391a.423.423,0,0,0-.41-.422H337.4a.417.417,0,0,0-.4.422v1.913a.392.392,0,0,0,.4.392h.425a.406.406,0,1,0,0-.812Z" transform="translate(-308.973 -358.302)" fill="#666"/>
    <path id="Path_2277" data-name="Path 2277" d="M356.6,284.658l-1.189,1.189-.362-.362a.406.406,0,1,0-.574.574l.649.649a.406.406,0,0,0,.574,0l1.476-1.476a.406.406,0,1,0-.574-.574Z" transform="translate(-325.321 -243.886)" fill="#666"/>
    <path id="Path_2278" data-name="Path 2278" d="M356.6,413.907,355.41,415.1l-.362-.362a.406.406,0,0,0-.574.574l.649.649a.406.406,0,0,0,.574,0l1.476-1.476a.406.406,0,1,0-.574-.574Z" transform="translate(-325.321 -365.638)" fill="#666"/>
    <path id="Path_2279" data-name="Path 2279" d="M416.847,295H414.3a.406.406,0,1,0,0,.812h2.55a.406.406,0,1,0,0-.812Z" transform="translate(-381.404 -253.741)" fill="#666"/>
    <path id="Path_2280" data-name="Path 2280" d="M416.847,359H414.3a.406.406,0,1,0,0,.812h2.55a.406.406,0,1,0,0-.812Z" transform="translate(-381.404 -314.028)" fill="#666"/>
    <path id="Path_2281" data-name="Path 2281" d="M416.847,423H414.3a.406.406,0,1,0,0,.812h2.55a.406.406,0,1,0,0-.812Z" transform="translate(-381.404 -374.316)" fill="#666"/>
  </g>
</svg>
