<svg xmlns="http://www.w3.org/2000/svg" width="32.656" height="32.656" viewBox="0 0 32.656 32.656">
  <g id="car_service-car_repair_center-auto_repair_center-car-repair" data-name="car service-car repair center-auto repair center-car-repair" transform="translate(-2 -2)">
    <path id="Path_2270" data-name="Path 2270" d="M32.633,44.885h8.708a1.633,1.633,0,0,0,1.633-1.633v-7.62A1.633,1.633,0,0,0,41.341,34H32.633A1.633,1.633,0,0,0,31,35.633v7.62A1.633,1.633,0,0,0,32.633,44.885Zm-.544-9.253a.544.544,0,0,1,.544-.544h8.708a.544.544,0,0,1,.544.544v7.62a.544.544,0,0,1-.544.544H32.633a.544.544,0,0,1-.544-.544Z" transform="translate(-13.216 -14.583)" fill="#666"/>
    <path id="Path_2271" data-name="Path 2271" d="M45.633,40.721h1.089V38.544A.544.544,0,0,0,46.177,38H44v1.089h1.633Z" transform="translate(-19.141 -16.406)" fill="#666"/>
    <rect id="Rectangle_1500" data-name="Rectangle 1500" width="0.85" height="0.85" transform="translate(13.229 26.827)" fill="#666"/>
    <path id="Path_2272" data-name="Path 2272" d="M33.023,31.391H31.935V18.274a2.731,2.731,0,0,0,2.177-2.667.359.359,0,0,0-.005-.076l-.952-6.684a1.644,1.644,0,0,0-1.616-1.4H27.581V3.633A1.638,1.638,0,0,0,25.948,2H10.708A1.638,1.638,0,0,0,9.076,3.633v3.81H5.119A1.644,1.644,0,0,0,3.5,8.847L2.55,15.531a.359.359,0,0,0-.005.076,2.731,2.731,0,0,0,2.177,2.667V31.391H3.633a1.633,1.633,0,0,0,0,3.266H33.023a1.633,1.633,0,1,0,0-3.266ZM29.758,8.531h1.78A.539.539,0,0,1,32.071,9l.952,6.646a1.633,1.633,0,1,1-3.266-.038Zm-2.177,4.9v-4.9h1.089v7.076a1.633,1.633,0,1,1-3.266,0v-.544h.544a1.638,1.638,0,0,0,1.633-1.633Zm-17.417-9.8a.544.544,0,0,1,.544-.544h15.24a.544.544,0,0,1,.544.544v9.8a.544.544,0,0,1-.544.544H16.7V11.427a3.766,3.766,0,0,0,1.089-.795v.62a.544.544,0,0,0,.544.544h1.731a1.626,1.626,0,0,0,3.07,0h1.731a.544.544,0,0,0,.544-.544V9.076a1.638,1.638,0,0,0-1.633-1.633h-.544V5.81a1.638,1.638,0,0,0-1.633-1.633H18.328a.544.544,0,0,0-.544.544v.6a3.747,3.747,0,0,0-1.453-.92.55.55,0,0,0-.5.065.56.56,0,0,0-.229.446V7.443H14.518V4.912a.56.56,0,0,0-.229-.446.55.55,0,0,0-.5-.065,3.8,3.8,0,0,0-.365,7.027v2.547H10.708a.544.544,0,0,1-.544-.544Zm14.151,11.43v.544a1.633,1.633,0,1,1-3.266,0v-.544Zm-9.8-1.089V11.062a.544.544,0,0,0-.365-.512A2.721,2.721,0,0,1,13.43,5.81V7.987a.544.544,0,0,0,.544.544h2.177a.544.544,0,0,0,.544-.544V5.81a2.721,2.721,0,0,1-.724,4.741.544.544,0,0,0-.365.512v2.912Zm1.089,1.089v.544a1.633,1.633,0,1,1-3.266,0v-.544Zm1.089,0h3.266v.544a1.633,1.633,0,1,1-3.266,0Zm7.076-6.531a.544.544,0,0,1,.544.544v1.633H23.129a1.626,1.626,0,0,0-3.07,0H18.872V8.531Zm-4.9-1.089V5.266h2.721a.544.544,0,0,1,.544.544V7.443Zm3.266,3.81a.544.544,0,1,1-.544-.544A.544.544,0,0,1,22.138,11.253ZM7.987,8.531H9.076v4.9a1.638,1.638,0,0,0,1.633,1.633h.544v.544a1.633,1.633,0,1,1-3.266,0ZM7.443,17.24a2.721,2.721,0,0,0,4.354,0,2.721,2.721,0,0,0,4.354,0,2.721,2.721,0,0,0,4.354,0,2.721,2.721,0,0,0,4.354,0,2.721,2.721,0,0,0,4.354,0,2.718,2.718,0,0,0,1.633,1.029V31.391H15.607v-7.62a4.354,4.354,0,0,0-8.708,0v7.62H5.81V18.268A2.718,2.718,0,0,0,7.443,17.24Zm7.076,6.531v7.62H7.987v-7.62a3.266,3.266,0,0,1,6.531,0ZM3.633,15.645,4.585,9a.539.539,0,0,1,.533-.468H6.9v7.076a1.633,1.633,0,1,1-3.266.038ZM33.023,33.568H3.633a.544.544,0,0,1,0-1.089H33.023a.544.544,0,0,1,0,1.089Z" fill="#666"/>
  </g>
</svg>
