<svg id="floppy-disk_2_" data-name="floppy-disk (2)" xmlns="http://www.w3.org/2000/svg" width="21.927" height="21.927" viewBox="0 0 21.927 21.927">
  <g id="Group_3545" data-name="Group 3545">
    <g id="Group_3544" data-name="Group 3544">
      <path id="Path_2285" data-name="Path 2285" d="M21.781,4.133,17.794.146A.5.5,0,0,0,17.442,0H1.993A2,2,0,0,0,0,1.993v17.94a2,2,0,0,0,1.993,1.993h17.94a2,2,0,0,0,1.993-1.993V4.485A.5.5,0,0,0,21.781,4.133ZM4.983,1H15.947v5.98a1,1,0,0,1-1,1H5.98a1,1,0,0,1-1-1ZM17.94,20.93H3.987V11.96H17.94Zm2.99-1a1,1,0,0,1-1,1h-1V11.462a.5.5,0,0,0-.5-.5H3.488a.5.5,0,0,0-.5.5V20.93h-1a1,1,0,0,1-1-1V1.993a1,1,0,0,1,1-1H3.987v5.98A2,2,0,0,0,5.98,8.97h8.97a2,2,0,0,0,1.993-1.993V1h.292L20.93,4.691Z" fill="#666"/>
      <path id="Path_2286" data-name="Path 2286" d="M256.5,47.649h1.993a.5.5,0,0,0,.5-.5V43.164a.5.5,0,0,0-.5-.5H256.5a.5.5,0,0,0-.5.5v3.987A.5.5,0,0,0,256.5,47.649Zm.5-3.987h1v2.99h-1Z" transform="translate(-244.04 -40.673)" fill="#666"/>
    </g>
  </g>
</svg>
