<svg xmlns="http://www.w3.org/2000/svg" width="31.249" height="19.841" viewBox="0 0 31.249 19.841">
  <g id="group" transform="translate(0 -92.25)">
    <g id="Group_3546" data-name="Group 3546" transform="translate(0 92.25)">
      <path id="Path_2289" data-name="Path 2289" d="M27.026,100.98a3.568,3.568,0,1,0-4.093,0,6.181,6.181,0,0,0-2.108,1.237,8,8,0,0,0-2.894-1.577,4.52,4.52,0,1,0-4.674,0,8.065,8.065,0,0,0-2.863,1.558,6.232,6.232,0,0,0-2.084-1.212,3.568,3.568,0,1,0-4.093,0A6.262,6.262,0,0,0,0,106.9v.408a.027.027,0,0,0,.025.025H7.587a8.316,8.316,0,0,0-.068,1.045v.42a3.288,3.288,0,0,0,3.289,3.289h9.584a3.288,3.288,0,0,0,3.289-3.289v-.42a8.316,8.316,0,0,0-.068-1.045h7.611a.027.027,0,0,0,.025-.025V106.9A6.286,6.286,0,0,0,27.026,100.98ZM22.4,98.056a2.578,2.578,0,1,1,2.628,2.578h-.1A2.575,2.575,0,0,1,22.4,98.056ZM12.051,96.77a3.53,3.53,0,1,1,3.735,3.524h-.408A3.536,3.536,0,0,1,12.051,96.77ZM3.667,98.056a2.578,2.578,0,1,1,2.628,2.578H6.2A2.579,2.579,0,0,1,3.667,98.056Zm4.093,8.285H1a5.283,5.283,0,0,1,5.206-4.718h.074a5.228,5.228,0,0,1,3.37,1.255A8.118,8.118,0,0,0,7.76,106.341Zm14.92,2.461a2.3,2.3,0,0,1-2.3,2.3H10.8a2.3,2.3,0,0,1-2.3-2.3v-.42a7.1,7.1,0,0,1,6.882-7.092c.068.006.142.006.21.006s.142,0,.21-.006a7.1,7.1,0,0,1,6.882,7.092Zm.736-2.461a8.1,8.1,0,0,0-1.873-3.438,5.253,5.253,0,0,1,3.4-1.28h.074a5.283,5.283,0,0,1,5.206,4.718Z" transform="translate(0 -92.25)" fill="#666"/>
    </g>
  </g>
</svg>
