<svg xmlns="http://www.w3.org/2000/svg" width="29.829" height="34.122" viewBox="0 0 29.829 34.122">
  <g id="headphones_1_" data-name="headphones (1)" transform="translate(-26.48)">
    <g id="Group_3543" data-name="Group 3543" transform="translate(26.48)">
      <path id="Path_2284" data-name="Path 2284" d="M53.067,11.672a11.672,11.672,0,1,0-23.345,0A3.521,3.521,0,0,0,26.48,15.5v6.1a3.619,3.619,0,0,0,3.891,3.891h1.881a.648.648,0,0,0,.648-.648V12.282a.648.648,0,0,0-.648-.648H31.019a10.375,10.375,0,1,1,20.751,0H50.538a.648.648,0,0,0-.648.648V24.817a.648.648,0,0,0,.648.648H51.77c-.182,4.455-2.322,5.5-6.595,5.687v-.434a1.3,1.3,0,0,0-1.3-1.3H39.8a1.3,1.3,0,0,0-1.3,1.3v2.108a1.3,1.3,0,0,0,1.3,1.3h4.092a1.3,1.3,0,0,0,1.3-1.3v-.376c4.111-.188,7.665-1.038,7.879-7.023A3.521,3.521,0,0,0,56.309,21.6V15.5A3.515,3.515,0,0,0,53.067,11.672ZM31.6,12.885V24.168H30.338a2.355,2.355,0,0,1-2.594-2.594v-6.1a2.357,2.357,0,0,1,2.594-2.594ZM43.891,31.846v.986H39.8V30.724h4.092ZM55.012,21.594a2.357,2.357,0,0,1-2.594,2.594H51.187V12.93h1.265a2.355,2.355,0,0,1,2.594,2.594Z" transform="translate(-26.48)" fill="#666"/>
    </g>
  </g>
</svg>
