<svg xmlns="http://www.w3.org/2000/svg" width="25.224" height="24.727" viewBox="0 0 25.224 24.727">
  <g id="setting-lines_1_" data-name="setting-lines (1)" transform="translate(0 -4.503)">
    <path id="Path_2457" data-name="Path 2457" d="M5.39,54.071H.742a.742.742,0,0,1,0-1.484H5.39a.742.742,0,0,1,0,1.484Z" transform="translate(0 -45.427)" fill="#666"/>
    <path id="Path_2458" data-name="Path 2458" d="M87.534,11.3a3.4,3.4,0,1,1,3.4-3.4A3.4,3.4,0,0,1,87.534,11.3Zm0-5.313A1.914,1.914,0,1,0,89.449,7.9,1.917,1.917,0,0,0,87.534,5.987Z" transform="translate(-79.488)" fill="#666"/>
    <path id="Path_2459" data-name="Path 2459" d="M240.835,54.071H229.747a.742.742,0,1,1,0-1.484h11.088a.742.742,0,0,1,0,1.484Z" transform="translate(-216.353 -45.427)" fill="#666"/>
    <path id="Path_2460" data-name="Path 2460" d="M267.827,173.57a3.4,3.4,0,1,1,3.4-3.4A3.4,3.4,0,0,1,267.827,173.57Zm0-5.312a1.914,1.914,0,1,0,1.914,1.914A1.916,1.916,0,0,0,267.827,168.258Z" transform="translate(-249.82 -153.306)" fill="#666"/>
    <path id="Path_2461" data-name="Path 2461" d="M12.66,216.334H.742a.742.742,0,1,1,0-1.484H12.66a.742.742,0,1,1,0,1.484Z" transform="translate(0 -198.726)" fill="#666"/>
    <path id="Path_2462" data-name="Path 2462" d="M365.147,216.334h-3.818a.742.742,0,1,1,0-1.484h3.818a.742.742,0,1,1,0,1.484Z" transform="translate(-340.665 -198.726)" fill="#666"/>
    <path id="Path_2463" data-name="Path 2463" d="M72.511,335.833a3.4,3.4,0,1,1,3.4-3.4A3.4,3.4,0,0,1,72.511,335.833Zm0-5.313a1.914,1.914,0,1,0,1.914,1.914A1.916,1.916,0,0,0,72.511,330.521Z" transform="translate(-65.295 -306.604)" fill="#666"/>
    <path id="Path_2464" data-name="Path 2464" d="M226.639,378.6H214.721a.742.742,0,0,1,0-1.484h11.918a.742.742,0,0,1,0,1.484Z" transform="translate(-202.157 -352.025)" fill="#666"/>
    <path id="Path_2465" data-name="Path 2465" d="M4.56,378.6H.742a.742.742,0,0,1,0-1.484H4.56a.742.742,0,0,1,0,1.484Z" transform="translate(0 -352.024)" fill="#666"/>
  </g>
</svg>
