<svg xmlns="http://www.w3.org/2000/svg" width="29.002" height="29.003" viewBox="0 0 29.002 29.003">
  <g id="wallet_1_" data-name="wallet (1)" transform="translate(-0.003 0)">
    <g id="Group_3542" data-name="Group 3542" transform="translate(0.003 0)">
      <g id="Group_3541" data-name="Group 3541" transform="translate(0 0)">
        <path id="Path_2282" data-name="Path 2282" d="M27.687,14.623V10.547A2.631,2.631,0,0,0,25.26,7.932L21.475,1.319A2.609,2.609,0,0,0,17.9.355L4.919,7.91H2.64A2.639,2.639,0,0,0,0,10.547v15.82A2.639,2.639,0,0,0,2.64,29H25.051a2.639,2.639,0,0,0,2.637-2.637V22.29a1.974,1.974,0,0,0,1.318-1.856V16.479A1.974,1.974,0,0,0,27.687,14.623ZM23.729,7.91H17.983L22.292,5.4ZM21.637,4.258,15.363,7.91h-2.6l8.226-4.789ZM18.56,1.495a1.275,1.275,0,0,1,.979-.132,1.292,1.292,0,0,1,.792.612v0L10.141,7.91h-2.6Zm7.809,24.872a1.32,1.32,0,0,1-1.318,1.318H2.64a1.32,1.32,0,0,1-1.318-1.318V10.547A1.32,1.32,0,0,1,2.64,9.229H25.051a1.32,1.32,0,0,1,1.318,1.318V14.5H22.414a3.955,3.955,0,1,0,0,7.91h3.955Zm1.318-5.932a.66.66,0,0,1-.659.659H22.414a2.637,2.637,0,1,1,0-5.273h4.614a.66.66,0,0,1,.659.659Z" transform="translate(-0.003 0)" fill="#666"/>
        <path id="Path_2283" data-name="Path 2283" d="M342.655,277.341a1.318,1.318,0,1,0,1.318,1.318A1.32,1.32,0,0,0,342.655,277.341Z" transform="translate(-320.244 -260.203)" fill="#666"/>
      </g>
    </g>
  </g>
</svg>
