<svg xmlns="http://www.w3.org/2000/svg" width="40.694" height="41.148" viewBox="0 0 28.694 39.148">
  <g id="fire" transform="translate(-11.115 -2.003)">
    <path id="Path_2407" data-name="Path 2407" d="M26.375,41.151a12.577,12.577,0,0,1-4.341-.756h0c-4.988-1.828-8.315-4.707-9.888-8.557-2.582-6.32.484-12.906.615-13.183a.559.559,0,0,1,1.044.09A7.367,7.367,0,0,0,16.1,22.01c1.28-6.425,6.885-10.313,7.134-10.484,3.616-2.895.663-8.646.633-8.7a.559.559,0,0,1,.847-.694c9.959,8.082,9.386,16.221,8.583,19.566a5.425,5.425,0,0,0,2.029-5.019.559.559,0,0,1,1.017-.391,25.341,25.341,0,0,1,2.614,5.382A15.284,15.284,0,0,1,36.33,36.412l-.12.146A12.7,12.7,0,0,1,26.375,41.151Zm-3.956-1.806a11.461,11.461,0,0,0,3.956.687,11.583,11.583,0,0,0,8.971-4.186l.112-.14A14.172,14.172,0,0,0,37.9,22.035a25.354,25.354,0,0,0-1.5-3.439,7.524,7.524,0,0,1-3.874,4.948.559.559,0,0,1-.745-.744c.177-.379,4.027-9-6.107-18.367.647,2.241,1.033,5.746-1.773,7.991-.093.066-6.033,4.2-6.844,10.682a.559.559,0,0,1-.869.391,10.38,10.38,0,0,1-2.892-3.119c-.734,2.148-1.869,6.734-.1,11.041,1.451,3.543,4.558,6.208,9.234,7.923Z" fill="#da1e37"/>
    <path id="Path_2408" data-name="Path 2408" d="M30.845,53.985a.559.559,0,0,1-.36-.131c-7.127-6.008-2.106-13.691-2.054-13.767a.559.559,0,0,1,1.023.276,3.751,3.751,0,0,0,.872,2.344,11.366,11.366,0,0,1,4.93-10.989.559.559,0,0,1,.779.739,3.883,3.883,0,0,0-.451,1.893,4.105,4.105,0,0,0,.7,2.146l.224.342a35.068,35.068,0,0,0,2.4,3.167,9.859,9.859,0,0,1,1.588,2.7c2.8,5.779-2.013,10.334-2.06,10.38a.559.559,0,1,1-.761-.82c.175-.163,4.265-4.06,1.8-9.1a.541.541,0,0,1-.025-.061,8.8,8.8,0,0,0-1.4-2.391,36.091,36.091,0,0,1-2.482-3.269l-.224-.342a5.224,5.224,0,0,1-.885-2.735,5.034,5.034,0,0,1,.029-.653,10.308,10.308,0,0,0-2.858,10.067.559.559,0,0,1-.71.65,3.819,3.819,0,0,1-2.271-2.4A8.863,8.863,0,0,0,31.2,53a.559.559,0,0,1-.361.987Z" transform="translate(-6.853 -13.062)" fill="#da1e37"/>
  </g> 
</svg>
