<svg xmlns="http://www.w3.org/2000/svg" width="30.426" height="28.157" viewBox="0 0 30.426 28.157">
  <g id="Group_3510" data-name="Group 3510" transform="translate(-1479.427 -27.591)">
    <path id="Subtraction_2" data-name="Subtraction 2" d="M7.667,23a3.067,3.067,0,0,1,0-6.134H6.133a.766.766,0,0,1-.753-.626L3.082,4,2.469,1.533H.767A.767.767,0,1,1,.767,0h2.3A.766.766,0,0,1,3.81.581l.622,2.485h17.8a.767.767,0,0,1,.753.908l-1.3,6.908a5.555,5.555,0,0,0-1.354-1.1L21.31,4.6H4.756L6.769,15.333h5.025a8.86,8.86,0,0,0,.228,1.533H7.667a3.067,3.067,0,0,1,0,6.134Z" transform="translate(1479.427 27.591)" fill="#da1e37"/>
    <g id="heart" transform="translate(1491.57 38.607)">
      <path id="Path_2127" data-name="Path 2127" d="M9.142,3.14,8.323,2.3A4.292,4.292,0,0,0,1.6,3.488C1,4.658.868,6.345,1.959,8.5,3.01,10.573,5.2,13.057,9.142,15.763c3.945-2.706,6.131-5.191,7.183-7.264,1.091-2.155.957-3.842.359-5.011A4.292,4.292,0,0,0,9.961,2.3Zm0,14C-8.379,5.563,3.747-3.474,8.941,1.306c.069.063.136.128.2.2q.1-.1.2-.195C14.536-3.477,26.663,5.562,9.142,17.141Z" transform="translate(0 0)" fill="#da1e37" fill-rule="evenodd"/>
    </g>
  </g>
</svg>
