<svg xmlns="http://www.w3.org/2000/svg" xmlns:xlink="http://www.w3.org/1999/xlink" width="173.006" height="69.016" viewBox="0 0 173.006 69.016">
  <defs>
    <filter id="Path_238" x="0" y="0" width="61.272" height="69.016" filterUnits="userSpaceOnUse">
      <feOffset dy="3" input="SourceAlpha"/>
      <feGaussianBlur stdDeviation="3" result="blur"/>
      <feFlood flood-opacity="0.161"/>
      <feComposite operator="in" in2="blur"/>
      <feComposite in="SourceGraphic"/>
    </filter>
  </defs>
  <g id="logo" transform="translate(-270 -84)">
    <g id="Group_540" data-name="Group 540" transform="translate(279 90)">
      <g transform="matrix(1, 0, 0, 1, -9, -6)" filter="url(#Path_238)">
        <path id="Path_238-2" data-name="Path 238" d="M688.353,230.424c-9.679-5.656-29.518-1.877-38,3.107,2.689,14.31,5.528,37.8,7.173,42.866a2.815,2.815,0,0,0,.872,1.306l.066.054a4.027,4.027,0,0,0,3.54.723c7.711-2,18.1-11.871,25.372-22.384,3.148-4.833,5.436-9.945,6.137-14.817a10.765,10.765,0,0,0-5.157-10.856m-18.9,36.4a15.583,15.583,0,0,1-4.9-.784,14.486,14.486,0,0,1,8.119-27.448q.388.051.77.123a3.81,3.81,0,0,1,1.95.963,2.474,2.474,0,0,1,.31,3.5,2.7,2.7,0,0,1-.182.2,2.8,2.8,0,0,1-1.349.744,2.15,2.15,0,0,1-.806.019c-.269-.04-.536-.113-.817-.178a10.571,10.571,0,0,0-1.741-.251c-.212-.013-.426-.021-.641-.021a10.538,10.538,0,0,0-5.207,19.7,11.668,11.668,0,0,0,15.713-16.248,11.359,11.359,0,0,1,2.748,7.345c0,6.81-6.252,12.33-13.965,12.33m20.486-22a1.551,1.551,0,0,1-3.1,0V239.2c-6.025,5.469-11.874,10.616-17.118,14.658l14.818-16.8h-5.8a1.6,1.6,0,0,1,0-3.21h9.781a1.427,1.427,0,0,1,1.427,1.427Z" transform="translate(-641.35 -221.6)" fill="#da1e37"/>
      </g>
      <path id="Path_239" data-name="Path 239" d="M785.5,265.168h-9.781a1.6,1.6,0,0,0,0,3.21h5.8l-14.818,16.8c5.245-4.042,11.093-9.188,17.118-14.658v5.617a1.551,1.551,0,0,0,3.1,0v-9.54a1.427,1.427,0,0,0-1.427-1.427" transform="translate(-747.342 -258.915)" fill="#fff"/>
      <path id="Path_240" data-name="Path 240" d="M708.6,315.913a11.432,11.432,0,0,1-14.026,1.9,10.539,10.539,0,0,1,5.207-19.7c.216,0,.429.008.641.021a10.561,10.561,0,0,1,1.741.251c.281.065.548.138.817.178a2.15,2.15,0,0,0,.806-.018,2.8,2.8,0,0,0,1.349-.744,2.7,2.7,0,0,0,.182-.2,2.474,2.474,0,0,0-.31-3.5,3.81,3.81,0,0,0-1.95-.964q-.382-.072-.77-.123a14.485,14.485,0,0,0-8.119,27.448,15.583,15.583,0,0,0,4.9.784c7.713,0,13.965-5.52,13.965-12.33a11.357,11.357,0,0,0-2.748-7.345,11.406,11.406,0,0,1-1.687,14.351" transform="translate(-679.965 -282.013)" fill="#fff"/>
    </g>
    <g id="Group_585" data-name="Group 585" transform="translate(-9 54)">
      <g id="Group_583" data-name="Group 583">
        <path id="Path_406" data-name="Path 406" d="M349.785,619.669h5.484a6.491,6.491,0,0,1,2.62.446,4.269,4.269,0,0,1,1.65,1.28,5.33,5.33,0,0,1,.945,1.94,9.117,9.117,0,0,1,.293,2.345,8.24,8.24,0,0,1-.436,3.009,4.981,4.981,0,0,1-1.21,1.791,3.936,3.936,0,0,1-1.662.962,8.458,8.458,0,0,1-2.2.33h-5.484Zm3.692,2.741v6.613h.9a3.76,3.76,0,0,0,1.646-.26,1.755,1.755,0,0,0,.766-.908,5.771,5.771,0,0,0,.277-2.1,4.121,4.121,0,0,0-.619-2.633,2.6,2.6,0,0,0-2.054-.71Z" transform="translate(-7.785 -564.669)" fill="#da1e37"/>
        <path id="Path_391" data-name="Path 391" d="M455.6,619.669h3.683v7.211a6.145,6.145,0,0,1-.33,2.025,4.384,4.384,0,0,1-1.035,1.667,4.128,4.128,0,0,1-1.479,1,7.361,7.361,0,0,1-2.583.4,16.1,16.1,0,0,1-1.9-.124,4.938,4.938,0,0,1-1.723-.491,4.328,4.328,0,0,1-1.267-1.044,3.844,3.844,0,0,1-.786-1.394,7.313,7.313,0,0,1-.342-2.046v-7.211h3.683v7.383a2.123,2.123,0,0,0,.542,1.546,2.31,2.31,0,0,0,3,.008,2.119,2.119,0,0,0,.542-1.555Z" transform="translate(-92.837 -564.669)" fill="#da1e37"/>
        <path id="Path_392" data-name="Path 392" d="M546.556,619.669h11.221v2.989h-3.765v9.114h-3.692v-9.114h-3.765Z" transform="translate(-178.556 -564.669)" fill="#da1e37"/>
        <path id="Path_393" data-name="Path 393" d="M637.259,619.669h4.1l2.407,4.083,2.412-4.083h4.078l-4.645,7.034v5.069h-3.7V626.7Z" transform="translate(-256.259 -564.669)" fill="#da1e37"/>
        <path id="Path_394" data-name="Path 394" d="M797.385,619.669h6.136a4.166,4.166,0,0,1,3,.966,3.65,3.65,0,0,1,1,2.749,3.758,3.758,0,0,1-1.088,2.865,4.672,4.672,0,0,1-3.321,1.032h-2.021v4.491h-3.708Zm3.708,5.16h.9a2.3,2.3,0,0,0,1.5-.376,1.217,1.217,0,0,0,.432-.962,1.354,1.354,0,0,0-.375-.966,1.926,1.926,0,0,0-1.41-.4h-1.051Z" transform="translate(-401.385 -564.669)" fill="#da1e37"/>
        <path id="Path_395" data-name="Path 395" d="M890.284,619.669h9.893v2.584h-6.193v1.924h5.745v2.468h-5.745v2.386h6.373v2.741H890.284Z" transform="translate(-482.283 -564.669)" fill="#da1e37"/>
        <path id="Path_396" data-name="Path 396" d="M983.467,619.669h5.484a6.49,6.49,0,0,1,2.62.446,4.27,4.27,0,0,1,1.65,1.28,5.325,5.325,0,0,1,.945,1.94,9.117,9.117,0,0,1,.293,2.345,8.24,8.24,0,0,1-.436,3.009,4.978,4.978,0,0,1-1.21,1.791,3.938,3.938,0,0,1-1.662.962,8.459,8.459,0,0,1-2.2.33h-5.484Zm3.692,2.741v6.613h.9a3.761,3.761,0,0,0,1.646-.26,1.757,1.757,0,0,0,.766-.908,5.77,5.77,0,0,0,.277-2.1,4.12,4.12,0,0,0-.619-2.633,2.6,2.6,0,0,0-2.053-.71Z" transform="translate(-563.467 -564.669)" fill="#da1e37"/>
        <rect id="Rectangle_453" data-name="Rectangle 453" width="3.7" height="12.103" transform="translate(433 55)" fill="#da1e37"/>
        <path id="Path_397" data-name="Path 397" d="M1143.309,629.774h-4.191l-.582,2h-3.769l4.49-12.1h4.026l4.489,12.1h-3.866Zm-.766-2.617-1.319-4.351-1.3,4.351Z" transform="translate(-695.766 -564.669)" fill="#da1e37"/>
      </g>
    </g>
  </g>
</svg>
