<svg width="18" height="19" viewBox="0 0 18 19" fill="none" xmlns="http://www.w3.org/2000/svg">
<path d="M9.63101 0.999939C9.88601 1.04594 10.147 1.07195 10.394 1.14195C11.1985 1.34607 11.9311 1.76801 12.5113 2.3614C13.0915 2.9548 13.4969 3.69666 13.683 4.50548C13.869 5.31429 13.8284 6.15875 13.5658 6.94601C13.3031 7.73328 12.8284 8.43288 12.194 8.96794C12.14 9.01494 12.085 9.05995 12.008 9.12395C12.114 9.16595 12.208 9.19894 12.291 9.23494C12.521 9.32994 12.753 9.41794 12.978 9.52394C13.0605 9.55663 13.1357 9.60565 13.1988 9.66805C13.262 9.73044 13.3119 9.80494 13.3456 9.88708C13.3793 9.96923 13.3961 10.0573 13.395 10.1461C13.3938 10.2349 13.3748 10.3225 13.339 10.4038C13.3031 10.485 13.2513 10.5582 13.1866 10.619C13.1218 10.6797 13.0454 10.7267 12.9621 10.7573C12.8787 10.7878 12.79 10.8013 12.7014 10.7967C12.6127 10.7922 12.5258 10.7698 12.446 10.7309C11.868 10.4659 11.2603 10.2708 10.636 10.1499C9.08343 9.86831 7.48143 10.0935 6.06662 10.7921C4.65181 11.4908 3.4992 12.626 2.77902 14.03C2.48217 14.6054 2.26643 15.2193 2.138 15.8539C2.11975 15.9434 2.1199 16.0356 2.13843 16.125C2.15695 16.2144 2.19347 16.2991 2.24576 16.374C2.29805 16.4488 2.36502 16.5122 2.4426 16.5603C2.52017 16.6085 2.60675 16.6403 2.69702 16.6539C2.78446 16.6662 2.87274 16.6712 2.961 16.6689H10.898C11.045 16.6531 11.1933 16.6852 11.3205 16.7606C11.4478 16.8359 11.5472 16.9504 11.604 17.0869C11.642 17.1824 11.6573 17.2854 11.6487 17.3878C11.6401 17.4902 11.6078 17.5892 11.5543 17.6769C11.5009 17.7647 11.4278 17.8388 11.3408 17.8935C11.2538 17.9482 11.1553 17.9819 11.053 17.9919C11.0034 17.9946 10.9537 17.9946 10.904 17.9919H2.867C2.40058 18.0092 1.94304 17.8613 1.57498 17.5742C1.20692 17.2872 0.951951 16.8795 0.855011 16.4229C0.790723 16.1375 0.788001 15.8416 0.847015 15.5549C1.14316 14.1023 1.81196 12.7517 2.78778 11.6356C3.7636 10.5195 5.01289 9.67636 6.41299 9.18895C6.45399 9.17295 6.49601 9.15795 6.53601 9.14095C6.54501 9.14095 6.551 9.12595 6.561 9.11395C6.394 8.95795 6.217 8.81395 6.061 8.64195C5.59294 8.17824 5.23728 7.61349 5.0213 6.99103C4.80532 6.36856 4.73475 5.70491 4.815 5.05095C4.88287 4.2229 5.18597 3.43147 5.6886 2.76993C6.19123 2.10838 6.87244 1.60426 7.65201 1.31694C8.04956 1.18532 8.45679 1.08502 8.87 1.01695L8.965 0.991943L9.63101 0.999939ZM12.487 5.51895C12.4881 4.89062 12.3035 4.27597 11.9564 3.75223C11.6092 3.22849 11.1151 2.819 10.5359 2.57521C9.95684 2.33142 9.31861 2.26419 8.70142 2.38197C8.08422 2.49976 7.51559 2.79729 7.06696 3.23721C6.61832 3.67714 6.3097 4.23982 6.17984 4.85458C6.04998 5.46935 6.10467 6.10879 6.33707 6.69257C6.56946 7.27634 6.96919 7.77843 7.48602 8.13576C8.00286 8.49308 8.61377 8.68971 9.242 8.70094C9.66476 8.70837 10.0848 8.63163 10.4776 8.47519C10.8704 8.31874 11.2282 8.08572 11.5301 7.78969C11.832 7.49366 12.0719 7.14052 12.2361 6.75085C12.4002 6.36119 12.4852 5.94276 12.486 5.51994L12.487 5.51895Z" fill="white"/>
<path d="M17.8007 14.98C17.7506 15.1543 17.639 15.3046 17.4866 15.403C17.3341 15.5014 17.1513 15.5412 16.9717 15.515C16.4247 15.499 15.8778 15.515 15.3098 15.515V15.703C15.3098 16.229 15.3098 16.754 15.3098 17.28C15.3177 17.3719 15.3065 17.4646 15.2768 17.552C15.2471 17.6394 15.1995 17.7197 15.1371 17.7877C15.0748 17.8558 14.9989 17.9101 14.9144 17.9473C14.8299 17.9844 14.7386 18.0036 14.6462 18.0036C14.5539 18.0036 14.4626 17.9844 14.3781 17.9473C14.2936 17.9101 14.2177 17.8558 14.1553 17.7877C14.0929 17.7197 14.0454 17.6394 14.0157 17.552C13.986 17.4646 13.9747 17.3719 13.9827 17.28C13.9827 16.7 13.9827 16.12 13.9827 15.518H13.7968C13.2708 15.518 12.7447 15.518 12.2197 15.518C12.1278 15.526 12.0352 15.5147 11.9478 15.485C11.8603 15.4553 11.78 15.4078 11.712 15.3454C11.6439 15.283 11.5896 15.2071 11.5524 15.1226C11.5153 15.0381 11.4961 14.9468 11.4961 14.8545C11.4961 14.7621 11.5153 14.6708 11.5524 14.5863C11.5896 14.5018 11.6439 14.426 11.712 14.3636C11.78 14.3012 11.8603 14.2536 11.9478 14.2239C12.0352 14.1942 12.1278 14.183 12.2197 14.191C12.8007 14.191 13.3808 14.191 13.9838 14.191V14.006C13.9838 13.48 13.9838 12.955 13.9838 12.429C13.9758 12.337 13.9869 12.2444 14.0167 12.157C14.0464 12.0695 14.094 11.9893 14.1564 11.9212C14.2188 11.8532 14.2946 11.7989 14.3791 11.7617C14.4636 11.7245 14.5549 11.7053 14.6472 11.7053C14.7395 11.7053 14.8309 11.7245 14.9154 11.7617C14.9999 11.7989 15.0757 11.8532 15.1381 11.9212C15.2005 11.9893 15.2481 12.0695 15.2778 12.157C15.3075 12.2444 15.3187 12.337 15.3107 12.429C15.3107 13.01 15.3107 13.59 15.3107 14.194H15.4948C15.9878 14.194 16.4797 14.206 16.9717 14.194C17.1513 14.1676 17.3343 14.2073 17.4868 14.3057C17.6392 14.4041 17.7508 14.5545 17.8007 14.729C17.8007 14.8076 17.8007 14.8913 17.8007 14.98Z" fill="white"/>
</svg>
