<svg xmlns="http://www.w3.org/2000/svg" width="32" height="32" viewBox="0 0 32 32">
  <g id="add_more_plus" data-name="add more plus" transform="translate(-381 -1654)">
    <g id="Ellipse_1547" data-name="Ellipse 1547" transform="translate(381 1654)" fill="#fff" stroke="#707070" stroke-width="2">
      <circle cx="16" cy="16" r="16" stroke="none"/>
      <circle cx="16" cy="16" r="15" fill="none"/>
    </g>
    <path id="Path_6312" data-name="Path 6312" d="M5.865-2.05H1.482a6.086,6.086,0,0,1-.106-1.188A5.935,5.935,0,0,1,1.482-4.4H5.865V-9.206q.29-.053.568-.079t.594-.026q.29,0,.581.026t.607.079V-4.4h4.357q.053.29.079.581t.026.581q0,.29-.026.594t-.079.594H8.215v4.78q-.317.053-.607.079t-.581.026a5.685,5.685,0,0,1-1.162-.106Z" transform="translate(389.625 1673.312)" fill="#666"/>
  </g>
</svg>
