<svg id="Group_11912" data-name="Group 11912" xmlns="http://www.w3.org/2000/svg" width="25.451" height="21.309" viewBox="0 0 25.451 21.309">
  <path id="Path_4697" data-name="Path 4697" d="M26.059,6H23.474V7.421H25.86V23.047H3.591V7.421H5.977V6H3.392A1.34,1.34,0,0,0,2,7.286v15.9a1.34,1.34,0,0,0,1.392,1.286H26.059a1.34,1.34,0,0,0,1.392-1.286V7.286A1.34,1.34,0,0,0,26.059,6Z" transform="translate(-2 -3.158)" fill="#fff"/>
  <path id="Path_4698" data-name="Path 4698" d="M8,14H9.09v1.421H8Z" transform="translate(-3.128 -5.477)" fill="#fff"/>
  <path id="Path_4699" data-name="Path 4699" d="M14,14h1.09v1.421H14Z" transform="translate(-4.256 -5.477)" fill="#fff"/>
  <path id="Path_4700" data-name="Path 4700" d="M20,14h1.09v1.421H20Z" transform="translate(-5.383 -5.477)" fill="#fff"/>
  <path id="Path_4701" data-name="Path 4701" d="M26,14h1.09v1.421H26Z" transform="translate(-6.513 -5.477)" fill="#fff"/>
  <path id="Path_4702" data-name="Path 4702" d="M8,19H9.09v1.421H8Z" transform="translate(-3.128 -6.925)" fill="#fff"/>
  <path id="Path_4703" data-name="Path 4703" d="M14,19h1.09v1.421H14Z" transform="translate(-4.256 -6.925)" fill="#fff"/>
  <path id="Path_4704" data-name="Path 4704" d="M20,19h1.09v1.421H20Z" transform="translate(-5.383 -6.925)" fill="#fff"/>
  <path id="Path_4705" data-name="Path 4705" d="M26,19h1.09v1.421H26Z" transform="translate(-6.513 -6.925)" fill="#fff"/>
  <path id="Path_4706" data-name="Path 4706" d="M8,24H9.09v1.421H8Z" transform="translate(-3.128 -8.374)" fill="#fff"/>
  <path id="Path_4707" data-name="Path 4707" d="M14,24h1.09v1.421H14Z" transform="translate(-4.256 -8.374)" fill="#fff"/>
  <path id="Path_4708" data-name="Path 4708" d="M20,24h1.09v1.421H20Z" transform="translate(-5.383 -8.374)" fill="#fff"/>
  <path id="Path_4709" data-name="Path 4709" d="M26,24h1.09v1.421H26Z" transform="translate(-6.513 -8.374)" fill="#fff"/>
  <path id="Path_4710" data-name="Path 4710" d="M9.545,7.682a.644.644,0,0,0,.545-.71V2.71A.644.644,0,0,0,9.545,2,.644.644,0,0,0,9,2.71V6.972A.644.644,0,0,0,9.545,7.682Z" transform="translate(-3.316 -2)" fill="#fff"/>
  <path id="Path_4711" data-name="Path 4711" d="M25.545,7.682a.644.644,0,0,0,.545-.71V2.71a.564.564,0,1,0-1.09,0V6.972A.644.644,0,0,0,25.545,7.682Z" transform="translate(-6.323 -2)" fill="#fff"/>
  <path id="Path_4712" data-name="Path 4712" d="M13,6h5.452V7.421H13Z" transform="translate(-3.001 -3.158)" fill="#fff"/>
</svg>
