<svg xmlns="http://www.w3.org/2000/svg" width="14.301" height="10.726" viewBox="0 0 14.301 10.726">
  <g id="camera" transform="translate(0 -4.5)">
    <path id="Path_20335" data-name="Path 20335" d="M13.407,13.438V8.075a.894.894,0,0,0-.894-.894H11.466A2.681,2.681,0,0,1,9.571,6.4l-.742-.74a.894.894,0,0,0-.63-.262H6.1a.894.894,0,0,0-.632.262l-.74.74a2.681,2.681,0,0,1-1.9.786H1.788a.894.894,0,0,0-.894.894v5.363a.894.894,0,0,0,.894.894H12.513A.894.894,0,0,0,13.407,13.438ZM1.788,6.288A1.788,1.788,0,0,0,0,8.075v5.363a1.788,1.788,0,0,0,1.788,1.788H12.513A1.788,1.788,0,0,0,14.3,13.438V8.075a1.788,1.788,0,0,0-1.788-1.788H11.466A1.788,1.788,0,0,1,10.2,5.764l-.74-.74A1.788,1.788,0,0,0,8.2,4.5H6.1a1.788,1.788,0,0,0-1.264.524l-.74.74a1.788,1.788,0,0,1-1.264.524Z" transform="translate(0)" fill-rule="evenodd"/>
    <path id="Path_20336" data-name="Path 20336" d="M13.253,16.613a2.234,2.234,0,1,0-2.234-2.234A2.234,2.234,0,0,0,13.253,16.613Zm0,.894a3.128,3.128,0,1,0-3.128-3.128A3.128,3.128,0,0,0,13.253,17.507Z" transform="translate(-6.103 -4.069)" fill-rule="evenodd"/>
    <path id="Path_20337" data-name="Path 20337" d="M5.394,13.947a.447.447,0,1,1-.447-.447A.447.447,0,0,1,5.394,13.947Z" transform="translate(-2.712 -5.425)"/>
  </g>
</svg>
