<svg width="26" height="26" viewBox="0 0 26 26" fill="none" xmlns="http://www.w3.org/2000/svg">
<path d="M13.444 4.97388H11.79V14.1789L17.765 17.0189L18.475 15.5249L13.444 13.1339V4.97388Z" fill="white"/>
<path d="M12.6422 0.86499C10.1897 0.86499 7.79229 1.59224 5.75312 2.95477C3.71395 4.3173 2.12461 6.25391 1.18609 8.51972C0.24756 10.7855 0.00199883 13.2787 0.480456 15.6841C0.958912 18.0895 2.1399 20.2989 3.87407 22.0331C5.60824 23.7673 7.81771 24.9483 10.2231 25.4267C12.6284 25.9052 15.1217 25.6596 17.3875 24.7211C19.6533 23.7826 21.5899 22.1932 22.9524 20.1541C24.3149 18.1149 25.0422 15.7175 25.0422 13.265C25.0422 11.6366 24.7215 10.0242 24.0983 8.51972C23.4751 7.01528 22.5618 5.64831 21.4103 4.49687C20.2589 3.34542 18.8919 2.43204 17.3875 1.80888C15.883 1.18573 14.2706 0.86499 12.6422 0.86499ZM12.6422 24.019C10.516 24.019 8.43764 23.3885 6.66981 22.2073C4.90198 21.0261 3.52413 19.3471 2.71049 17.3828C1.89685 15.4185 1.68396 13.2571 2.09875 11.1718C2.51354 9.08647 3.53738 7.17101 5.0408 5.66759C6.54421 4.16418 8.45968 3.14034 10.545 2.72555C12.6303 2.31076 14.7917 2.52364 16.756 3.33729C18.7203 4.15093 20.3993 5.52878 21.5805 7.29661C22.7617 9.06444 23.3922 11.1428 23.3922 13.269C23.3922 16.1201 22.2596 18.8544 20.2436 20.8704C18.2276 22.8864 15.4933 24.019 12.6422 24.019Z" fill="white"/>
</svg>
