<svg width="46" height="46" viewBox="0 0 46 46" fill="none" xmlns="http://www.w3.org/2000/svg">
<path d="M33.496 45.537C33.1117 45.6492 32.7175 45.7245 32.319 45.762C22.0023 45.7754 11.6853 45.779 1.36798 45.773C0.293981 45.773 0.000976562 45.481 0.000976562 44.407V1.57803C0.000976562 0.535033 0.300984 0.229004 1.33398 0.229004H32.285C33.503 0.229004 33.754 0.478014 33.76 1.68301C33.76 1.81401 33.769 1.94401 33.774 2.07501C33.769 2.28701 33.76 2.50001 33.76 2.71201C33.76 16.5787 33.756 30.4483 33.748 44.321C33.706 44.7339 33.6216 45.1414 33.496 45.537ZM11.434 35.637C11.2438 35.3595 10.9859 35.1351 10.6847 34.9851C10.3835 34.8351 10.0491 34.7645 9.71298 34.78C8.45498 34.787 7.19599 34.78 5.93799 34.78C5.67146 34.771 5.40589 34.8168 5.15781 34.9146C4.90972 35.0125 4.6844 35.1603 4.49582 35.3489C4.30724 35.5375 4.15944 35.7628 4.06158 36.0109C3.96373 36.2589 3.91791 36.5245 3.92697 36.791C3.91764 38.065 3.91764 39.3397 3.92697 40.615C3.91795 40.8814 3.96369 41.1468 4.06134 41.3947C4.15899 41.6427 4.3065 41.868 4.49472 42.0567C4.68294 42.2454 4.90787 42.3935 5.15561 42.4917C5.40334 42.59 5.66858 42.6364 5.93497 42.628C7.20897 42.6374 8.48364 42.6374 9.75897 42.628C10.0254 42.6372 10.2908 42.5916 10.5389 42.494C10.787 42.3965 11.0124 42.2492 11.2013 42.0611C11.3902 41.873 11.5384 41.6481 11.6369 41.4004C11.7354 41.1527 11.7821 40.8875 11.774 40.621C11.782 39.721 11.774 38.821 11.774 37.921C12.205 37.378 12.626 36.828 13.074 36.294C13.959 35.23 13.964 35.234 12.883 34.367C12.8362 34.3391 12.7866 34.3163 12.735 34.299C12.672 34.372 12.614 34.447 12.549 34.514C12.173 34.891 11.803 35.262 11.434 35.635V35.637ZM11.434 23.857C11.2438 23.5795 10.9859 23.3551 10.6847 23.2051C10.3835 23.0551 10.0491 22.9845 9.71298 23C8.45498 23.007 7.19599 23 5.93799 23C5.67146 22.991 5.40589 23.0368 5.15781 23.1346C4.90972 23.2325 4.6844 23.3803 4.49582 23.5689C4.30724 23.7575 4.15944 23.9827 4.06158 24.2308C3.96373 24.4789 3.91791 24.7445 3.92697 25.011C3.91764 26.285 3.91764 27.5597 3.92697 28.835C3.91781 29.1015 3.96345 29.367 4.06104 29.6151C4.15863 29.8631 4.30609 30.0886 4.49432 30.2774C4.68256 30.4662 4.90756 30.6143 5.15536 30.7126C5.40317 30.811 5.6685 30.8574 5.93497 30.849C7.20897 30.8584 8.48364 30.8584 9.75897 30.849C10.0254 30.8582 10.2908 30.8126 10.5389 30.7151C10.787 30.6175 11.0124 30.4702 11.2013 30.282C11.3902 30.0939 11.5384 29.8691 11.6369 29.6214C11.7354 29.3737 11.7821 29.1084 11.774 28.842C11.782 27.942 11.774 27.042 11.774 26.142C12.205 25.599 12.626 25.049 13.074 24.515C13.959 23.451 13.964 23.454 12.883 22.588C12.8362 22.5601 12.7866 22.5373 12.735 22.52C12.672 22.593 12.614 22.668 12.549 22.735C12.173 23.113 11.803 23.484 11.434 23.855V23.857ZM24.376 6.53903C22.005 5.48403 19.725 4.46502 17.439 3.46402C17.2725 3.42349 17.0969 3.44481 16.945 3.52402C15.584 4.12402 14.229 4.72403 12.872 5.33203L10.2 6.53201C10.419 7.89001 10.589 9.20203 10.849 10.496C11.626 14.362 14.013 17.037 17.314 19.053C17.882 18.641 18.482 18.221 19.065 17.777C21.1403 16.2803 22.6507 14.1278 23.352 11.667C23.804 9.99902 24.04 8.27702 24.376 6.53702V6.53903ZM27.454 22.25H15.74V23.763H27.453L27.454 22.25ZM27.454 34.019H15.733V35.532H27.456L27.454 34.019ZM21.231 26.163V27.673H27.447V26.163H21.231ZM27.452 37.956H21.24V39.465H27.457L27.452 37.956ZM7.82397 2.62003H3.17999V4.13H7.82697L7.82397 2.62003ZM15.724 27.68H19.587V26.169H15.724V27.68ZM19.606 37.959H15.726V39.459H19.606V37.959ZM6.25598 5.75903H3.17798V7.26901H6.25598V5.75903ZM28.256 2.61401H26.73V4.11401H28.256V2.61401ZM29.872 2.604V4.13H31.372V2.604H29.872Z" fill="#25B0F9"/>
<path d="M35.335 2.37097C37.1516 2.68297 38.968 2.99529 40.784 3.30795C41.9573 3.51262 43.1293 3.72396 44.3 3.94196C45.224 4.11396 45.481 4.46996 45.326 5.41696C45.065 7.01096 44.785 8.60195 44.512 10.1949C43.804 14.3449 43.097 18.4946 42.391 22.644C41.7243 26.5686 41.0536 30.493 40.379 34.417C39.807 37.762 39.232 41.1079 38.674 44.4539C38.487 45.5739 38.285 45.771 37.144 45.769C36.544 45.769 35.934 45.758 35.33 45.753C35.33 40.6703 35.33 35.5883 35.33 30.507C35.3306 21.129 35.3323 11.7503 35.335 2.37097Z" fill="#FCBE44"/>
<path d="M35.3349 2.371C35.3349 11.7503 35.3333 21.13 35.33 30.51C35.33 35.592 35.33 40.674 35.33 45.756C34.899 45.761 34.4669 45.79 34.0389 45.761C33.8479 45.7155 33.6653 45.6399 33.4979 45.537C33.6238 45.1408 33.7083 44.7326 33.7499 44.319C33.7633 30.4523 33.7672 16.5827 33.7619 2.70999C33.7619 2.49799 33.7709 2.285 33.7759 2.073L35.3349 2.371Z" fill="#E5AC3E"/>
<path d="M24.376 6.53698C24.036 8.27798 23.804 9.99896 23.352 11.66C22.6511 14.121 21.1407 16.2737 19.065 17.77C18.482 18.214 17.88 18.634 17.314 19.046C14.014 17.03 11.626 14.354 10.849 10.489C10.588 9.19497 10.419 7.88295 10.2 6.52495L12.8719 5.32497C14.2289 4.71897 15.584 4.11096 16.945 3.51696C17.0971 3.43845 17.2724 3.41716 17.439 3.45696C19.73 4.46196 22.004 5.48198 24.376 6.53698ZM13.5659 11.012L15.578 13.018C16.35 13.789 16.59 13.793 17.348 13.035C18.538 11.845 19.7286 10.655 20.92 9.46495C21.185 9.20195 21.4709 8.96497 21.7339 8.72197L20.588 7.54497L16.44 11.706L14.685 9.88695L13.5659 11.012Z" fill="#FAFDFE"/>
<path d="M11.771 26.1481C11.771 27.0481 11.783 27.9481 11.771 28.8481C11.779 29.1145 11.7324 29.3798 11.6339 29.6274C11.5354 29.8751 11.3871 30.1 11.1983 30.2881C11.0094 30.4762 10.784 30.6236 10.5359 30.7211C10.2878 30.8186 10.0224 30.8642 9.75597 30.8551C8.48197 30.8631 7.2073 30.8631 5.93196 30.8551C5.66549 30.8634 5.40014 30.817 5.15233 30.7187C4.90453 30.6204 4.67955 30.4722 4.49132 30.2834C4.30309 30.0946 4.15559 29.8692 4.058 29.6211C3.96041 29.373 3.9148 29.1075 3.92397 28.8411C3.91597 27.5671 3.91597 26.2924 3.92397 25.0171C3.91505 24.7506 3.96095 24.4851 4.05886 24.2371C4.15676 23.989 4.30458 23.7638 4.49312 23.5752C4.68167 23.3867 4.90694 23.2389 5.15496 23.141C5.40297 23.0431 5.66846 22.9972 5.93496 23.0061C7.19296 22.9971 8.45195 23.0061 9.70995 23.0061C10.0462 22.991 10.3807 23.062 10.6819 23.2123C10.9831 23.3626 11.2409 23.5873 11.431 23.8651C11.22 24.1651 11.031 24.485 10.794 24.765C10.076 25.624 9.34194 26.4651 8.54094 27.4001C7.94994 26.7851 7.39894 26.2111 6.75194 25.5361C6.47494 25.8521 6.23194 26.1571 5.95894 26.4361C5.76494 26.6361 5.76494 26.7681 5.95894 26.9601C6.65894 27.6441 7.33795 28.3501 8.04195 29.0301C8.12034 29.1207 8.21835 29.1922 8.32854 29.2392C8.43873 29.2863 8.5582 29.3076 8.67784 29.3015C8.79749 29.2954 8.91417 29.2621 9.01903 29.2042C9.12389 29.1462 9.21414 29.0651 9.28295 28.9671C9.53295 28.6891 9.75996 28.39 10.009 28.11C10.596 27.448 11.185 26.7971 11.771 26.1481Z" fill="#FAFDFE"/>
<path d="M11.771 37.9239C11.771 38.8239 11.783 39.7239 11.771 40.6239C11.779 40.8904 11.7324 41.1557 11.6339 41.4034C11.5354 41.651 11.3871 41.8759 11.1983 42.064C11.0094 42.2521 10.784 42.3995 10.5359 42.497C10.2878 42.5945 10.0224 42.6401 9.75597 42.631C8.48197 42.639 7.2073 42.639 5.93196 42.631C5.66549 42.6393 5.40014 42.5929 5.15233 42.4946C4.90453 42.3963 4.67955 42.2481 4.49132 42.0593C4.30309 41.8705 4.15559 41.6451 4.058 41.397C3.96041 41.1489 3.9148 40.8834 3.92397 40.617C3.91597 39.343 3.91597 38.0683 3.92397 36.7929C3.91505 36.5264 3.96095 36.261 4.05886 36.013C4.15676 35.765 4.30458 35.5397 4.49312 35.3511C4.68167 35.1626 4.90694 35.0147 5.15496 34.9168C5.40297 34.8189 5.66846 34.773 5.93496 34.782C7.19296 34.773 8.45195 34.782 9.70995 34.782C10.0462 34.7669 10.3807 34.8379 10.6819 34.9882C10.9831 35.1385 11.2409 35.3632 11.431 35.641C11.22 35.941 11.031 36.2609 10.794 36.5409C10.076 37.3999 9.34194 38.2409 8.54094 39.1759C7.94994 38.5609 7.39894 37.9869 6.75194 37.3119C6.47494 37.6279 6.23194 37.9329 5.95894 38.2119C5.76494 38.4119 5.76494 38.5439 5.95894 38.7359C6.65894 39.4199 7.33795 40.1259 8.04195 40.8059C8.12034 40.8965 8.21835 40.9681 8.32854 41.0151C8.43873 41.0621 8.5582 41.0834 8.67784 41.0774C8.79749 41.0713 8.91417 41.038 9.01903 40.9801C9.12389 40.9221 9.21414 40.841 9.28295 40.743C9.53295 40.465 9.75996 40.166 10.009 39.886C10.596 39.224 11.185 38.5759 11.771 37.9239Z" fill="#FAFDFE"/>
<path d="M27.4539 22.248V23.761H15.741V22.248H27.4539Z" fill="#FBFDFE"/>
<path d="M27.453 34.017V35.53H15.733V34.017H27.453Z" fill="#FBFDFE"/>
<path d="M11.77 26.147C11.184 26.797 10.595 27.447 10.013 28.099C9.76398 28.378 9.53699 28.677 9.28699 28.956C9.21831 29.0542 9.1281 29.1354 9.02323 29.1935C8.91836 29.2516 8.8016 29.2849 8.68189 29.291C8.56218 29.2971 8.44267 29.2757 8.33246 29.2286C8.22226 29.1814 8.12428 29.1097 8.046 29.019C7.346 28.339 6.66299 27.633 5.96299 26.949C5.76299 26.756 5.76299 26.62 5.96299 26.425C6.23599 26.15 6.47799 25.846 6.75599 25.525L8.54499 27.3889C9.34499 26.4559 10.08 25.611 10.798 24.754C11.033 24.472 11.224 24.154 11.435 23.854C11.805 23.482 12.174 23.112 12.543 22.738C12.609 22.671 12.665 22.5959 12.729 22.5229C12.7805 22.5406 12.8301 22.5634 12.877 22.591C13.958 23.458 13.953 23.454 13.068 24.518C12.623 25.054 12.202 25.604 11.77 26.147Z" fill="#81DAFE"/>
<path d="M11.77 37.925C11.184 38.575 10.595 39.225 10.013 39.877C9.76398 40.156 9.53699 40.455 9.28699 40.734C9.21831 40.8322 9.1281 40.9135 9.02323 40.9716C8.91836 41.0296 8.8016 41.063 8.68189 41.069C8.56218 41.0751 8.44267 41.0537 8.33246 41.0066C8.22226 40.9594 8.12428 40.8878 8.046 40.797C7.346 40.117 6.66299 39.411 5.96299 38.727C5.76299 38.534 5.76299 38.398 5.96299 38.203C6.23599 37.928 6.47799 37.624 6.75599 37.303L8.54499 39.167C9.34499 38.234 10.08 37.389 10.798 36.532C11.033 36.25 11.224 35.932 11.435 35.632C11.805 35.26 12.174 34.89 12.543 34.516C12.609 34.449 12.665 34.374 12.729 34.301C12.7805 34.3186 12.8301 34.3414 12.877 34.369C13.958 35.236 13.953 35.232 13.068 36.296C12.623 36.832 12.202 37.382 11.77 37.925Z" fill="#81DAFE"/>
<path d="M21.234 26.161H27.45V27.671H21.234V26.161Z" fill="#FBFDFE"/>
<path d="M27.456 37.954V39.463H21.238V37.954H27.456Z" fill="#FBFDFE"/>
<path d="M7.82693 2.61707V4.12708H3.17993V2.61707H7.82693Z" fill="#FBFDFE"/>
<path d="M15.725 27.677V26.166H19.588V27.677H15.725Z" fill="#FBFDFE"/>
<path d="M19.6069 37.9561V39.4561H15.7269V37.9561H19.6069Z" fill="#FBFDFE"/>
<path d="M6.25696 5.76001V7.26901H3.17896V5.76001H6.25696Z" fill="#FBFDFE"/>
<path d="M28.254 2.61499V4.11499H26.728V2.61499H28.254Z" fill="#FBFDFE"/>
<path d="M29.87 2.604H31.37V4.13H29.87V2.604Z" fill="#FBFDFE"/>
<path d="M13.566 11.012L14.686 9.88602L16.441 11.706L20.589 7.54504L21.735 8.72202C21.471 8.96202 21.186 9.20303 20.921 9.46503C19.727 10.6517 18.5364 11.8417 17.349 13.035C16.591 13.793 16.349 13.79 15.579 13.018L13.566 11.012Z" fill="#2AB2F9"/>
</svg>
