<svg xmlns="http://www.w3.org/2000/svg" width="32.459" height="32.285" viewBox="0 0 32.459 32.285">
  <g id="Group_10257" data-name="Group 10257" transform="translate(-1267.616 -215.678)">
    <path id="Path_20292" data-name="Path 20292" d="M31.528,37.187a.851.851,0,0,0-.851.851v7.554a2.555,2.555,0,0,1-2.552,2.552H4.254A2.555,2.555,0,0,1,1.7,45.592V23.422A2.555,2.555,0,0,1,4.254,20.87h7.554a.851.851,0,0,0,0-1.7H4.254A4.259,4.259,0,0,0,0,23.422v22.17a4.259,4.259,0,0,0,4.254,4.254H28.125a4.259,4.259,0,0,0,4.254-4.254V38.038A.851.851,0,0,0,31.528,37.187Zm0,0" transform="translate(1267.616 198.117)" fill="#666"/>
    <g id="Group_10256" data-name="Group 10256">
      <path id="Path_20293" data-name="Path 20293" d="M156.367,44.75l12.422-12.422,4.006,4.006L160.373,48.757Zm0,0" transform="translate(1124.552 186.077)" fill="#666"/>
      <path id="Path_20294" data-name="Path 20294" d="M132.543,201.646l4.427-1.226-3.2-3.2Zm0,0" transform="translate(1146.35 35.215)" fill="#666"/>
      <path id="Path_20295" data-name="Path 20295" d="M320.437.89a2.13,2.13,0,0,0-3.008,0l-.9.9L320.533,5.8l.9-.9a2.129,2.129,0,0,0,0-3.008Zm0,0" transform="translate(978.018 215.409)" fill="#666"/>
    </g>
  </g>
</svg>
