<svg xmlns="http://www.w3.org/2000/svg" xmlns:xlink="http://www.w3.org/1999/xlink" width="92" height="92" viewBox="0 0 92 92">
  <defs>
    <filter id="Ellipse_2091" x="0" y="0" width="92" height="92" filterUnits="userSpaceOnUse">
      <feOffset input="SourceAlpha"/>
      <feGaussianBlur stdDeviation="3" result="blur"/>
      <feFlood flood-opacity="0.161"/>
      <feComposite operator="in" in2="blur"/>
      <feComposite in="SourceGraphic"/>
    </filter>
  </defs>
  <g id="Group_17274" data-name="Group 17274" transform="translate(15989 16896)">
    <g transform="matrix(1, 0, 0, 1, -15989, -16896)" filter="url(#Ellipse_2091)">
      <circle id="Ellipse_2091-2" data-name="Ellipse 2091" cx="37" cy="37" r="37" transform="translate(9 9)" fill="#fff"/>
    </g>
    <g id="Group_17273" data-name="Group 17273" transform="translate(2)">
      <path id="Path_18840" data-name="Path 18840" d="M26.234,96.862a1.38,1.38,0,0,0-1.381,1.381v11.046a1.382,1.382,0,0,1-1.381,1.381H4.142a1.382,1.382,0,0,1-1.381-1.381V89.958a1.382,1.382,0,0,1,1.381-1.381H15.188a1.381,1.381,0,0,0,0-2.761H4.142A4.147,4.147,0,0,0,0,89.958v19.33a4.147,4.147,0,0,0,4.142,4.142h19.33a4.147,4.147,0,0,0,4.142-4.142V98.242a1.38,1.38,0,0,0-1.381-1.381Zm0,0" transform="translate(-15959.568 -16949.295)" fill="#666"/>
      <path id="Path_18841" data-name="Path 18841" d="M182.987,79.186a.7.7,0,0,0-.189.352l-.976,4.882a.69.69,0,0,0,.678.825.656.656,0,0,0,.135-.014l4.881-.976a.687.687,0,0,0,.353-.189l10.924-10.924-4.881-4.881Zm0,0" transform="translate(-16129.609 -16932.877)" fill="#666"/>
      <path id="Path_18842" data-name="Path 18842" d="M398.237,1.511a3.454,3.454,0,0,0-4.881,0l-1.911,1.911L396.326,8.3l1.911-1.911a3.451,3.451,0,0,0,0-4.881Zm0,0" transform="translate(-16325.68 -16869.502)" fill="#666"/>
    </g>
  </g>
</svg>
