<svg xmlns="http://www.w3.org/2000/svg" width="29" height="29" viewBox="0 0 29 29">
  <g id="logo_dutypedia" data-name="logo dutypedia" transform="translate(-517.82 -1122.82)">
    <g id="Ellipse_1675" data-name="Ellipse 1675" transform="translate(517.82 1122.82)" fill="#fff" stroke="#e22424" stroke-width="1">
      <circle cx="14.5" cy="14.5" r="14.5" stroke="none"/>
      <circle cx="14.5" cy="14.5" r="14" fill="none"/>
    </g>
    <path id="Path_6617" data-name="Path 6617" d="M663.432,228.572c-3.332-1.947-10.161-.646-13.082,1.07.926,4.926,1.9,13.011,2.469,14.756a.972.972,0,0,0,.3.45l.023.018a1.386,1.386,0,0,0,1.218.249c2.655-.689,6.23-4.087,8.734-7.705a13.1,13.1,0,0,0,2.113-5.1,3.706,3.706,0,0,0-1.775-3.737m-6.507,12.53a5.365,5.365,0,0,1-1.688-.27,4.986,4.986,0,0,1,2.795-9.449q.134.018.265.042a1.31,1.31,0,0,1,.671.332.852.852,0,0,1,.107,1.206c-.02.024-.041.047-.062.069a.966.966,0,0,1-.465.256.739.739,0,0,1-.277.006c-.093-.014-.184-.039-.281-.061a3.644,3.644,0,0,0-.6-.086c-.073,0-.146-.007-.221-.007a3.628,3.628,0,0,0-1.792,6.781,4.017,4.017,0,0,0,5.409-5.593,3.91,3.91,0,0,1,.946,2.528,4.552,4.552,0,0,1-4.807,4.245m7.052-7.575a.534.534,0,1,1-1.068,0v-1.934c-2.074,1.883-4.087,3.654-5.893,5.046l5.1-5.782h-2a.552.552,0,0,1,0-1.1h3.367a.491.491,0,0,1,.491.491Z" transform="translate(-125.512 902.238)" fill="#da1e37"/>
  </g>
</svg>
