<svg width="72" height="72" viewBox="0 0 72 72" fill="none" xmlns="http://www.w3.org/2000/svg">
<path d="M36 0C28.8799 0 21.9197 2.11136 15.9995 6.06709C10.0793 10.0228 5.46511 15.6453 2.74035 22.2234C0.0155983 28.8015 -0.697322 36.0399 0.691746 43.0233C2.08081 50.0066 5.50948 56.4212 10.5442 61.4558C15.5789 66.4905 21.9934 69.9192 28.9768 71.3083C35.9601 72.6973 43.1985 71.9844 49.7766 69.2597C56.3548 66.5349 61.9772 61.9207 65.9329 56.0005C69.8887 50.0804 72 43.1201 72 36C71.9892 26.4555 68.1928 17.3051 61.4439 10.5561C54.6949 3.80718 45.5445 0.0108516 36 0V0ZM54.8 59.629C49.0575 64.2088 41.843 66.5395 34.5064 66.185C27.1698 65.8305 20.2137 62.8152 14.9394 57.7031C9.66513 52.591 6.43409 45.7323 5.85074 38.4104C5.26739 31.0884 7.37172 23.8047 11.77 17.922C11.8786 17.7741 12.0181 17.6517 12.1789 17.5633C12.3396 17.4749 12.5178 17.4227 12.7008 17.4103C12.8838 17.398 13.0674 17.4257 13.2386 17.4916C13.4098 17.5575 13.5645 17.6601 13.692 17.792L54.874 57.7C55.0095 57.824 55.1164 57.9761 55.1872 58.1456C55.258 58.3152 55.291 58.4981 55.284 58.6816C55.277 58.8652 55.23 59.0451 55.1464 59.2087C55.0629 59.3723 54.9446 59.5157 54.8 59.629ZM60.711 53.355C60.6088 53.5054 60.4743 53.6309 60.3172 53.7224C60.1601 53.814 59.9845 53.8691 59.8034 53.8839C59.6222 53.8987 59.44 53.8727 59.2701 53.8078C59.1003 53.7429 58.9472 53.6408 58.822 53.509L17.767 13.715C17.6308 13.5934 17.5237 13.4427 17.4535 13.2741C17.3833 13.1055 17.3519 12.9234 17.3615 12.741C17.371 12.5587 17.4215 12.3808 17.509 12.2205C17.5965 12.0603 17.7188 11.9217 17.867 11.815C23.6177 7.47707 30.7296 5.33754 37.9192 5.78251C45.1088 6.22748 51.9026 9.22764 57.0746 14.2416C62.2465 19.2555 65.4559 25.953 66.1237 33.1253C66.7914 40.2977 64.8735 47.4725 60.716 53.355H60.711Z" fill="#C7C7C7"/>
</svg>
