<svg width="35" height="35" viewBox="0 0 35 35" fill="none" xmlns="http://www.w3.org/2000/svg">
<g filter="url(#filter0_d_1_1393)">
<path d="M17.5586 28.01C23.6337 28.01 28.5586 23.0851 28.5586 17.01C28.5586 10.9349 23.6337 6.01001 17.5586 6.01001C11.4835 6.01001 6.55859 10.9349 6.55859 17.01C6.55859 23.0851 11.4835 28.01 17.5586 28.01Z" fill="#E22424"/>
</g>
<path d="M17.5586 27.01C23.0814 27.01 27.5586 22.5329 27.5586 17.01C27.5586 11.4872 23.0814 7.01001 17.5586 7.01001C12.0357 7.01001 7.55859 11.4872 7.55859 17.01C7.55859 22.5329 12.0357 27.01 17.5586 27.01Z" fill="white"/>
<path d="M21.9257 10.903C19.4127 9.36501 14.2616 10.392 12.0576 11.748C12.7576 15.64 13.4926 22.029 13.9196 23.408C13.9605 23.545 14.0388 23.668 14.1456 23.763L14.1627 23.778C14.2881 23.8835 14.4373 23.9568 14.5974 23.9916C14.7575 24.0265 14.9238 24.0218 15.0817 23.978C17.0817 23.433 19.7816 20.749 21.6696 17.889C22.4722 16.6695 23.0149 15.2976 23.2637 13.859C23.3496 13.2901 23.2689 12.7084 23.0312 12.1843C22.7936 11.6602 22.4092 11.2163 21.9246 10.906L21.9257 10.903ZM17.0167 20.806C16.5834 20.8066 16.1531 20.7346 15.7437 20.593C15.0898 20.2577 14.5423 19.747 14.1624 19.118C13.7825 18.4891 13.5852 17.7668 13.5927 17.032C13.5924 16.718 13.6279 16.405 13.6987 16.099C13.8779 15.2584 14.3368 14.5034 15.0004 13.9573C15.6641 13.4112 16.4933 13.1061 17.3527 13.092C17.5199 13.0921 17.687 13.1038 17.8527 13.127C17.9193 13.1363 17.9859 13.1477 18.0526 13.161C18.2437 13.1958 18.4199 13.2871 18.5587 13.423C18.6904 13.5421 18.7719 13.7068 18.7867 13.8837C18.8016 14.0607 18.7487 14.2366 18.6387 14.376C18.6237 14.395 18.6076 14.413 18.5916 14.431C18.4964 14.5297 18.375 14.5991 18.2416 14.631C18.173 14.6465 18.102 14.6482 18.0327 14.636C17.9627 14.625 17.8936 14.605 17.8206 14.588C17.6722 14.5522 17.521 14.5295 17.3687 14.52C17.3137 14.52 17.2576 14.514 17.2026 14.514C16.832 14.5153 16.4657 14.5937 16.127 14.7444C15.7884 14.895 15.4848 15.1146 15.2357 15.389C14.7377 15.9325 14.4631 16.6439 14.4666 17.381C14.4617 17.966 14.6344 18.5388 14.9618 19.0236C15.2892 19.5085 15.7559 19.8827 16.3004 20.0967C16.8448 20.3108 17.4415 20.3547 18.0114 20.2226C18.5814 20.0906 19.0978 19.7887 19.4926 19.357C19.9863 18.8467 20.297 18.1872 20.3763 17.4817C20.4555 16.7761 20.2988 16.0641 19.9307 15.457C20.391 16.022 20.6431 16.7282 20.6447 17.457C20.6067 18.3819 20.2038 19.2542 19.5242 19.8828C18.8447 20.5114 17.9437 20.8451 17.0186 20.811L17.0167 20.806ZM22.3376 14.826C22.3376 14.9329 22.2952 15.0354 22.2196 15.111C22.144 15.1865 22.0415 15.229 21.9346 15.229C21.8277 15.229 21.7252 15.1865 21.6497 15.111C21.5741 15.0354 21.5316 14.9329 21.5316 14.826V13.298C19.9676 14.786 18.4487 16.186 17.0867 17.285L20.9346 12.716H19.4276C19.3155 12.7106 19.2097 12.6623 19.1322 12.581C19.0547 12.4998 19.0115 12.3918 19.0115 12.2795C19.0115 12.1672 19.0547 12.0593 19.1322 11.978C19.2097 11.8967 19.3155 11.8484 19.4276 11.843H21.9677C22.0683 11.8454 22.1638 11.8876 22.2334 11.9603C22.303 12.033 22.3408 12.1304 22.3386 12.231L22.3376 14.826Z" fill="#E22424"/>
<defs>
<filter id="filter0_d_1_1393" x="0.558594" y="0.0100098" width="34" height="34" filterUnits="userSpaceOnUse" color-interpolation-filters="sRGB">
<feFlood flood-opacity="0" result="BackgroundImageFix"/>
<feColorMatrix in="SourceAlpha" type="matrix" values="0 0 0 0 0 0 0 0 0 0 0 0 0 0 0 0 0 0 127 0" result="hardAlpha"/>
<feOffset/>
<feGaussianBlur stdDeviation="3"/>
<feColorMatrix type="matrix" values="0 0 0 0 0 0 0 0 0 0 0 0 0 0 0 0 0 0 0.161 0"/>
<feBlend mode="normal" in2="BackgroundImageFix" result="effect1_dropShadow_1_1393"/>
<feBlend mode="normal" in="SourceGraphic" in2="effect1_dropShadow_1_1393" result="shape"/>
</filter>
</defs>
</svg>
