<svg width="44" height="44" viewBox="0 0 44 44" fill="none" xmlns="http://www.w3.org/2000/svg">
<path d="M25.5128 36.7755L34.5265 11.2563C34.5741 11.08 34.5751 10.8942 34.5295 10.7174C34.4839 10.5405 34.3932 10.3784 34.2662 10.2471C34.1393 10.1157 33.9804 10.0196 33.8052 9.96798C33.6299 9.91639 33.4443 9.91115 33.2664 9.95277L7.45393 18.093C7.26521 18.1544 7.09854 18.2696 6.97442 18.4244C6.85029 18.5792 6.77412 18.7669 6.75527 18.9645C6.73896 19.164 6.78291 19.3639 6.88145 19.5381C6.97999 19.7124 7.12858 19.8531 7.30798 19.942L17.3459 25.1972L19.7836 24.2414L18.7478 26.6474L23.6592 36.8579C23.742 37.0402 23.8776 37.1935 24.0484 37.2979C24.2192 37.4023 24.4175 37.453 24.6175 37.4435C24.8156 37.4315 25.0059 37.362 25.1649 37.2433C25.324 37.1246 25.4449 36.962 25.5128 36.7755Z" fill="url(#paint0_linear_1_1418)"/>
<path d="M16.89 27.0444C16.7982 26.9492 16.6885 26.8731 16.5672 26.8203C16.4459 26.7676 16.3153 26.7393 16.1831 26.737C16.0508 26.7348 15.9194 26.7587 15.7964 26.8073C15.6734 26.8559 15.5611 26.9282 15.4661 27.0203L9.5775 32.7123C9.38548 32.8979 9.27505 33.1522 9.27052 33.4193C9.26599 33.6863 9.36772 33.9442 9.55334 34.1362C9.73895 34.3282 9.99325 34.4387 10.2603 34.4432C10.5273 34.4477 10.7852 34.346 10.9772 34.1604L16.8658 28.4683C16.961 28.3765 17.0372 28.2668 17.0899 28.1455C17.1427 28.0242 17.171 27.8937 17.1732 27.7614C17.1755 27.6291 17.1516 27.4977 17.103 27.3747C17.0544 27.2517 16.982 27.1395 16.89 27.0444V27.0444ZM25.5784 18.6461C25.487 18.5501 25.3774 18.4734 25.2561 18.4202C25.1347 18.3669 25.004 18.3384 24.8715 18.3361C24.739 18.3339 24.6074 18.358 24.4843 18.4071C24.3612 18.4561 24.2491 18.5291 24.1545 18.6219L17.3485 25.2008L18.2942 25.6871L18.7482 26.6488L25.5542 20.07C25.6502 19.9785 25.7269 19.869 25.7801 19.7476C25.8334 19.6263 25.8619 19.4955 25.8642 19.3631C25.8664 19.2306 25.8423 19.099 25.7932 18.9759C25.7442 18.8528 25.6712 18.7407 25.5784 18.6461V18.6461ZM12.641 25.5494C12.4564 25.358 12.2035 25.2475 11.9376 25.2421C11.6717 25.2366 11.4145 25.3367 11.2222 25.5204L8.22971 28.413C8.03768 28.5986 7.92726 28.8529 7.92272 29.1199C7.91819 29.387 8.01992 29.6449 8.20554 29.8369C8.39115 30.0289 8.64545 30.1393 8.91248 30.1439C9.17951 30.1484 9.43741 30.0467 9.62944 29.8611L12.6219 26.9685C12.812 26.7825 12.9208 26.5288 12.9243 26.2629C12.9279 25.997 12.8261 25.7405 12.641 25.5494V25.5494ZM18.24 31.3417C18.0553 31.1503 17.8024 31.0398 17.5365 31.0343C17.2706 31.0289 17.0134 31.129 16.8211 31.3127L13.8286 34.2052C13.6366 34.3909 13.5262 34.6452 13.5216 34.9122C13.5171 35.1792 13.6188 35.4371 13.8045 35.6291C13.9901 35.8212 14.2444 35.9316 14.5114 35.9361C14.7784 35.9407 15.0363 35.8389 15.2284 35.6533L18.2208 32.7607C18.4109 32.5748 18.5197 32.3211 18.5233 32.0552C18.5268 31.7892 18.425 31.5327 18.24 31.3417V31.3417Z" fill="url(#paint1_linear_1_1418)"/>
<defs>
<linearGradient id="paint0_linear_1_1418" x1="15.4421" y1="28.4405" x2="34.2651" y2="10.2459" gradientUnits="userSpaceOnUse">
<stop stop-color="#E22424"/>
<stop offset="1" stop-color="#FF7E7E"/>
</linearGradient>
<linearGradient id="paint1_linear_1_1418" x1="9.55334" y1="34.1362" x2="25.5784" y2="18.646" gradientUnits="userSpaceOnUse">
<stop stop-color="#E22424"/>
<stop offset="0.997" stop-color="#F0FFF4"/>
<stop offset="1" stop-color="#F0FFF4"/>
</linearGradient>
</defs>
</svg>
