<svg xmlns="http://www.w3.org/2000/svg" xmlns:xlink="http://www.w3.org/1999/xlink" width="52" height="52" viewBox="0 0 52 52">
  <defs>
    <linearGradient id="linear-gradient" x1="0.051" y1="0.06" x2="0.976" y2="0.799" gradientUnits="objectBoundingBox">
      <stop offset="0" stop-color="#7faef4"/>
      <stop offset="1" stop-color="#4c8df1"/>
    </linearGradient>
    <linearGradient id="linear-gradient-2" x1="0.908" y1="0.908" x2="0.098" y2="0.098" xlink:href="#linear-gradient"/>
    <linearGradient id="linear-gradient-3" x1="0.384" y1="0.403" x2="0.791" y2="0.83" gradientUnits="objectBoundingBox">
      <stop offset="0" stop-color="#4166bf"/>
      <stop offset="1" stop-color="#4256ac"/>
    </linearGradient>
    <linearGradient id="linear-gradient-4" x1="0.831" y1="0.75" x2="0.186" y2="0.167" gradientUnits="objectBoundingBox">
      <stop offset="0" stop-color="#4256ac" stop-opacity="0"/>
      <stop offset="1" stop-color="#1b1464"/>
    </linearGradient>
    <linearGradient id="linear-gradient-5" x1="-0.944" y1="-0.944" x2="1.522" y2="1.522" gradientUnits="objectBoundingBox">
      <stop offset="0" stop-color="#ebeff0"/>
      <stop offset="1" stop-color="#e3e5e4"/>
    </linearGradient>
    <linearGradient id="linear-gradient-6" x1="0.398" y1="0.136" x2="0.597" y2="0.802" xlink:href="#linear-gradient-5"/>
  </defs>
  <g id="Group_10448" data-name="Group 10448" transform="translate(-1642 -542)">
    <circle id="Ellipse_1565" data-name="Ellipse 1565" cx="26" cy="26" r="26" transform="translate(1642 542)" fill="#fff"/>
    <g id="google_2_" data-name="google (2)" transform="translate(1655 552.637)">
      <path id="Path_4987" data-name="Path 4987" d="M63.012.181c-2.372.961-7.866,3.282-10.571,3.839a1.287,1.287,0,0,0-1.024,1.263v7.823a20.388,20.388,0,0,0,7.521,15.815l1.469,1.195a5.6,5.6,0,0,0,7.066,0l1.469-1.195a20.389,20.389,0,0,0,7.521-15.816V5.282A1.287,1.287,0,0,0,75.439,4.02c-2.7-.556-8.2-2.878-10.571-3.839a2.471,2.471,0,0,0-1.857,0Z" transform="translate(-51.417 0)" fill="url(#linear-gradient)"/>
      <g id="Group_5958" data-name="Group 5958" transform="translate(2.108 5.27)">
        <ellipse id="Ellipse_633" data-name="Ellipse 633" cx="10.416" cy="10.415" rx="10.416" ry="10.415" transform="translate(0)" fill="url(#linear-gradient-2)"/>
        <path id="Path_4988" data-name="Path 4988" d="M123.245,114a9.22,9.22,0,0,1-3.186,6.982c-1.622,1.408-3.739,1.4-6.055,1.4-2.293,0-4.391.026-6.006-1.356A9.242,9.242,0,1,1,123.245,114Z" transform="translate(-103.588 -103.588)" fill="url(#linear-gradient-3)"/>
        <path id="Path_4989" data-name="Path 4989" d="M190.88,127.937a4.15,4.15,0,0,0-4.225,4.224,4.232,4.232,0,0,0,1.326,3.221l7.455,7.455c.312-.211,1.195.143,1.478-.1a9.22,9.22,0,0,0,3.187-6.982q0-.254-.014-.5l-5.986-5.986A4.232,4.232,0,0,0,190.88,127.937Z" transform="translate(-180.445 -125.338)" fill="url(#linear-gradient-4)"/>
        <ellipse id="Ellipse_634" data-name="Ellipse 634" cx="4.334" cy="4.334" rx="4.334" ry="4.334" transform="translate(6.082 2.47)" fill="url(#linear-gradient-5)"/>
        <path id="Path_4990" data-name="Path 4990" d="M158.116,289.65a2.08,2.08,0,0,1,.227,3.333l-.037.031a9.241,9.241,0,0,1-11.927-.04l-.019-.016a2.078,2.078,0,0,1,.241-3.327,10.714,10.714,0,0,1,11.515.019Z" transform="translate(-141.951 -275.519)" fill="url(#linear-gradient-6)"/>
      </g>
    </g>
  </g>
</svg>
