<svg xmlns="http://www.w3.org/2000/svg" width="20.453" height="23.923" viewBox="0 0 20.453 23.923">
  <g id="notifications-outline" transform="translate(0.521 0.5)">
    <path id="Path_2099" data-name="Path 2099" d="M24.781,20.095c-1.415-1.732-2.414-2.614-2.414-7.389,0-4.372-2.233-5.93-4.07-6.686a.983.983,0,0,1-.549-.581,2.67,2.67,0,0,0-2.427-2.063A2.665,2.665,0,0,0,12.9,5.44a.972.972,0,0,1-.549.58c-1.84.758-4.07,2.31-4.07,6.686,0,4.775-1,5.657-2.416,7.389a1.111,1.111,0,0,0,.952,1.795h17.02A1.112,1.112,0,0,0,24.781,20.095Z" transform="translate(-5.614 -3.375)" fill="none" stroke="#da1e37" stroke-linecap="round" stroke-linejoin="round" stroke-width="1"/>
    <path id="Path_2100" data-name="Path 2100" d="M20.553,27v.882a3.527,3.527,0,0,1-7.053,0V27" transform="translate(-7.32 -8.485)" fill="none" stroke="#da1e37" stroke-linecap="round" stroke-linejoin="round" stroke-width="1"/>
  </g>
</svg>
