<svg xmlns="http://www.w3.org/2000/svg" width="9.617" height="12.461" viewBox="0 0 9.617 12.461">
  <g id="placeholder" transform="translate(-58.43)">
    <path id="Path_4991" data-name="Path 4991" d="M63.238,0A4.814,4.814,0,0,0,58.43,4.808,6.583,6.583,0,0,0,59.171,7.7a12.224,12.224,0,0,0,1.614,2.422,16.84,16.84,0,0,0,2.341,2.3.183.183,0,0,0,.223,0,16.838,16.838,0,0,0,2.341-2.3A12.227,12.227,0,0,0,67.305,7.7a6.583,6.583,0,0,0,.742-2.889A4.814,4.814,0,0,0,63.238,0Z" transform="translate(0)" fill="#ff4a4a"/>
    <g id="Group_5959" data-name="Group 5959" transform="translate(59.895)">
      <path id="Path_4992" data-name="Path 4992" d="M234.742,0a4.836,4.836,0,0,0-.53.029,4.815,4.815,0,0,1,4.278,4.779,6.582,6.582,0,0,1-.742,2.889,12.224,12.224,0,0,1-1.614,2.422,17.639,17.639,0,0,1-1.923,1.956c.246.213.4.334.419.348a.183.183,0,0,0,.223,0,16.838,16.838,0,0,0,2.341-2.3A12.226,12.226,0,0,0,238.809,7.7a6.582,6.582,0,0,0,.742-2.889A4.814,4.814,0,0,0,234.742,0Z" transform="translate(-231.399)" fill="#e7343f"/>
      <path id="Path_4993" data-name="Path 4993" d="M121.961,60.188a3.344,3.344,0,1,0,3.344,3.344A3.347,3.347,0,0,0,121.961,60.188Z" transform="translate(-118.617 -58.723)" fill="#e7343f"/>
    </g>
    <path id="Path_4994" data-name="Path 4994" d="M162.3,102.449l-2.213-2.071a.183.183,0,0,0-.25,0l-2.213,2.071a.183.183,0,0,0,.125.316h.466v1.517a.183.183,0,0,0,.183.183h.911a.183.183,0,0,0,.183-.183v-.854h.941v.854a.183.183,0,0,0,.183.183h.911a.183.183,0,0,0,.183-.183v-1.517h.466a.183.183,0,0,0,.125-.316Z" transform="translate(-96.72 -97.887)" fill="#ffdb57"/>
  </g>
</svg>
